<?xml version="1.0" standalone="no"?>
<!DOCTYPE svg PUBLIC "-//W3C//DTD SVG 1.1//EN" "http://www.w3.org/Graphics/SVG/1.1/DTD/svg11.dtd" >
<svg>
<metadata>
Created by FontForge 20090622 at Mon Nov 12 05:05:24 2018
 By ffonts
Copyright (c) 2016 by M&#195;&#130;ns Greb&#226;&#128;&#176;ck. All rights reserved.
</metadata>
<defs>
<font id="BarleyScriptPERSONALUSE" horiz-adv-x="1503" >
  <font-face 
    font-family="Barley Script PERSONAL USE"
    font-weight="400"
    font-stretch="normal"
    units-per-em="1000"
    panose-1="0 0 0 0 0 0 0 0 0 0"
    ascent="800"
    descent="-200"
    x-height="349.5"
    cap-height="725"
    bbox="-340.529 -385.645 4183 973.766"
    underline-thickness="50"
    underline-position="-50"
    unicode-range="U+000D-U+FB02"
  />
<missing-glyph horiz-adv-x="305" 
 />
    <glyph glyph-name="fi" unicode="fi" horiz-adv-x="533" 
d="M423 325q14 12 30.5 18.5t28.5 6.5t17.5 -8t-2.5 -26q-5 -12 -16.5 -30.5l-25 -39.5l-27 -43t-23 -41.5t-13 -34.5t3.5 -22q10 -11 27.5 -8t37 13.5t39 26t33.5 29.5t25.5 14.5t17.5 -7t5 -20t-12 -23.5q-62 -61 -114.5 -95.5t-97.5 -34.5q-23 0 -42.5 10t-31 28.5
t-13 45.5t11.5 61q6 17 14 32l16 29q-32 -11 -62 -12t-57 4q5 -47 0 -100t-18.5 -103.5t-35 -95t-47.5 -75t-57 -43t-63 1.5q-24 10 -38 44.5t-11 91.5t28 134.5t81 173.5l27 48q-16 22 -19 43t4 34t23.5 15.5t39.5 -12.5l88.5 141t87.5 114q35 38 69 56t61.5 19.5t46 -12
t23.5 -39.5t-7 -62t-45 -79q-36 -48 -92 -105.5l-127 -124.5q25 -1 52.5 3t53 11t48.5 16t40 18zM623 483q0 -29 -20 -49t-49 -20t-49 20t-20 49t20 49t49 20t49 -20t20 -49zM22 -84q9 -12 29.5 10t39.5 63t29.5 92.5t0.5 98.5l-28 -25q-20 -43 -36.5 -82.5t-26 -71
t-12.5 -54t4 -31.5zM347 562q-17 -15 -38.5 -42t-45 -62.5l-49 -77.5t-49.5 -86q0 -1 1 -2l64.5 63t61 65t51 61t34.5 51q22 40 11 48t-41 -18z" />
    <glyph glyph-name="fl" unicode="fl" horiz-adv-x="595" 
d="M431 493q-38 -51 -97.5 -111.5l-135.5 -131.5q29 -8 59.5 -5.5t56.5 10.5q14 36 37 77t51.5 81.5t60.5 77.5t65.5 65.5t66 45.5t61.5 17t45 -18t15.5 -48t-18.5 -69.5t-56 -83t-97 -88t-142 -84.5q-9 -32 -7.5 -58.5t16.5 -46.5q17 -22 41 -25t49 6t49.5 26.5t43.5 35.5
q16 16 28.5 17.5t18.5 -6t4 -21t-15 -26.5q-54 -54 -99 -83.5t-82 -40t-67 -3.5t-53 26q-27 23 -37.5 62.5t0.5 95.5q-23 -4 -48 -5t-50 3q5 -46 -1 -97.5t-20.5 -100.5t-35.5 -92t-47.5 -72t-56.5 -41t-62 1q-24 10 -38 44.5t-11 91.5t28 134.5t81 173.5l12 21.5t13 21.5
q-15 24 -19 45.5t2 34t22 13.5t41 -15q45 77 90 145.5t90 116.5q35 38 69 56t61.5 19.5t46 -12t23.5 -39.5t-7 -62t-45 -79zM22 -84q9 -12 29.5 10t39.5 63t29.5 92.5t0.5 98.5l-28 -25q-20 -43 -36.5 -82.5t-26 -71t-12.5 -54t4 -31.5zM347 562q-17 -15 -39 -43t-46 -64
t-49.5 -78.5l-50.5 -87.5h1l65 63.5t62 66t52 62t35 51.5q22 40 11 48t-41 -18zM621 503q-9 8 -31 -6.5t-49 -43t-55.5 -67t-50.5 -80.5q42 25 80.5 55t66 58t39.5 51t0 33z" />
    <glyph glyph-name="T_h" unicode="Th" horiz-adv-x="904" 
d="M77 607q50 31 109.5 37.5t123 2t129.5 -13t130.5 -7.5t125 17.5t113.5 63.5q22 20 41 22t31 -7t14 -24.5t-8 -30.5q-27 -38 -64.5 -58t-83 -29t-98 -9.5t-109.5 -0.5q-41 -25 -77.5 -72.5t-69 -107t-60.5 -126l-53 -129l-46.5 -116.5t-40.5 -88q-22 -40 -49.5 -60
t-52.5 -22.5t-45.5 9.5t-29 35.5t-2 56t35.5 70.5q67 89 116.5 174l92.5 157.5t84 129t91 88.5q-78 -3 -156 -18t-151 -57q-56 -32 -83 -27t-30 29t16 56.5t56 54.5zM648 512q14 25 36.5 34t41.5 2t28.5 -29t-1.5 -58q-9 -29 -26 -54.5t-36.5 -51.5l-40.5 -53t-37 -59
q13 12 28.5 25l35.5 30q39 31 75.5 43.5t64.5 10t45 -19t17 -42.5t-17 -53.5t-35.5 -52.5l-32 -44.5t-7.5 -28.5q6 -10 19.5 -8t30.5 11.5t35 23.5t32 28q15 15 28 16.5t19.5 -5t5 -19.5t-16.5 -28l-37.5 -37t-48.5 -42.5t-54.5 -35.5t-55.5 -15q-16 0 -30.5 8.5t-24 23
t-13 34t2.5 42.5q7 28 25 55.5t35.5 51l29.5 40t7 24.5q-8 11 -31.5 1.5t-55 -34.5t-68 -62.5t-69.5 -82.5l-19.5 -46.5t-13.5 -27.5q-13 -20 -30 -25.5t-32 -0.5t-25 18.5t-10 33.5q0 19 14 49t34.5 66.5l43 76t40.5 78.5q24 53 47.5 100z" />
    <glyph glyph-name="V_h" unicode="Vh" horiz-adv-x="1224" 
d="M57 332q51 42 102.5 65t103.5 40.5l102.5 35.5t100.5 50q15 42 33.5 66t35.5 33t30.5 5.5t20 -15.5t3.5 -31t-19 -40q-15 -20 -32 -37t-36 -33q-14 -50 -27 -107.5l-26 -117.5q56 69 116 134.5l116.5 121.5l104.5 100.5l80 73.5q37 32 69 45t55.5 11t36.5 -16.5t12.5 -38
t-17 -53t-52.5 -60.5l-69 -60.5l-88.5 -78.5l-100.5 -92l-106.5 -101.5l-104.5 -106t-95 -106.5l-10 -56q-8 -40 -27 -67t-40.5 -39.5t-41.5 -10.5t-30 19.5t-6 51t31 83.5q19 35 41.5 71.5t48.5 72.5l29 141t35 139q-33 -21 -69.5 -41t-74.5 -43.5t-77.5 -51t-79.5 -63.5
q-24 -22 -47.5 -29.5t-42.5 -3.5t-30.5 17t-12 32t12 42.5t42.5 48.5zM968 512q14 25 36.5 34t41.5 2t28.5 -29t-1.5 -58q-9 -29 -26 -54.5t-36.5 -51.5l-40.5 -53t-37 -59q13 12 28.5 25l35.5 30q39 31 75.5 43.5t64.5 10t45 -19t17 -42.5t-17 -53.5t-35.5 -52.5l-32 -44.5
t-7.5 -28.5q6 -10 19.5 -8t30.5 11.5t35 23.5t32 28q15 15 28 16.5t19.5 -5t5 -19.5t-16.5 -28l-37.5 -37t-48.5 -42.5t-54.5 -35.5t-55.5 -15q-16 0 -30.5 8.5t-24 23t-13 34t2.5 42.5q7 28 25 55.5t35.5 51l29.5 40t7 24.5q-8 11 -31.5 1.5t-55 -34.5t-68 -62.5
t-69.5 -82.5l-19.5 -46.5t-13.5 -27.5q-13 -20 -30 -25.5t-32 -0.5t-25 18.5t-10 33.5q0 19 14 49t34.5 66.5l43 76t40.5 78.5q24 53 47.5 100z" />
    <glyph glyph-name="W_h" unicode="Wh" horiz-adv-x="1380" 
d="M54 321q55 40 110 68l112.5 55.5t117.5 60t125 81.5q8 14 15 29q19 43 45.5 63t43.5 18.5t17.5 -22.5t-32.5 -59l-30 -31t-37 -35l-85 -173q72 54 142.5 100.5l133.5 86.5q28 53 55 69t43 8t16.5 -34.5t-22.5 -58.5q-11 -15 -31 -35.5t-46 -44.5q-14 -51 -24.5 -107
t-19.5 -113q49 74 107.5 144t117.5 130.5t115.5 107.5t103.5 75q41 24 70.5 21.5t40.5 -21.5t-0.5 -47.5t-51.5 -55.5q-137 -91 -272 -234.5t-263 -334.5q-5 -29 -8.5 -54.5t-8.5 -46.5q-8 -39 -20 -59t-24 -25.5t-23.5 0.5t-19.5 20.5t-11 34t2 41.5q9 42 26 84.5t40 87.5
q8 66 21 142t30 146l-84.5 -72.5l-91 -77l-92 -79.5l-86.5 -79l-87 -176q-19 -37 -41.5 -52.5t-42.5 -14t-35 18.5t-20 44.5t3 63.5t34 76q42 63 99.5 123.5t123.5 117.5l55.5 97.5l51.5 89.5l-89 -70.5l-90.5 -69.5l-83.5 -64t-67 -54q-44 -37 -76 -37t-45.5 20.5
t-4.5 52.5t48 60zM1124 512q14 25 36.5 34t41.5 2t28.5 -29t-1.5 -58q-9 -29 -26 -54.5t-36.5 -51.5l-40.5 -53t-37 -59q13 12 28.5 25l35.5 30q39 31 75.5 43.5t64.5 10t45 -19t17 -42.5t-17 -53.5t-35.5 -52.5l-32 -44.5t-7.5 -28.5q6 -10 19.5 -8t30.5 11.5t35 23.5
t32 28q15 15 28 16.5t19.5 -5t5 -19.5t-16.5 -28l-37.5 -37t-48.5 -42.5t-54.5 -35.5t-55.5 -15q-16 0 -30.5 8.5t-24 23t-13 34t2.5 42.5q7 28 25 55.5t35.5 51l29.5 40t7 24.5q-8 11 -31.5 1.5t-55 -34.5t-68 -62.5t-69.5 -82.5l-19.5 -46.5t-13.5 -27.5
q-13 -20 -30 -25.5t-32 -0.5t-25 18.5t-10 33.5q0 19 14 49t34.5 66.5l43 76t40.5 78.5q24 53 47.5 100z" />
    <glyph glyph-name="b_t" unicode="bt" horiz-adv-x="639" 
d="M489 513q41 12 77 18q33 34 65 49.5t58 1.5q11 -6 16.5 -17.5t6.5 -25.5q19 -2 34 -5t28 -5q18 -3 28 -9t11 -12t-7 -10.5t-24 -4.5q-19 0 -38.5 -1.5t-39.5 -3.5q-11 -35 -33.5 -74t-52 -75t-64 -64.5t-68.5 -42.5q-11 -45 -11 -80t19 -50q15 -13 33.5 -10.5t38 14
t38.5 28t35 32.5q13 12 25 13t18.5 -6t6 -18.5t-12.5 -24.5q-37 -37 -71.5 -66.5t-66 -46t-59 -18t-50.5 17.5q-35 28 -39 84t13 122q-20 2 -39 7t-38 13q-2 -39 -18 -81.5t-43.5 -78.5t-65.5 -59.5t-85 -23.5q-30 0 -54.5 13.5t-39.5 38.5t-20 60t3 78q9 53 35 114.5
t62.5 122t80.5 114.5t88 91q55 47 102 56.5t70.5 -11.5t17.5 -70t-56 -118q-25 -34 -54.5 -68.5l-61.5 -68.5q32 -34 62 -52t71 -21q14 41 33 81t42 76q-39 -12 -55.5 -4.5t-15 23t18.5 33t46 25.5zM318 568q-23 -17 -50.5 -50.5t-54.5 -76t-50.5 -89.5t-38.5 -91l68.5 70
l68 73t58 69t38.5 58q17 35 5 47.5t-44 -10.5zM233 296l-73 -71l-56 -54q-1 -29 9 -47.5t35 -22.5q25 -5 47 18.5t35 57t15 68t-12 51.5zM593 466q-20 -25 -43 -68.5t-42 -93.5q24 16 46.5 40t40 48.5t28 47t10.5 36.5q-11 -2 -20.5 -4.5t-19.5 -5.5z" />
    <glyph glyph-name="t_b" unicode="tb" horiz-adv-x="639" 
d="M16 513q40 10 79 13.5t77 3.5q33 35 65.5 50.5t58.5 1.5q29 -16 21 -63h4q18 -3 28 -9t11 -12t-7 -10.5t-24 -4.5h-22q-13 -35 -37 -75t-54.5 -80.5t-65 -78t-67.5 -66.5q-3 -28 0.5 -49t17.5 -32q15 -13 33.5 -10.5t37.5 13.5t38 27.5t35 32.5q1 6 1.5 12t2.5 13
q9 53 35 114.5t62.5 122t80.5 114.5t88 91q55 47 102 56.5t70.5 -11.5t17.5 -70t-56 -118q-25 -34 -54.5 -68.5l-61.5 -68.5q20 -21 46 -33.5t53 -20t53.5 -11t47.5 -5.5q15 -1 20 -8.5t3 -17t-11.5 -17t-24.5 -8.5q-31 -2 -71.5 0t-76.5 15q-2 -39 -17.5 -82t-43 -79.5
t-66 -60.5t-85.5 -24q-42 0 -71.5 25.5t-39.5 70.5q-32 -30 -61.5 -52t-56.5 -33.5t-51 -11t-44 17.5q-32 26 -37.5 77t8 113t42 127t64.5 120l-78 -22q-44 -14 -63.5 -5.5t-19.5 25t17 35t47 26.5zM564 568q-23 -17 -50.5 -50.5t-54.5 -76t-50.5 -89.5t-38.5 -91l68.5 70
l68 73t58 69t38.5 58q17 35 5 47.5t-44 -10.5zM479 296l-73 -71l-56 -54q-1 -29 9 -47.5t35 -22.5q25 -5 47 18.5t35 57t15 68t-12 51.5zM205 473q-12 -13 -25 -34.5t-26.5 -48t-26 -57t-22.5 -60.5l47.5 60t42.5 59t31 50.5t12 35.5z" />
    <glyph glyph-name="d_t" unicode="dt" horiz-adv-x="745" 
d="M516 514q73 0 138 -3q38 44 75 65t66 6q19 -11 22 -33t-6 -52q17 -2 31 -5t25 -5q35 -8 36.5 -21t-30.5 -11l-77 4q-16 -34 -40 -71t-52.5 -74t-60 -70.5t-61.5 -60.5q-3 -28 0.5 -49t17.5 -32q15 -13 33.5 -10.5t38 14t38.5 28t35 32.5q13 12 25 13t18.5 -6t6 -18.5
t-12.5 -24.5q-37 -37 -71.5 -66.5t-66 -46t-59 -18t-50.5 17.5q-32 26 -38 78q-24 -20 -54.5 -41t-63.5 -35t-66 -16t-61 16q-22 15 -33 41q-69 -46 -122 -56t-85 23q-25 26 -26 64t15.5 79t46.5 79.5t68.5 64.5t81.5 35.5t84 -7.5q23 43 51.5 85t60 81t65.5 72.5t69 59.5
q42 31 74 36t49 -10.5t16 -49.5t-25 -79l-89 -8q7 25 -5.5 25.5t-35.5 -22.5q-33 -33 -62 -71t-53 -77.5t-42 -78t-29 -71.5q23 21 47 45.5l50 53.5q29 32 49 57.5t36 48.5l73 3q-68 -94 -136 -171.5t-131 -134.5q7 -22 29.5 -27t50.5 1t56.5 21.5t47.5 33.5q4 35 15 73.5
t26.5 76.5t35 75t41.5 70q-37 -1 -74 -2.5t-75 -4.5zM212 142q4 35 16 73.5t31 79.5q-21 5 -44 -4t-45 -26t-40.5 -39t-30 -44t-14 -41t7.5 -30q12 -14 43 -6t76 37zM313 438l-56.5 -9.5t-53.5 -10.5q-43 -9 -61.5 -1t-17.5 22t18.5 29.5t46.5 21.5q42 8 88 12.5t96 7.5z
M694 461q-11 -15 -23.5 -36t-24.5 -46t-22.5 -52t-19.5 -54q21 25 41 51.5l37.5 51.5t31 46.5t19.5 37.5q-10 0 -19.5 0.5t-19.5 0.5z" />
    <glyph glyph-name="f_t" unicode="ft" horiz-adv-x="537" 
d="M580 392q-35 -57 -82.5 -112.5t-94.5 -96.5q-3 -28 0.5 -49t17.5 -32q15 -13 33.5 -10.5t38 14t38.5 28t35 32.5q13 12 25 13t18.5 -6t6 -18.5t-12.5 -24.5q-37 -37 -71.5 -66.5t-66 -46t-59 -18t-50.5 17.5q-23 18 -32 49t-7 70q-24 -11 -55.5 -8.5t-64.5 22.5
q1 -45 -7.5 -93.5t-23.5 -93.5t-36 -83t-46.5 -64t-53.5 -35.5t-58 2.5q-24 10 -38 44.5t-11 91.5t28 134.5t81 173.5l12 21.5t13 21.5q-15 24 -19 45.5t2 34t22 13.5t41 -15q45 77 90 145.5t90 116.5q35 38 69 56t61.5 19.5t46 -12t23.5 -39.5t-7 -62t-45 -79
q-40 -53 -102.5 -116.5t-143.5 -138.5q0 -3 1 -4q37 -27 74 -34.5t65 -0.5q10 47 28.5 97t43.5 96.5t53.5 86.5t57.5 67t57 37.5t51 -1.5q27 -14 22.5 -51.5t-29.5 -87.5q26 -2 45 -4t31 -4q21 -3 32 -9t12 -12t-7.5 -10.5t-27.5 -4.5q-23 0 -52 -2t-62 -5zM22 -84
q9 -12 29.5 10t39.5 63t29.5 92.5t0.5 98.5l-28 -25q-20 -43 -36.5 -82.5t-26 -71t-12.5 -54t4 -31.5zM347 562q-17 -15 -39 -43t-46 -64t-49.5 -78.5l-50.5 -87.5h1l65 63.5t62 66t52 62t35 51.5q22 40 11 48t-41 -18zM467 378q-12 -24 -23 -51t-19 -54l44 56l41 55z
M554 489q-8 5 -20.5 -7t-28.5 -35h21.5t20.5 -1q8 17 10.5 28t-3.5 15z" />
    <glyph glyph-name="i_t" unicode="it" horiz-adv-x="488" 
d="M351 451q-21 -6 -30 4t-5.5 25.5t20 30.5t45.5 20q10 2 19.5 3l19.5 2q32 32 62.5 45.5t55.5 0.5q23 -13 23 -46l35.5 -3.5t26.5 -3.5q18 -3 28 -9t11 -12t-7 -10.5t-24 -4.5q-40 0 -80 -3q-12 -35 -36 -76t-55 -82.5t-66 -80t-69 -68.5q-3 -28 0.5 -49t17.5 -32
q15 -13 33.5 -10.5t38 14t38.5 28t35 32.5q13 12 25 13t18.5 -6t6 -18.5t-12.5 -24.5q-37 -37 -71.5 -66.5t-66 -46t-59 -18t-50.5 17.5q-17 13 -25.5 32.5t-12.5 44.5q-50 -45 -93 -69.5t-81 -24.5q-23 0 -42.5 10t-31 28.5t-13 45.5t11.5 61t31 62t37.5 50t38.5 39t34 29
q14 12 30.5 18.5t28.5 6.5t17.5 -8t-2.5 -26q-5 -12 -16.5 -30.5l-25 -39.5l-27 -43t-23 -41.5t-13 -34.5t3.5 -22q10 -11 27.5 -8t37 13.5t38.5 25.5t33 29q4 34 14.5 71t25 74.5t33 73.5t39.5 68q-1 -1 -2 -1zM292 483q0 -29 -20 -49t-49 -20t-49 20t-20 49t20 49t49 20
t49 -20t20 -49zM450 476q-12 -13 -25.5 -34.5t-27.5 -48.5t-27 -58t-23 -62q25 30 49.5 62.5t43.5 61t30 51t10 33.5q-8 -1 -15 -2t-15 -3z" />
    <glyph glyph-name="j_t" unicode="jt" horiz-adv-x="437" 
d="M299 450q-21 -6 -32 5t-10 27.5t14.5 32.5t42.5 21q31 4 62 6q30 29 58.5 40.5t52.5 -0.5q23 -13 23 -44q20 -2 36 -4.5t26 -4.5q18 -3 28 -9t11 -12t-7 -10.5t-24 -4.5q-17 0 -37 -1.5t-43 -3.5q-12 -35 -36.5 -75.5t-55.5 -82t-66 -79.5t-68 -68q-3 -28 0.5 -49
t17.5 -32q15 -13 33.5 -10.5t38 14t38.5 28t35 32.5q13 12 25 13t18.5 -6t6 -18.5t-12.5 -24.5q-37 -37 -71.5 -66.5t-66 -46t-59 -18t-50.5 17.5q-17 13 -25.5 32.5t-12.5 43.5q-49 -45 -94.5 -76t-91.5 -55q-38 -80 -79 -132t-80 -80.5t-74 -36t-60 0t-39 28.5t-11 49
q4 38 26 63.5t55.5 44t75 34.5t83.5 34l40 82.5l48.5 96.5t51 93t46.5 73q10 14 29 25t35 13.5t23.5 -6t-4.5 -32.5l-21.5 -42.5l-25 -51.5l-33.5 -71l-46 -100q56 37 89.5 65.5t57.5 52.5q4 34 14 71t25 74t33.5 73t39.5 68q-1 -1 -3 -1zM233 483q0 -29 -20.5 -49
t-49.5 -20t-49 20t-20 49t20 49t49 20t49.5 -20t20.5 -49zM395 472q-12 -14 -25 -35.5t-26.5 -47.5t-25.5 -56t-22 -60l47.5 60t42.5 59t31 51t12 35zM-237 -190q7 -6 18.5 -2t25.5 16.5t28.5 31t28.5 41.5q-59 -28 -87 -50.5t-14 -36.5z" />
    <glyph glyph-name="l_t" unicode="lt" horiz-adv-x="550" 
d="M608 475q-14 -35 -38.5 -74t-54.5 -78t-63 -75.5t-65 -64.5q-3 -28 0.5 -49t17.5 -32q15 -13 33.5 -10.5t38 14t38.5 28t35 32.5q13 12 25 13t18.5 -6t6 -18.5t-12.5 -24.5q-37 -37 -71.5 -66.5t-66 -46t-59 -18t-50.5 17.5q-17 13 -25.5 32.5t-12.5 44.5
q-46 -41 -85 -62.5t-71.5 -28t-59 1t-47.5 24.5q-31 26 -39.5 74.5t11.5 117.5q10 35 31.5 80.5t51 93t63.5 93.5t70.5 81.5t72 57.5t66.5 22q46 0 61 -40t-12 -107.5t-101.5 -158t-206.5 -190.5q5 -20 14 -30q17 -22 40.5 -25t49 5.5t49.5 26t43 35.5q6 48 23.5 101
t42.5 103.5t55 95t61 74.5t61 43t54 0q11 -6 16.5 -16.5t6.5 -24.5q57 0 99.5 -4t62.5 -8q18 -3 28 -9t11 -12t-7 -10.5t-24 -4.5q-35 0 -83 -5t-102 -13zM331 533q-8 6 -25.5 -5t-39.5 -34t-46.5 -56t-47 -70t-39.5 -75.5t-24 -73.5q42 36 87 85t79.5 96t51.5 84t4 49z
M493 452q-21 -32 -44 -80t-40 -99q21 25 41.5 52l38 52t30.5 47t19 38z" />
    <glyph glyph-name="t_l" unicode="tl" horiz-adv-x="550" 
d="M-4 513q52 14 98.5 20t88.5 7q30 29 59.5 41.5t53.5 0.5q25 -13 23 -50l22 -3q18 -3 28 -9t11 -12t-7 -10.5t-24 -4.5q-9 0 -19 -0.5t-20 -1.5q-12 -35 -36 -76t-55.5 -82.5t-66.5 -80.5t-69 -69q-3 -28 0.5 -49t17.5 -32q15 -13 33.5 -10.5t37.5 13.5t38 27.5t35 32.5
q3 26 12 56q10 35 31.5 80.5t51 93t63.5 93.5t70.5 81.5t72 57.5t66.5 22q46 0 61 -40t-12 -107.5t-101.5 -158t-206.5 -190.5q5 -20 14 -30q17 -22 41 -25t49 6t49.5 26.5t43.5 35.5q16 16 28.5 17.5t18.5 -6t4 -21t-15 -26.5q-54 -54 -99 -83.5t-82 -40t-67 -3.5t-53 26
q-29 25 -38 66q-32 -29 -61 -51t-56 -33.5t-50.5 -11t-43.5 17.5q-33 27 -38 79t9 114.5t43.5 128.5t66.5 121q-26 -6 -51.5 -13t-50.5 -15q-29 -9 -47 -8t-27 8t-9 18.5t8 23.5t22 22.5t34 16.5zM577 533q-8 6 -25.5 -5t-39.5 -34t-46.5 -56t-47 -70t-39.5 -75.5t-24 -73.5
q42 36 87 85t79.5 96t51.5 84t4 49zM211 479q-12 -11 -26 -32.5t-28 -49.5t-28 -60t-24 -64l50 64t44.5 62t30 51.5t7.5 32.5q-6 -1 -12.5 -1.5t-13.5 -2.5z" />
    <glyph glyph-name="t_t" unicode="tt" horiz-adv-x="492" 
d="M32 509q35 8 70 13t70 9q31 31 61 44t55 0q20 -11 23 -36h43.5t41.5 -1q21 26 41.5 46t40 32t37.5 15.5t33 -4.5q20 -11 24.5 -36.5t-6.5 -63.5l34 -3q27 -3 42 -9t16.5 -12t-10 -11t-36.5 -6l-62 -2q-28 -64 -89 -147t-155 -179q-2 -25 1 -43t14 -27q15 -13 38 -8
t47 18.5t47 32.5t39 35q13 12 25 13t18.5 -6t6 -18.5t-12.5 -24.5q-60 -60 -104 -93.5t-76.5 -47.5t-56.5 -10.5t-43 18.5q-15 12 -23 30.5t-11 42.5q-54 -45 -99 -63t-80 10q-31 25 -37.5 73t4.5 105.5t36 119.5t58 116q-9 -2 -17.5 -3.5t-16.5 -3.5q-65 -16 -94.5 -8
t-30 25t24.5 37.5t69 30.5zM216 141q5 37 17 79t29.5 85t39 84.5t45.5 79.5l-25.5 -2t-26.5 -3q-14 -34 -37.5 -72t-52 -75.5t-60.5 -72.5t-63 -62q-2 -27 1.5 -48t17.5 -32q12 -10 25.5 -10t28.5 6.5t30.5 18t30.5 24.5zM432 477q-27 -46 -55 -106t-48 -117l41.5 55.5
l41.5 59.5l38 58.5t31 52.5zM184 448q-21 -30 -43.5 -78t-38.5 -99l40 51t37 50.5t29.5 46t18.5 36.5q-11 -2 -21.5 -3.5t-21.5 -3.5zM501 553q-10 5 -29 -18q8 -1 15.5 -1.5t15.5 -0.5q5 15 -2 20z" />
    <glyph glyph-name="f_p" unicode="fp" horiz-adv-x="741" 
d="M741 166q8 8 18.5 7.5t18 -6.5t8.5 -16.5t-9 -20.5q-70 -70 -141.5 -103.5t-155.5 -18.5q-53 -17 -92 4q-17 -51 -35.5 -96t-39 -78t-42 -50t-44.5 -12q-19 4 -26.5 25t-4.5 53t16 72.5t35 85.5t52 91t67 88l7.5 27t6.5 27q-26 -12 -62.5 -14.5t-74.5 8.5
q3 -46 -7 -101.5t-29.5 -110.5t-47 -105t-58.5 -85t-64.5 -51t-64.5 -3q-24 10 -38 44.5t-11 91.5t28 134.5t81 173.5l51 88q-17 25 -9.5 43.5t43.5 14.5q42 69 83.5 130.5t82.5 106.5q35 38 69 56t61.5 19.5t46 -12t23.5 -39.5t-7 -62t-45 -79q-32 -42 -78.5 -91
l-105.5 -106q51 -14 91.5 -3.5t62.5 30.5q9 13 23 21t26 7t19 -11.5t1 -33.5q-1 -2 -1 -5q51 36 90 44.5t65 -2.5t38 -39t9 -65q-4 -46 -27.5 -88.5t-57.5 -75.5q79 15 155 91zM93 155q-20 -43 -36.5 -82.5t-26 -71t-12.5 -54t4 -31.5q6 -8 19.5 2.5t30.5 33t35 55
t32.5 69.5t23 75t6.5 73zM558 252q-8 9 -20 9t-27 -6.5t-32 -19t-35 -28.5l-17 -66t-20 -68q28 -2 60 19.5t57 51.5t36.5 61t-2.5 47zM194 346q10 -7 15 -13l53 54.5t48 53.5t39.5 49.5t27.5 41.5q22 40 11 48t-41 -18q-29 -26 -69.5 -84.5t-83.5 -131.5z" />
    <glyph glyph-name="f_r" unicode="fr" horiz-adv-x="633" 
d="M431 493q-32 -42 -78.5 -91.5t-106.5 -106.5q45 -14 82 -7.5t60 29.5q-10 18 -9.5 42t12.5 49q11 23 31 29.5t35.5 -3t19.5 -36t-16 -69.5q16 -6 32 -9.5t32 -5.5q17 -3 26 -11t10.5 -20t-3 -26t-13.5 -28q-11 -17 -20.5 -36.5t-14.5 -37.5t-5 -32t8 -20q15 -11 45 3.5
t75 59.5q12 12 22.5 11.5t17 -7.5t6.5 -18.5t-10 -21.5q-56 -56 -96.5 -84t-69 -37t-47 -3t-30.5 18q-24 26 -22.5 73.5t35.5 109.5q11 18 16 33t1 25q-3 6 -9 10t-17 9q-2 -4 -3.5 -8t-4.5 -8q-14 -19 -34 -29t-43.5 -12.5t-49.5 1t-52 11.5q3 -46 -7 -101.5t-29.5 -110.5
t-47 -105t-58.5 -85t-64.5 -51t-64.5 -3q-24 10 -38 44.5t-11 91.5t28 134.5t81 173.5l51 88q-17 25 -9.5 43.5t43.5 14.5q42 69 83.5 130.5t82.5 106.5q35 38 69 56t61.5 19.5t46 -12t23.5 -39.5t-7 -62t-45 -79zM93 155q-20 -43 -36.5 -82.5t-26 -71t-12.5 -54t4 -31.5
q6 -8 19.5 2.5t30.5 33t35 55t32.5 69.5t23 75t6.5 73zM194 346q10 -7 15 -13l53 54.5t48 53.5t39.5 49.5t27.5 41.5q22 40 11 48t-41 -18q-29 -26 -69.5 -84.5t-83.5 -131.5z" />
    <glyph glyph-name="f_s" unicode="fs" horiz-adv-x="680" 
d="M443 95q13 12 18 29.5t5 37.5t-3.5 42.5t-7.5 45.5q-22 -10 -51 -15t-60 -6t-60.5 2.5t-52.5 11.5q5 -48 -2.5 -104.5t-25.5 -112.5t-44 -106t-56.5 -85t-64 -50.5t-66.5 -1.5q-24 10 -38 44.5t-11 91.5t28 134.5t81 173.5l54 93q-8 15 -9 28.5t4 23t16 13.5t28 0
q40 66 79.5 124.5t78.5 100.5q35 38 69 56t61.5 19.5t46 -12t23.5 -39.5t-7 -62t-45 -79q-32 -42 -78 -90.5t-105 -104.5q28 -5 56.5 -6t55 2t49.5 10t39 18q2 23 10.5 41.5t31.5 28.5q22 10 39 2.5t23 -25t-2 -41t-37 -45.5q3 -19 10 -43.5t12.5 -51.5t7 -55t-6.5 -55
q72 16 144 88q8 8 18.5 7.5t18 -6.5t8.5 -16.5t-9 -20.5q-57 -57 -113.5 -89.5t-119.5 -36.5q-26 -17 -58.5 -20t-62.5 7t-53 32t-29 55q-4 21 2.5 37t18.5 26.5t27.5 14.5t29 2t23 -11.5t9.5 -25.5q1 -26 18.5 -33t34.5 7zM93 155q-20 -43 -36.5 -82.5t-26 -71t-12.5 -54
t4 -31.5q6 -8 19.5 2.5t30.5 33t35 55t32.5 69.5t23 75t6.5 73zM192 342q7 -7 11 -15q28 27 54.5 55.5l49.5 55.5t41 51t29 43q22 40 11 48t-41 -18q-15 -13 -32.5 -35t-37.5 -51l-41.5 -63z" />
    <glyph glyph-name="us_2" unicode="__" horiz-adv-x="70" 
d="M892 -114q145 24 292 37.5t289.5 18t276.5 1t254 -12.5t222.5 -22.5t180.5 -28.5q33 -6 45.5 -19t9.5 -25t-19.5 -19.5t-41.5 -3.5q-145 23 -323.5 30.5t-374 -2t-399 -37t-398.5 -75.5q-65 -16 -109 -13.5t-67 16.5t-24.5 36t19 45t62 43t105.5 31z" />
    <glyph glyph-name="us_3" unicode="___" horiz-adv-x="70" 
d="M862 -133q145 24 315.5 40.5t352 25t365.5 8t357 -9.5t326.5 -26.5t273.5 -44.5q33 -7 45.5 -21t9.5 -26t-19.5 -19t-41.5 -1q-123 31 -281 45.5t-333.5 16t-360.5 -9.5t-363 -30.5t-340 -46.5t-292 -59q-62 -15 -103.5 -12t-63.5 17t-23.5 36t17.5 44.5t58.5 42.5
t100.5 30z" />
    <glyph glyph-name="us_4" unicode="____" horiz-adv-x="70" 
d="M862 -133q245 37 501.5 58t508 29t491 4.5t449.5 -16.5t383.5 -34t293.5 -48q33 -7 44.5 -23t8 -31t-20.5 -24.5t-42 -2.5q-126 33 -299.5 55.5t-382 32t-443 5.5t-482 -23t-500.5 -53.5t-496 -86.5q-62 -13 -104 -9t-64 18.5t-23.5 36t17.5 43.5t59 41t101 28z" />
    <glyph glyph-name="us_5" unicode="_____" horiz-adv-x="70" 
d="M822 -133q358 38 709 58t678.5 26t623.5 -0.5t544 -22t440 -38.5t312 -50q33 -7 45 -22.5t8 -30t-21 -24t-42 -4.5q-151 30 -328 52.5t-372.5 38t-406 23t-429.5 6t-443 -12t-446 -31.5t-438 -52t-420 -74q-62 -13 -104.5 -8t-64 20t-23 37.5t17.5 44.5t59 39.5t101 24.5
z" />
    <glyph glyph-name=".notdef" horiz-adv-x="305" 
 />
    <glyph glyph-name="NULL" horiz-adv-x="0" 
 />
    <glyph glyph-name="NULL" horiz-adv-x="0" 
 />
    <glyph glyph-name="nonmarkingreturn" unicode="&#xd;" horiz-adv-x="305" 
 />
    <glyph glyph-name="space" unicode=" " horiz-adv-x="305" 
 />
    <glyph glyph-name="S" unicode="S" horiz-adv-x="584" 
d="M65 382q39 25 79 42t79.5 28t78 18.5l74.5 14.5q5 29 15.5 57.5t29.5 57.5q36 58 78 86.5t80.5 35t69.5 -5.5t46 -37.5t9 -60t-41 -71.5q-39 -42 -93 -64t-117 -41q8 -53 26.5 -113t30.5 -122.5t9 -125.5t-36 -123q-31 -57 -80 -85.5t-102.5 -33t-105.5 12.5t-90 51
t-55.5 82t-1.5 107q12 47 34 76.5t47 45.5t50 21t43 3t25.5 -8.5t-0.5 -13.5q-39 -32 -51.5 -66t-6.5 -63t26.5 -50t47 -27.5t55 4t51.5 44.5q24 35 27.5 76.5t-2 87t-14.5 94.5t-9 100q-59 -20 -118.5 -49.5t-118.5 -81.5q-34 -30 -60 -39t-42.5 -4.5t-24 20.5t-4 37
t18.5 43t43 40zM471 579q-12 -18 -17 -38t-6 -42q33 8 62.5 18.5t54.5 27.5t33 35t4.5 31.5t-17.5 21.5t-32.5 6t-40 -16t-41.5 -44z" />
    <glyph glyph-name="p" unicode="p" horiz-adv-x="395" 
d="M395 166q8 8 18.5 7.5t18 -6.5t8.5 -16.5t-9 -20.5q-70 -70 -141.5 -103.5t-155.5 -18.5q-30 -10 -57 -7t-47 20q-21 -52 -44.5 -98.5t-48 -80.5t-49 -52t-48.5 -13q-19 4 -23.5 24.5t2.5 52.5t25 73t44.5 85.5t60 90.5t72.5 89q8 30 14 58.5t13 55.5q4 18 19 30.5
t30 14.5t24.5 -8t2.5 -37q-1 -2 -1 -5q51 36 90 44.5t65 -2.5t38 -39t9 -65q-4 -46 -27.5 -88.5t-57.5 -75.5q79 15 155 91zM212 252q-16 18 -48.5 2t-68.5 -50l-21 -64.5l-23 -65.5q18 -5 40 3t43 24t39.5 37t30.5 42.5t15 40.5t-7 31z" />
    <glyph glyph-name="question" unicode="?" horiz-adv-x="368" 
d="M127 80q0 -26 -18.5 -44t-44.5 -18t-44 18t-18 44t18 44t44 18t44.5 -18t18.5 -44zM154 457q16 -22 11 -42t-19.5 -31.5t-34.5 -9.5t-34 25q-17 27 -15.5 56t16 55.5t40 47.5t55.5 31.5t63 7.5t63 -24q34 -24 49.5 -50t17 -52t-8.5 -50.5t-27 -45.5q-20 -25 -46.5 -45
t-52 -37t-47.5 -33.5t-32 -34.5q-12 -20 -23 -26t-18 -2t-8.5 16t6.5 28q15 30 29.5 52.5t29.5 40.5t29.5 33l28.5 30q14 14 23.5 30.5t12.5 33t-1 31.5t-18 26q-18 15 -39 14t-36.5 -11.5t-21 -28t7.5 -35.5z" />
    <glyph glyph-name="breve" unicode="&#x2d8;" horiz-adv-x="259" 
d="M170 509q4 9 18.5 15.5t30.5 7t27.5 -4.5t9.5 -18q-4 -23 -17 -45t-32.5 -39.5t-43.5 -28t-49 -10.5q-39 0 -63 11t-36 28t-12.5 39t7.5 45q5 14 21 21t32 6.5t27 -7.5t5 -20q-4 -10 -6.5 -20.5t-1 -19.5t7 -14.5t16.5 -5.5t20 5.5t16.5 14.5t13 19.5t9.5 20.5z" />
    <glyph glyph-name="at" unicode="@" horiz-adv-x="809" 
d="M506 556q65 0 111 -21.5t75 -57.5t42 -82.5t11.5 -96t-16 -98t-39.5 -89.5q-38 -60 -79.5 -87.5t-78.5 -29.5t-64 17t-35 51q-31 -23 -62 -38.5t-59.5 -21.5t-53 0t-42.5 27q-30 35 -26.5 79.5t29 87.5t67 80t88 58t91.5 21t78 -31q18 9 33 7.5t24 -11t10 -25.5t-9 -37
q-14 -31 -35.5 -61t-47.5 -59q-3 -21 5.5 -38.5t26 -22t42 9.5t51.5 55q19 28 31 64t14.5 74t-6 74.5t-31 65.5t-60.5 46.5t-95 17.5q-63 0 -124.5 -24t-114 -66t-92.5 -98.5t-59 -120.5q-20 -64 -14 -118.5t33 -94t73.5 -62t109.5 -22.5q25 0 48 3.5t49 14.5
q24 10 41.5 7.5t24 -11.5t1.5 -23t-25.5 -26.5t-57 -21.5t-92.5 -9q-74 0 -135.5 30.5t-101 82t-53 119.5t9.5 143t70 142.5t111.5 117.5t143 79.5t164.5 29.5zM312 114q6 -10 18 -12t28.5 2.5t36 14.5t39.5 24q5 23 14.5 49t23.5 53q15 29 31 46q-17 7 -41 0.5t-48 -21
t-46.5 -35t-38 -42.5t-21 -43t3.5 -36z" />
    <glyph glyph-name="b" unicode="b" horiz-adv-x="393" 
d="M403 489q-25 -34 -54.5 -68.5l-61.5 -68.5q20 -21 46 -33.5t53 -20t53.5 -11t47.5 -5.5q15 -1 20 -8.5t3 -17t-11.5 -17t-24.5 -8.5q-31 -2 -71.5 0t-76.5 15q-2 -39 -17.5 -82t-43 -79.5t-66 -60.5t-85.5 -24q-30 0 -54.5 13.5t-39.5 38.5t-20 60t3 78q9 53 35 114.5
t62.5 122t80.5 114.5t88 91q55 47 102 56.5t70.5 -11.5t17.5 -70t-56 -118zM318 568q-23 -17 -50.5 -50.5t-54.5 -76t-50.5 -89.5t-38.5 -91l68.5 70l68 73t58 69t38.5 58q17 35 5 47.5t-44 -10.5zM233 296l-73 -71l-56 -54q-1 -29 9 -47.5t35 -22.5q25 -5 47 18.5t35 57
t15 68t-12 51.5z" />
    <glyph glyph-name="c" unicode="c" horiz-adv-x="360" 
d="M396 130q-21 -22 -50 -45t-64 -42t-74.5 -31.5t-82.5 -12.5q-52 0 -81.5 27t-37.5 67.5t4 88t42 88t78 67.5t111 27q32 0 52.5 -10t31 -25t12 -33t-5 -33t-20.5 -25t-34 -10q-17 0 -27.5 8t-14 19.5t0 23t15.5 19.5q-33 0 -62.5 -21.5t-48 -51t-22 -60t15.5 -49.5
q17 -17 44.5 -21t59.5 3t64 24.5t58 43.5q13 13 25 14t19 -5.5t6 -19t-14 -25.5z" />
    <glyph glyph-name="d" unicode="d" horiz-adv-x="499" 
d="M12 27q-25 26 -26 64t15.5 79t46.5 79.5t68.5 64.5t81.5 35.5t84 -7.5q23 43 51.5 85t60 81t65.5 72.5t69 59.5q46 34 80 36t48.5 -20.5t7 -64.5t-44.5 -96q-77 -112 -155 -203t-150 -157q7 -22 30 -27t51.5 2t57 22.5t46.5 33.5q14 14 27 16t20 -5t5.5 -19.5
t-16.5 -27.5l-29.5 -27t-42 -34.5t-51 -33t-55.5 -24.5t-55 -8.5t-50 16.5q-22 15 -33 41q-69 -45 -122.5 -55.5t-84.5 22.5zM212 142q4 35 16 73.5t31 79.5q-21 5 -44 -4t-45 -26t-40.5 -39t-30 -44t-14 -41t7.5 -30q12 -14 43 -6t76 37zM512 532q-33 -33 -62 -71
t-53 -77.5t-42 -78t-29 -71.5q23 21 47 45.5l50 53.5q61 67 91.5 115.5t38 75t-4.5 29.5t-36 -21z" />
    <glyph glyph-name="e" unicode="e" horiz-adv-x="347" 
d="M116 332q43 23 78.5 25t60.5 -10t38 -35t11.5 -50.5t-20 -56t-55.5 -51.5q-25 -15 -55.5 -24t-65.5 -8q16 -24 45 -31t62.5 0t68 26.5t63.5 48.5q13 13 26 14.5t20 -5t5.5 -19t-15.5 -26.5t-38.5 -36.5t-56 -43.5t-69 -36t-78.5 -15q-50 0 -81.5 19t-47 49.5t-15.5 68
t14 74.5t40.5 69.5t64.5 52.5zM157 267q-23 -14 -41 -37.5t-22 -52.5q31 -4 58 4t46 24q21 18 26 35t-2 27.5t-24 12t-41 -12.5z" />
    <glyph glyph-name="f" unicode="f" horiz-adv-x="291" 
d="M431 493q-40 -53 -102.5 -116.5t-143.5 -138.5q0 -3 1 -4q44 -32 86.5 -37t69.5 8q8 4 12.5 -2.5t3.5 -17t-9.5 -23.5t-26.5 -23q-25 -13 -57.5 -11.5t-67.5 22.5q1 -45 -7.5 -93.5t-23.5 -93.5t-36 -83t-46.5 -64t-53.5 -35.5t-58 2.5q-24 10 -38 44.5t-11 91.5
t28 134.5t81 173.5l12 21.5t13 21.5q-15 24 -19 45.5t2 34t22 13.5t41 -15q45 77 90 145.5t90 116.5q35 38 69 56t61.5 19.5t46 -12t23.5 -39.5t-7 -62t-45 -79zM22 -84q9 -12 29.5 10t39.5 63t29.5 92.5t0.5 98.5l-28 -25q-20 -43 -36.5 -82.5t-26 -71t-12.5 -54t4 -31.5z
M347 562q-17 -15 -39 -43t-46 -64t-49.5 -78.5l-50.5 -87.5h1l65 63.5t62 66t52 62t35 51.5q22 40 11 48t-41 -18z" />
    <glyph glyph-name="g" unicode="g" horiz-adv-x="395" 
d="M242 352q35 2 56 -7t30 -23q11 3 23 2.5t19.5 -5.5t9 -15.5t-7.5 -26.5q-27 -49 -53.5 -106l-54.5 -115q45 30 79.5 61.5t51.5 48.5q14 14 27 16t20.5 -4.5t6 -19t-17.5 -28.5q-12 -12 -31.5 -29.5t-45.5 -37.5t-57.5 -41t-67.5 -39q-27 -56 -56.5 -106t-62.5 -87.5
t-69.5 -60t-77.5 -22.5q-30 0 -52 16.5t-30 42t-0.5 58t37 64t82 59.5t134.5 46l12 3q9 17 17.5 35t15.5 38q-46 -36 -89 -45t-72 14q-22 17 -27.5 46.5t3.5 64t31 69.5t54.5 64.5t73.5 48.5t89 21zM102 112q11 -17 40.5 -6.5t61.5 38.5q12 37 22.5 61.5t19.5 40.5t17 25.5
t16 17.5q-44 -8 -81 -30.5t-61.5 -50t-34.5 -54t0 -42.5zM-21 -185q22 0 58.5 33t73.5 88q-55 -15 -88 -35.5t-47.5 -39.5t-12.5 -32.5t16 -13.5z" />
    <glyph glyph-name="h" unicode="h" horiz-adv-x="434" 
d="M380 499q-38 -54 -95.5 -112.5t-125.5 -118.5q-2 -5 -4 -9l-4 -8q11 11 25 22l31 25q39 31 75.5 43.5t64.5 10t45 -19t17 -42.5t-17 -53.5t-35.5 -52.5l-32 -44.5t-7.5 -28.5q6 -10 19.5 -8t30.5 11.5t35 23.5t32 28q15 15 28 16.5t19.5 -5t5 -19.5t-16.5 -28l-37.5 -37
t-48.5 -42.5t-54.5 -35.5t-55.5 -15q-16 0 -30.5 8.5t-24 23t-13 34t2.5 42.5q7 28 25 55.5t35.5 51l29.5 40t7 24.5q-8 11 -30 2.5t-52 -31.5t-64.5 -58.5t-67.5 -77.5q-14 -32 -25.5 -54.5t-17.5 -32.5q-13 -20 -30 -25.5t-32 -0.5t-25 18.5t-10 33.5q0 19 14 49
t34.5 66.5l43 76t40.5 78.5q45 97 86.5 175t82.5 129q48 60 92 73.5t68 -8.5t19.5 -73t-52.5 -120zM308 562q-22 -29 -48.5 -80t-54.5 -111q43 45 80.5 89.5t56.5 76.5q17 31 21 48.5t-2 21t-20 -7.5t-33 -37z" />
    <glyph glyph-name="i" unicode="i" horiz-adv-x="242" 
d="M132 325q14 12 30.5 18.5t28.5 6.5t17.5 -8t-2.5 -26q-5 -12 -16.5 -30.5l-25 -39.5l-27 -43t-23 -41.5t-13 -34.5t3.5 -22q10 -11 27.5 -8t37 13.5t39 26t33.5 29.5t25.5 14.5t17.5 -7t5 -20t-12 -23.5q-62 -61 -114.5 -95.5t-97.5 -34.5q-23 0 -42.5 10t-31 28.5
t-13 45.5t11.5 61t31 62t37.5 50t38.5 39t34 29zM332 483q0 -29 -20 -49t-49 -20t-49 20t-20 49t20 49t49 20t49 -20t20 -49z" />
    <glyph glyph-name="j" unicode="j" horiz-adv-x="191" 
d="M86 312q10 14 29 25t35 13.5t23.5 -6t-4.5 -32.5l-21.5 -42.5l-25 -51.5l-33.5 -71l-46 -100q56 37 89.5 65.5t58.5 53.5q16 16 29.5 18.5t20.5 -4.5t4.5 -20.5t-18.5 -29.5q-60 -60 -114.5 -99.5t-109.5 -68.5q-38 -80 -79 -132t-80 -80.5t-74 -36t-60 0t-39 28.5
t-11 49q4 38 26 63.5t55.5 44t75 34.5t83.5 34l40 82.5l48.5 96.5t51 93t46.5 73zM283 483q0 -29 -20.5 -49t-49.5 -20t-49 20t-20 49t20 49t49 20t49.5 -20t20.5 -49zM-237 -190q7 -6 18.5 -2t25.5 16.5t28.5 31t28.5 41.5q-59 -28 -87 -50.5t-14 -36.5z" />
    <glyph glyph-name="k" unicode="k" horiz-adv-x="437" 
d="M406 516q-25 -35 -60 -73t-77 -79q52 28 89 19.5t51 -37t1 -69t-61 -76.5q-25 -18 -53 -30t-55 -14q3 -34 15.5 -50.5t29.5 -19.5t38 4t42 19.5t39.5 27.5t31.5 28q14 14 26.5 15.5t19.5 -5.5t5.5 -19.5t-15.5 -26.5l-38.5 -38t-54.5 -47.5t-64 -40.5t-67 -17
q-30 0 -53 15t-36 42.5t-15 65.5t10 83q-22 -26 -43.5 -55t-41.5 -60q-5 -11 -8.5 -22.5t-6.5 -22.5q-7 -23 -22 -30t-30.5 -2.5t-27 18.5t-11.5 34q0 19 10 48.5t25.5 64.5t35 73.5l39.5 76.5q49 97 101 176t102 128q44 43 83 51.5t61.5 -9.5t21.5 -56.5t-37 -89.5z
M321 557q-26 -24 -61 -79.5t-73 -128.5l47.5 50.5l44.5 49.5l38.5 45.5t29.5 38.5q12 18 17.5 31t2.5 18t-14 -0.5t-32 -24.5zM249 280q-17 -11 -35 -26.5t-37 -35.5q29 -13 63.5 -5.5t58.5 24.5q21 15 24.5 29t-4.5 22.5t-27 7.5t-43 -16z" />
    <glyph glyph-name="l" unicode="l" horiz-adv-x="304" 
d="M366 649q46 0 61 -40t-12 -107.5t-101.5 -158t-206.5 -190.5q5 -20 14 -30q17 -22 41 -25t49 6t49.5 26.5t43.5 35.5q16 16 28.5 17.5t18.5 -6t4 -21t-15 -26.5q-54 -54 -99 -83.5t-82 -40t-67 -3.5t-53 26q-31 26 -39.5 74.5t11.5 117.5q10 35 31.5 80.5t51 93
t63.5 93.5t70.5 81.5t72 57.5t66.5 22zM331 533q-8 6 -25.5 -5t-39.5 -34t-46.5 -56t-47 -70t-39.5 -75.5t-24 -73.5q42 36 87 85t79.5 96t51.5 84t4 49z" />
    <glyph glyph-name="m" unicode="m" horiz-adv-x="554" 
d="M84 321q3 12 12.5 18t21 6t22 -6t15.5 -18q1 -3 1 -10q29 19 56 30t49 11q21 0 35 -12.5t20 -35.5q45 33 88.5 46.5t75.5 -9.5q23 -17 27 -38.5t-2 -44.5t-18.5 -45.5l-23.5 -42.5t-16.5 -35.5t2.5 -23.5q7 -7 19.5 -4t27.5 12t30.5 22t27.5 25t24.5 13t19 -6t6 -18.5
t-13.5 -24.5q-52 -52 -90.5 -81t-67 -39.5t-48.5 -6t-35 19.5q-21 21 -22.5 46.5t8.5 51.5t26 51.5l30 47.5t21 39t-2 26q-11 10 -36 -3.5t-54 -41.5q-4 -40 -20 -86t-43 -91q-30 -50 -57.5 -62t-45 0.5t-21.5 43t12 65.5q14 29 46 71t73 80q-3 24 -24 23q-13 -2 -41.5 -20
t-66.5 -58q-8 -23 -17.5 -47.5t-20.5 -47.5l-22 -44t-22 -37q-21 -30 -44 -33.5t-38.5 12t-18 45t17.5 65.5q17 30 45.5 64t63.5 66q2 20 3 37.5t5 34.5z" />
    <glyph glyph-name="n" unicode="n" horiz-adv-x="386" 
d="M64 321q0 12 9.5 17t22 2t24 -14t15.5 -30q25 18 50.5 31t48.5 20t43 5.5t34 -13.5q19 -17 21.5 -38t-4.5 -43.5t-20 -45l-24 -42.5t-16.5 -35t1.5 -23q11 -12 25 -10.5t29 10.5t31.5 23.5t31.5 30.5q13 13 26.5 15t20.5 -4t5.5 -19t-16.5 -28q-36 -36 -70.5 -65.5
t-66 -45.5t-59.5 -16t-50 22q-21 21 -21.5 47t10 53.5t28.5 54l33.5 49t24.5 38.5t3 22q-7 6 -20 2.5t-29.5 -14t-35.5 -26.5t-38 -34q-8 -42 -23 -83t-34.5 -71.5t-42.5 -46.5t-46 -10q-20 5 -25.5 26.5t1.5 51.5t26.5 64.5t50.5 65.5q5 6 11.5 11.5t12.5 11.5q2 20 2 40
v44z" />
    <glyph glyph-name="o" unicode="o" horiz-adv-x="405" 
d="M30 22q-35 33 -38 77t15 87.5t51.5 82t72.5 62.5t78 28t68 -22q8 8 21 8.5t33 -11.5l29.5 -17.5t32.5 -15.5t40.5 -11.5t53.5 -7.5q15 -1 20.5 -9t3 -17t-12 -16.5t-24.5 -8.5q-30 -2 -54.5 0t-43.5 6t-32.5 9.5t-22.5 9.5q-2 -38 -17 -77t-39 -73t-54 -60.5t-61.5 -40
t-62.5 -11t-57 27.5zM112 106q14 -17 38 -6t48.5 38.5t44 65.5t23.5 74q-19 20 -40 18.5t-41.5 -16.5t-38 -39.5t-28.5 -50.5t-13.5 -49t7.5 -35z" />
    <glyph glyph-name="q" unicode="q" horiz-adv-x="410" 
d="M-13 -78q24 8 52 14t58 10l24 38.5l21 32.5l20 30q-42 -35 -84.5 -42t-69.5 21q-17 17 -23 40.5t-1.5 50t18.5 54.5t38 55q23 26 52 49t61 40t65.5 27t65.5 10q25 0 32.5 -10t4.5 -27q9 4 17.5 2t14.5 -8.5t7.5 -17t-2.5 -23.5q-4 -11 -17.5 -39l-33 -67l-43 -85
l-46.5 -92q26 19 52 42.5t50 47.5l47 47.5l43 43.5q12 12 23 11.5t17 -8t6 -18.5t-10 -21l-93.5 -93t-98.5 -84q28 0 52 -1t43 -3q25 -2 43 -8.5t23 -14t-6 -14t-43 -8.5q-43 -2 -93.5 -7t-104.5 -15l-26.5 -61.5t-16.5 -44.5q-10 -36 -31.5 -47t-41 -3.5t-30 30.5t2.5 55
l8.5 20.5t10.5 21.5l-35 -12q-33 -11 -50.5 -3.5t-19.5 23.5t10 34t38 27zM303 298q-47 -4 -90.5 -29.5t-73.5 -58.5t-42.5 -65t1.5 -49q9 -12 25.5 -7t36 20t40.5 37t40 46.5t33.5 47.5t20.5 40z" />
    <glyph glyph-name="r" unicode="r" horiz-adv-x="332" 
d="M0 166q32 32 53.5 68.5t35.5 68.5q-19 17 -21.5 45.5t12.5 59.5q11 23 31 29.5t35.5 -3t19.5 -36t-16 -69.5q16 -6 32 -9.5t32 -5.5q17 -3 26 -11t10.5 -20t-3 -26t-13.5 -28q-11 -17 -20 -36t-14 -37t-5 -32t7 -21q17 -17 51 0.5t79 62.5q12 12 22.5 11.5t17 -7.5
t6.5 -18.5t-10 -21.5q-11 -11 -28.5 -32.5t-41.5 -43t-55 -38t-68 -16.5q-31 0 -51.5 15.5t-27.5 43.5t0 65.5t32 82.5q11 18 16 33t1 25q-4 8 -16 14q-8 -19 -19 -40t-23.5 -41.5t-25.5 -38t-25 -29.5q-9 -9 -19.5 -8t-17 7.5t-7.5 17t8 19.5z" />
    <glyph glyph-name="s" unicode="s" horiz-adv-x="389" 
d="M280 388q31 0 44.5 -16t10.5 -33t-21 -27t-48 3q-11 -15 -9.5 -40.5t4.5 -57.5t3 -67.5t-14 -70.5q70 18 139 87q8 8 18.5 7.5t18 -6.5t8.5 -16.5t-9 -20.5q-57 -57 -113.5 -89.5t-119.5 -36.5q-26 -17 -58.5 -20t-62.5 7t-53 32t-29 55q-3 16 0 28.5t11 22.5
q-7 7 -8 17.5t8 19.5l72.5 74.5l54.5 57t43.5 42t40.5 29.5q17 11 33 15t36 4zM199 299q-22 -14 -53 -50.5t-82 -90.5q14 -2 24 -11t11 -26q0 -13 5.5 -21.5t13.5 -12.5t17 -2t17 10q18 17 24 41.5t8 51.5l4 56t11 55z" />
    <glyph glyph-name="t" unicode="t" horiz-adv-x="246" 
d="M-4 513q48 13 95 19t91 8q31 29 60.5 42t53.5 0q23 -13 23 -45l62 -8q18 -3 28 -9t11 -12t-7 -10.5t-24 -4.5q-17 0 -37 -1.5t-43 -3.5q-12 -35 -36.5 -75.5t-55.5 -82t-66 -79.5t-68 -68q-3 -28 0.5 -49t17.5 -32q15 -13 33.5 -10.5t38 14t38.5 28t35 32.5q13 12 25 13
t18.5 -6t6 -18.5t-12.5 -24.5q-37 -37 -71.5 -66.5t-66 -46t-59 -18t-50.5 17.5q-33 27 -38 78.5t9 114t43.5 128t65.5 120.5q-55 -12 -101 -26q-29 -9 -47 -8t-27 8t-9 18.5t8 23.5t22 22.5t34 16.5zM207 475q-12 -12 -25.5 -34t-27 -49t-26.5 -57.5t-23 -61.5l48.5 61.5
t43.5 60t30.5 51t10.5 34.5z" />
    <glyph glyph-name="u" unicode="u" horiz-adv-x="458" 
d="M115 321q22 14 47 21.5t41.5 5t19 -15t-21.5 -38.5q-32 -34 -53.5 -66.5t-33.5 -59.5t-14 -46.5t6 -27.5q17 -16 45 -9t63 32q3 30 15.5 61.5t30.5 61t40 53.5t43 38.5t40 18t31 -9.5q13 -14 10 -39.5t-18.5 -56t-41 -64.5t-56.5 -65q2 -12 10 -18q10 -7 25 -5t33.5 11.5
t39 25.5t42.5 37q16 16 29.5 18t20 -4.5t4.5 -20t-18 -29.5q-35 -35 -70 -64t-68 -45.5t-62.5 -16t-53.5 25.5q-7 6 -14 18q-27 -18 -55 -30t-54.5 -15.5t-50.5 3t-44 24.5q-28 25 -31.5 64.5t11.5 81t44.5 80.5t68.5 65z" />
    <glyph glyph-name="v" unicode="v" horiz-adv-x="409" 
d="M160 294q-26 -32 -41 -61t-19.5 -52.5t-0.5 -39t16 -20.5q20 -9 44 6t47 46t43 73.5t33 88.5q11 40 34 45t43 -18q10 -12 20.5 -26t24.5 -26t34 -20t49 -8q15 0 20.5 -8t3.5 -17.5t-12 -17.5t-25 -8q-38 0 -72.5 10t-56.5 27q-29 -78 -66 -136.5t-78 -91.5t-83 -38
t-81 23q-27 20 -36.5 55.5t-2 77.5t32.5 87t67 85q22 21 41 26t29.5 -1.5t10 -22.5t-18.5 -38z" />
    <glyph glyph-name="w" unicode="w" horiz-adv-x="577" 
d="M507 280q-10 -39 -27 -79t-39 -75.5t-48 -63.5t-54 -44t-58 -17t-59 17q-16 9 -25.5 22t-14.5 28q-25 -21 -50 -36.5t-48.5 -24t-43 -8t-34.5 11.5q-28 21 -28 60.5t17.5 83.5t47 87.5t60.5 72.5t53.5 36.5t33.5 0.5t9 -24.5t-18 -36.5q-23 -27 -45 -57.5t-37 -58
t-20.5 -48.5t5.5 -30t36 1t57 34q5 40 24 80.5t43.5 71.5t50 47t42.5 6q14 -8 15 -26t-8 -41.5t-27 -51t-41 -55.5q0 -42 21 -48q16 -5 36.5 11.5t40.5 46.5t38.5 71t30.5 85q11 41 33.5 51t45.5 -13q11 -11 23 -26t27.5 -28t37 -22t51.5 -9q15 0 20.5 -8t3.5 -17.5
t-12 -17.5t-25 -8q-38 0 -74 11.5t-67 37.5z" />
    <glyph glyph-name="x" unicode="x" horiz-adv-x="384" 
d="M323 375q24 13 47 12t33.5 -12t2.5 -30t-47 -40q-48 -26 -91 -59.5t-85 -74.5q7 -33 28.5 -49t49.5 -16.5t60.5 15t62.5 45.5q10 10 21 9.5t17.5 -7.5t7 -17.5t-9.5 -20.5q-23 -23 -51.5 -47.5t-58.5 -44t-61 -31t-59 -9.5t-51.5 21t-38.5 61l-41.5 -53l-41.5 -56
q-18 -24 -32 -29.5t-21 2.5t-4.5 27.5t18.5 45.5q14 23 42.5 63t66.5 86v13.5t1 13.5q-22 -33 -52 -63q-9 -9 -19.5 -8t-17 7.5t-7.5 17t8 19.5q19 19 37 40.5t33 42t26 39.5t16 33q8 23 17.5 32.5t18 8.5t14 -11t5.5 -26q0 -12 -0.5 -31t1.5 -40q36 35 75 66.5t80 54.5z
" />
    <glyph glyph-name="y" unicode="y" horiz-adv-x="398" 
d="M112 322q18 15 39 22.5t35.5 6.5t18.5 -11t-11 -30l-35.5 -48.5t-35.5 -56.5t-19.5 -52t11.5 -35q15 -12 39 -2t56 39l79 144q19 33 38.5 44t33.5 7t20 -20t-3 -37q-11 -25 -32 -55t-49 -61q-11 -32 -24 -65.5t-28 -66.5q54 30 90.5 62.5t62.5 58.5q14 14 26 15
t18.5 -6.5t5 -20t-14.5 -24.5q-63 -63 -119 -101t-107 -61q-26 -48 -56 -91t-61.5 -75.5t-65 -51t-67.5 -18.5t-57.5 14t-34 36t-6 49.5t26.5 54.5t64 50.5t106 37.5q14 4 28 7t27 8l39 62q-31 -18 -58.5 -26t-47.5 -1q-39 12 -50 46t0.5 78t42 90.5t75.5 83.5zM-40 -185
q18 0 45.5 29.5t59.5 75.5l-21 -6q-41 -11 -64.5 -27.5t-33 -32.5t-5.5 -27.5t19 -11.5z" />
    <glyph glyph-name="z" unicode="z" horiz-adv-x="407" 
d="M261 261q-47 -11 -78.5 -0.5t-42.5 24.5q-8 -21 -20.5 -43t-27 -42.5t-29.5 -38.5t-28 -31q-9 -9 -19 -8t-16.5 7.5t-7.5 17t8 19.5q47 47 70.5 97t41.5 97q8 19 30.5 26t47.5 1q7 -2 12.5 -7.5l11.5 -12l13 -13.5t18 -12q24 -11 42 -12t31 3t22.5 10t17.5 9q13 5 26.5 4
t21 -6.5t6.5 -15.5t-16 -22q-13 -10 -37.5 -30.5l-56.5 -46l-68 -54.5l-71 -56l8 -3q43 -17 74 -23.5t56.5 -2t50 21.5t55.5 48q14 14 26.5 15t18.5 -6t5 -19.5t-14 -25.5q-65 -65 -110 -94t-78 -35t-59.5 4.5t-54.5 24.5l-38 17t-30 11l-30 -25t-28.5 -20t-25 -10.5
t-21.5 3.5q-14 10 -6 35t37 51q19 17 45 27t55 12q38 32 80 64t82 66z" />
    <glyph glyph-name="thorn" unicode="&#xfe;" horiz-adv-x="398" 
d="M398 166q8 8 18.5 7.5t18 -6.5t8.5 -16.5t-9 -20.5q-65 -65 -130 -98.5t-140 -27.5q-16 -4 -35 -4q-36 0 -61 12.5t-39 32.5l-23 -71q-25 -75 -51 -119t-50 -63t-44 -17.5t-32 17t-14.5 41t9.5 53.5q8 19 24.5 50t40 68.5l51.5 78.5t60 82q13 53 30 110.5t37.5 112
t44.5 102.5t52 83t62 47t60.5 1.5t37 -42t-8.5 -83.5q-12 -32 -31 -64.5t-43 -65.5q39 8 68 -14q26 -20 35 -52t3.5 -68.5t-23 -75t-43.5 -70.5q30 11 59 31t58 49zM235 278q-11 5 -29.5 -4.5t-42.5 -29t-50.5 -46.5t-51.5 -57l-15 -47q19 -19 64 -19q15 0 33.5 13.5t36 34
t33 45.5t24 47.5t9 39.5t-10.5 23zM142 315q66 94 85.5 144.5t4.5 57.5q-16 7 -44 -45.5t-74 -179.5z" />
    <glyph glyph-name="eth" unicode="&#xf0;" horiz-adv-x="390" 
d="M150 494q11 3 23 5.5t23 4.5q-2 7 -5.5 13t-6.5 12q-12 22 -8 41t17 28t32 3.5t37 -33.5q7 -11 12.5 -24.5t10.5 -30.5q32 2 60 -0.5t48 -5.5q19 -3 32.5 -10.5t18 -15t-2 -14t-28.5 -8.5l-51.5 -4.5t-61.5 -7.5q5 -29 7 -57t2 -53l7 -3l29.5 -17.5t32.5 -15.5
t40.5 -11.5t53.5 -7.5q15 -1 20.5 -9t3 -17t-12 -16.5t-24.5 -8.5q-30 -2 -54.5 0t-43.5 6t-32.5 9.5t-22.5 9.5q-3 -54 -23 -109.5t-55 -94.5q-21 -23 -46.5 -37t-51 -18t-50 2t-45.5 23q-23 17 -33 43t-9 57.5t13.5 65.5t35.5 66q19 25 42.5 46.5t49 35.5t50.5 19.5
t47 -0.5q-2 21 -4.5 40t-6.5 36l-56 -17q-38 -13 -58.5 -6t-23 22.5t14 34.5t53.5 29zM117 106q15 -18 35 -4.5t38 43.5t30.5 70.5t11.5 77.5q-17 8 -35 0.5t-34 -25t-28.5 -40.5t-19.5 -46.5t-7 -44t9 -31.5z" />
    <glyph glyph-name="germandbls" unicode="&#xdf;" horiz-adv-x="392" 
d="M-117 -37q44 53 77.5 121t62 139l54.5 138.5t54.5 121t63 86t79.5 32.5q32 0 53 -14t30.5 -37t9 -53t-11 -61t-30.5 -61.5t-49 -55.5q18 -20 27 -47.5t10 -58.5t-5.5 -63t-21.5 -60q27 11 53 30t53 46q8 8 18.5 7.5t18 -6.5t8.5 -16.5t-9 -20.5q-60 -60 -119 -93
t-126 -34q-29 -8 -64.5 -3.5t-77.5 24.5q-14 -37 -28 -68t-30 -53q-23 -31 -49.5 -35.5t-45 8.5t-23 37t17.5 50zM119 271l-30.5 -103t-32.5 -102q50 1 82 24.5t48 55.5t18.5 67t-5.5 60q-26 -10 -46 -9.5t-34 7.5zM240 494q-27 0 -50.5 -41.5t-45.5 -104.5q21 6 51 6
q10 0 19 -2t17 -4q16 21 26.5 46t12.5 47.5t-5 37.5t-25 15z" />
    <glyph glyph-name="T" unicode="T" horiz-adv-x="415" 
d="M77 607q50 31 109.5 37.5t123 2t129.5 -13t130.5 -7.5t125 17.5t113.5 63.5q22 20 41 22t31 -7t14 -24.5t-8 -30.5q-27 -38 -64.5 -58t-83 -29t-98 -9.5t-109.5 -0.5q-41 -25 -77.5 -72.5t-69 -107t-60.5 -126l-53 -129l-46.5 -116.5t-40.5 -88q-22 -40 -49.5 -60
t-52.5 -22.5t-45.5 9.5t-29 35.5t-2 56t35.5 70.5q67 89 116.5 174l92.5 157.5t84 129t91 88.5q-78 -3 -156 -18t-151 -57q-56 -32 -83 -27t-30 29t16 56.5t56 54.5z" />
    <glyph glyph-name="U" unicode="U" horiz-adv-x="743" 
d="M836 690q21 19 39.5 30t28 10t6.5 -16.5t-25 -48.5q-61 -90 -111 -181t-86.5 -175.5t-58.5 -158t-27 -128.5t8 -86.5t46 -32.5q18 0 17.5 -11t-14.5 -23t-38.5 -19.5t-54.5 0.5q-38 10 -61 33t-33.5 54.5t-11 69t7.5 78.5q-53 -71 -104.5 -115.5t-98.5 -65.5t-86 -21.5
t-66.5 16.5t-41.5 49t-9 75q6 54 28.5 105.5t57 102t77.5 100t90 98.5q-45 -25 -93 -57t-100 -75q-31 -26 -55 -32.5t-39.5 0t-21.5 23.5t-1.5 38.5t20.5 44.5t45 42q51 33 89 49.5t77 27.5l85 24t112 39l26 28q48 52 78 69.5t45 14t16 -21t-10 -34.5q-23 -35 -60 -61
t-87 -52q-77 -86 -125.5 -162.5t-72.5 -136.5t-26 -101t16 -55q44 -35 121 24.5t188 233.5q47 94 121 197t173 194z" />
    <glyph glyph-name="R" unicode="R" horiz-adv-x="731" 
d="M471 515q9 16 20 24.5t18.5 7.5t10 -12t-5.5 -33l-32.5 -89t-34.5 -87q23 3 44 -5t36 -25q63 20 104.5 53.5t63.5 71t26 75.5t-7.5 67.5t-38 47.5t-64.5 15q-43 -3 -86 -26.5t-85.5 -58.5t-84.5 -77.5l-81.5 -84l-76.5 -77t-70 -57.5q-50 -33 -81 -28.5t-40 27.5t6 54.5
t59 53.5q75 37 134 79t109 83.5l93.5 79.5t87.5 67t92 46.5t106 17.5q62 0 101 -28.5t54 -73.5t5 -100.5t-46 -109t-99 -99t-154 -70.5q12 -36 16 -75.5t5.5 -77t3 -70.5t8 -57t19.5 -36t39 -7q15 3 15.5 -8.5t-13 -26.5t-39.5 -27.5t-65 -12.5q-44 0 -68 20.5t-33.5 53.5
t-8.5 75t5.5 84t9.5 81t3 66q-14 0 -25 2t-19 5q-40 -89 -79.5 -161t-74.5 -114q-20 -24 -43 -37t-44.5 -15.5t-38 6t-22.5 29t0.5 52.5t32.5 77q29 52 66 96l79.5 92.5t90 109.5t97.5 147z" />
    <glyph glyph-name="Q" unicode="Q" horiz-adv-x="738" 
d="M53 384q33 30 68.5 52t81.5 40.5t104 36t136 37.5q32 26 70 50q32 19 52 26q3 19 15.5 40.5t32.5 36.5t46 19t56 -12q39 -20 55 -64t14 -102.5t-20.5 -127t-49 -139t-71.5 -138.5t-87 -125l34.5 -64.5t33.5 -55.5t35 -37.5t38 -10.5q18 3 26.5 2t11 -5t0 -10.5
t-8.5 -15.5q-9 -14 -28.5 -29t-45 -23.5t-56 -7t-61.5 20.5q-34 21 -53.5 55.5t-32.5 75.5q-62 -47 -123 -59t-115 28q-50 37 -62.5 100.5t4.5 139t61 157.5t107 156q-43 -22 -90 -54.5t-100 -83.5q-41 -38 -72.5 -42t-46 14t-6.5 51t47 68zM581 534q-27 -18 -61.5 -28.5
l-76.5 -24.5q-62 -69 -102 -150.5t-54 -153.5q35 16 64.5 17t55 -9t47.5 -29.5t41 -44.5q35 40 69 92t62.5 107.5t49.5 110t31 101.5t6.5 82t-23.5 51q-17 13 -38.5 5.5t-30.5 -34.5q17 -12 7.5 -39.5t-47.5 -52.5zM313 28q21 -16 47 -12t54 22q-8 26 -18.5 47t-25.5 34.5
t-37 17.5t-52 -5q-2 -36 5.5 -63t26.5 -41z" />
    <glyph glyph-name="K" unicode="K" horiz-adv-x="643" 
d="M472 615q15 20 34 31t31.5 9t13 -18.5t-20.5 -50.5l-61 -108.5l-73 -137.5q33 -10 71.5 5.5t80 52.5t83 94t79.5 131q28 56 63.5 78.5t61 17t34 -36.5t-16.5 -81q-27 -55 -70.5 -105t-94 -90.5t-104.5 -68.5t-103 -39q5 -5 9 -11l9 -14q13 -26 15.5 -64.5t1 -80.5
t-4 -82.5t1.5 -70t18 -43.5t45 -3q18 7 21 -0.5t-4.5 -20.5t-25 -27.5t-41 -23t-51 -7.5t-56.5 20q-33 21 -44 59t-9.5 83t10 92t14.5 87t4 68t-21 35l-56 -105l-54.5 -98t-50.5 -83t-44 -61q-36 -42 -74 -52t-62.5 6.5t-28 55t29.5 93.5q27 43 66 88l84 94l93 104.5
t92 120.5q-29 -18 -62 -42.5l-66 -50.5l-65 -51.5l-59 -46.5q-37 -29 -65 -28t-39.5 20.5t-2 51t46.5 62.5q39 32 92.5 53.5l111 45t113.5 56t100 88.5z" />
    <glyph glyph-name="L" unicode="L" horiz-adv-x="540" 
d="M196 410q64 44 119 72l103.5 53.5t91.5 54.5t85 74q23 25 45 37t40 14.5t29 -4.5t11.5 -20t-11.5 -31.5t-41 -38.5q-34 -24 -67 -63.5t-64 -88.5t-60.5 -104l-57 -109.5l-52 -105t-46.5 -90.5q36 -20 63.5 -42t53.5 -38.5t54 -22t66 8.5q17 7 23 0.5t1.5 -19.5t-19 -30
t-37 -32.5t-52.5 -26t-67 -10.5q-27 0 -50.5 10t-44.5 25.5t-40.5 34.5l-37.5 38q-27 -22 -63.5 -37.5t-84.5 -15.5q-33 0 -53 14.5t-27 36.5t-1.5 47.5t24.5 47.5t50.5 36.5t76.5 14.5q8 0 16 -0.5t16 -1.5q33 43 73.5 101.5l83 118.5l83.5 115.5t75 92.5
q-26 -21 -53.5 -47l-58 -55.5l-66 -61t-78.5 -63.5t-71.5 -29t-37.5 25t4 54.5t54 60.5z" />
    <glyph glyph-name="M" unicode="M" horiz-adv-x="854" 
d="M73 352q31 30 67.5 52.5t74.5 41t74.5 34.5t67.5 32t53.5 33t32.5 38q15 32 33.5 46.5t31.5 12t16 -21t-13 -51.5q1 -32 4 -83t5 -111q46 48 94.5 88.5t93.5 74l83.5 60l66.5 44.5q29 40 62.5 60t62.5 24.5t49.5 -4t23.5 -25.5t-15.5 -41.5t-66.5 -50.5
q-83 -106 -136.5 -212t-82.5 -194.5t-37.5 -151.5t-0.5 -84t24.5 -30t39.5 -9q16 0 12 -11.5t-21.5 -26t-44.5 -28t-55.5 -16.5t-54.5 8.5t-42 46.5q-23 48 -17 109t28.5 126.5t57.5 130.5t70.5 122.5t67 103t47.5 71.5q-42 -25 -83.5 -62t-81 -82.5t-76 -98t-69.5 -108.5
q-2 -23 -3.5 -45t-4.5 -42q-12 -81 -36 -131.5t-52 -74t-55 -22.5t-45 22t-22.5 59t13.5 89q24 69 62.5 130.5t84.5 116.5q3 51 3 97.5t-5 82.5q-22 -52 -56.5 -123.5t-75.5 -146t-84.5 -144t-83.5 -117.5q-26 -32 -51.5 -45t-46.5 -12t-35.5 14.5t-20 35.5t0.5 49.5
t26 57.5q30 45 66 86.5l75.5 84l81 88.5t82.5 100q-28 -13 -47.5 -28.5t-40.5 -35.5l-47.5 -45t-66.5 -56q-41 -32 -66.5 -31t-34 20t0.5 50t38 59z" />
    <glyph glyph-name="N" unicode="N" horiz-adv-x="680" 
d="M72 372q32 26 82 52.5l100.5 55.5t93.5 61t60 68q13 27 29.5 36t29.5 2.5t18 -27t-5 -51.5l-8 -21t-13 -30q41 52 84.5 97t84.5 73t76 32.5t58 -24.5q17 -21 12 -64t-23 -98.5t-46 -120.5l-57 -131l-55.5 -128.5t-42.5 -114.5t-17.5 -89t20.5 -50q10 -7 10.5 -15.5
t-6 -16t-18.5 -13.5t-28 -8q-39 -5 -68 10t-45 46.5t-16.5 76.5t19.5 99q20 56 53.5 117.5t70.5 122l73 117t62 101.5t37 75t-2 39q-11 7 -40.5 -12t-72 -59.5t-95 -99.5t-109.5 -132l-63 -122t-65.5 -119t-61 -100t-49.5 -66q-34 -36 -65.5 -41.5t-50.5 10.5t-21 48.5
t24 73.5q26 40 72.5 92.5l98 113.5t101 128.5t81.5 137.5q-26 -21 -55 -50l-62 -60.5l-69 -64t-75 -60.5t-61.5 -24t-28.5 24.5t4.5 50t39.5 52.5z" />
    <glyph glyph-name="O" unicode="O" horiz-adv-x="765" 
d="M127 274q-36 -31 -68 -35.5t-47 10.5t-7 45.5t52 71.5q29 27 72 50.5t92.5 44t100.5 38l97 32.5q46 44 87 70t70 27q35 63 76 86.5t83 6.5q40 -17 52 -71.5t1 -131t-41 -165.5t-74.5 -174.5t-99.5 -159t-116 -117.5t-125 -50.5t-125 40.5q-35 28 -49 67.5t-11 87
t20.5 100.5t45.5 106.5t63 105.5t73 97q-32 -18 -60 -40t-54.5 -45.5l-53 -48zM619 602q3 -13 -7.5 -27t-31.5 -27.5t-49.5 -25.5t-59.5 -21q-32 -34 -63 -75.5t-58 -85.5t-46.5 -88.5t-27.5 -84.5t-2 -73t31 -54q28 -24 65.5 -13.5t79.5 44t85 86t80.5 112t66.5 121
t43.5 114.5t11 92.5t-31.5 53.5q-14 7 -26.5 4t-24 -11t-20.5 -19.5t-15 -21.5z" />
    <glyph glyph-name="F" unicode="F" horiz-adv-x="606" 
d="M89 523q35 47 90.5 65t122 21t138 -2t137 -3.5t119 16t85.5 57.5q27 37 53 46t41.5 -0.5t17.5 -33.5t-19 -52q-27 -36 -62.5 -55.5t-76.5 -28t-87 -9.5t-94 -1l-135 -252q33 -3 67 -0.5t69 16.5q34 13 38 2t-14 -34q-26 -33 -53.5 -53t-55.5 -30t-56.5 -12t-55.5 1
q-45 -78 -87 -143.5t-78 -106.5q-27 -30 -57 -49.5t-56 -26.5t-46 -1.5t-27.5 23.5t-0.5 49.5t35 76.5q31 51 77 101l100 105q-29 5 -44 -2q-47 -21 -56.5 -8t16.5 41q42 43 85.5 53.5t89.5 8.5q50 52 98.5 111.5t92.5 129.5q-40 0 -80 -3.5t-78.5 -13.5t-74.5 -28t-68 -48
q-34 -32 -66.5 -39.5t-52 4.5t-20 40.5t28.5 67.5z" />
    <glyph glyph-name="G" unicode="G" horiz-adv-x="702" 
d="M405 255q25 26 49.5 38t47.5 15t45 -0.5l43 -7t41 -5t39 4.5q38 13 47.5 1.5t-9.5 -40.5q-18 -28 -35.5 -43.5t-35.5 -22.5t-35.5 -7t-35.5 3q-16 -68 -28 -133.5t-32 -129.5q-16 -48 -46 -66.5t-55.5 -10t-38 41.5t5.5 88q-20 -18 -50.5 -33t-64 -19.5t-66 6.5t-56.5 44
q-23 32 -26 76.5t10.5 96.5t41.5 108t67 111q-23 -13 -45 -27t-43 -30q-29 -22 -55 -30.5t-45 -6.5t-29 13t-8 29t19 40.5t52 48.5q18 13 45.5 25t62 23t74 21l81.5 20q41 40 87 76t93 65.5t92.5 50.5t86.5 30q68 16 112 4.5t57.5 -37t-5.5 -59t-76 -60.5q-27 -13 -63 -24.5
t-78 -23.5l-89.5 -24.5t-96.5 -28.5q-17 -16 -32.5 -33t-29.5 -34q-34 -42 -60 -87t-40.5 -88t-16.5 -79t13 -60q22 -35 56 -37t68 18t60 57.5t31 82.5q-19 5 -37.5 7.5t-37.5 -1.5q-31 -7 -41.5 4t15.5 39zM718 650q-34 -12 -80 -40t-95 -67q69 16 124.5 32t84.5 33
q22 13 31 25.5t4.5 19.5t-22 7t-47.5 -10z" />
    <glyph glyph-name="D" unicode="D" horiz-adv-x="731" 
d="M443 549q14 21 26.5 30t20 7t9 -14t-6.5 -33q-25 -66 -105 -194.5l-209 -338.5l-12 -17.5l-12 -16.5q48 -15 99 4t100.5 60t95.5 99t83 122.5t64 129.5t38 120t5 94t-35 52q-30 13 -66 -0.5t-75.5 -43t-82 -70.5l-85 -83.5l-84.5 -82t-80 -66.5q-41 -29 -72.5 -26t-45 22
t-5.5 47t45 51q48 29 95.5 64.5l94.5 72l93.5 70.5t92.5 60t91 41t90 13q62 -2 96 -41t44.5 -101.5t-0.5 -141t-40 -160.5t-73.5 -160t-101 -139t-123 -98t-138.5 -37q-66 0 -106.5 22.5t-56.5 60.5q-34 -28 -62 -28t-40 24t-2.5 70.5t49.5 111.5q36 57 83.5 106.5
l99.5 100.5t104.5 108t99.5 129z" />
    <glyph glyph-name="H" unicode="H" horiz-adv-x="780" 
d="M26 182q28 36 64.5 56.5t79 30.5t91.5 11.5t103 0.5q44 56 85 117t76 127q-47 -26 -90.5 -52.5l-85.5 -52.5l-84 -50t-87 -45t-72.5 -17t-35.5 21.5t3.5 43t43.5 48.5q43 29 101.5 50.5t121.5 41.5t123.5 43t107.5 56q17 36 37 47t32 3.5t10 -32t-29 -58.5
q-35 -45 -76.5 -124.5l-85.5 -169.5h53t54 1q54 99 143.5 200.5t223.5 194.5q27 19 54.5 33t43.5 17t14 -7t-35 -40q-113 -101 -187.5 -198t-120.5 -185q18 3 36 7.5l37 9.5q31 9 45.5 3.5t16 -16t-8 -23t-26.5 -18.5q-23 -9 -56 -13.5t-72 -7.5q-32 -73 -46 -133.5
t-14.5 -103t10 -65t27.5 -19.5q21 4 23.5 -5.5t-5.5 -23.5t-23 -26.5t-29 -13.5q-51 -5 -83.5 23.5t-43.5 81t1 124.5t50 154q-55 -3 -110 -9l-47 -92.5t-45 -82.5t-42 -67t-37 -45q-24 -22 -49.5 -30t-47 -5.5t-37 14.5t-20 30.5t3.5 42.5t34 50l70.5 72.5l80.5 88.5
q-57 -14 -106 -38t-85 -62q-23 -24 -47 -25.5t-39 13t-15.5 41t23.5 57.5z" />
    <glyph glyph-name="I" unicode="I" horiz-adv-x="483" 
d="M47 365q47 39 101 67t114 53.5l124.5 53.5t133.5 69q7 11 14.5 21.5l15.5 21.5q36 49 66 65.5t43 8.5t3.5 -35.5t-54.5 -65.5l-20 -17q-29 -56 -56.5 -119l-55.5 -128.5l-55.5 -130.5t-56 -123.5t-58.5 -108.5t-61 -86q-29 -34 -60 -48.5t-57 -13.5t-44 15.5t-21.5 39.5
t10 58.5t51.5 72.5q55 56 99.5 114.5t83.5 119l76 122l76 124.5l-91 -60.5l-92 -61.5t-85.5 -62t-71.5 -61q-40 -39 -68.5 -39.5t-40.5 20t-4 53t41 61.5z" />
    <glyph glyph-name="J" unicode="J" horiz-adv-x="702" 
d="M366 468q39 23 82 40l90 35t99.5 40.5t111.5 56.5q23 41 46 62.5t39.5 26t23.5 -8t-2 -38.5q-10 -29 -54 -65q-67 -201 -135 -347.5t-139.5 -240.5t-148.5 -137.5t-161 -39.5q-66 3 -110 23.5t-69 51t-32.5 68t-0.5 75t27.5 71.5t52 57.5t72 33.5t87.5 -1q26 -6 38 -20.5
t12.5 -32t-9 -33.5t-25.5 -25t-37.5 -7.5t-44.5 19.5t-42 15.5t-29.5 -16.5t-11 -36t14 -42t45 -33t82.5 -11q53 2 102.5 30.5t94.5 73t85 101t74.5 115.5t62 115l48.5 101l-134.5 -85.5t-149.5 -99.5q-41 -29 -70 -24.5t-39 26t2 52t52 54.5z" />
    <glyph glyph-name="B" unicode="B" horiz-adv-x="689" 
d="M460 560q14 19 30 32.5t27.5 16t14.5 -8.5t-8 -40q-9 -23 -32.5 -73t-56.5 -114q23 3 52 -4q36 14 65 37.5t49 51t31 56.5t11 54.5t-11.5 44.5t-35.5 28q-29 10 -63.5 -1.5t-71.5 -37.5t-76 -63.5t-77 -79l-73.5 -83.5l-65.5 -77t-57.5 -49.5t-49 -14t-34.5 13t-14.5 32
t10.5 42.5t40 44q110 82 189.5 150.5t145.5 116.5t125.5 72.5t130.5 18.5q48 -4 78 -28t41.5 -59.5t4 -79t-33.5 -86t-71 -80.5t-108 -63q37 -31 53.5 -79.5t13 -102t-26 -107.5t-63 -97t-98 -70t-131.5 -27q-55 0 -97.5 22t-71.5 55q-37 -27 -70.5 -30.5t-53 13t-19 52.5
t31.5 89q10 17 20.5 33l22.5 33q3 59 18 71.5t30 -12.5q33 39 70.5 79l79.5 86.5l88.5 101t96.5 121.5zM451 299q-14 -2 -28.5 -3l-29.5 -2l-44 -81l-45.5 -79l-44 -72.5t-41.5 -61.5q36 -25 89 -25q43 0 78 20t60 51t39.5 69t16 74t-10.5 65.5t-39 44.5z" />
    <glyph glyph-name="Z" unicode="Z" horiz-adv-x="677" 
d="M88 352q33 42 69.5 70.5t72.5 52l69 47t60 55.5q-19 21 -22.5 43t3 39.5t20 28.5t28.5 10t28.5 -16.5t20.5 -49.5q3 -16 1 -33q27 -4 62.5 -1t73.5 13t74.5 27.5t64.5 41.5q37 32 74 41.5t62.5 -2t33.5 -42t-13 -77.5t-72.5 -99t-119 -105t-144 -105.5l-147.5 -100
l-129 -89t-89 -72.5q29 12 58.5 9.5t59 -11.5t58.5 -21t57.5 -19.5t55.5 -6t52 19.5q20 14 28.5 11t7 -18t-13.5 -39t-34 -51q-26 -34 -55 -45.5t-60 -9.5t-64 14l-68 24t-72 20.5t-75 4.5q-14 -2 -30.5 -5.5t-31 -5.5t-25 -0.5t-14 10t2.5 26t26 47.5q19 30 59 70t93 87.5
l115 100l126.5 108l127.5 112.5t118 112q-45 -15 -90 -25q-38 -8 -82 -12t-80 5q-17 -29 -44 -58l-57.5 -59.5l-62.5 -63t-57 -69.5q-35 -50 -71 -65t-58 -3.5t-21.5 46t40.5 83.5z" />
    <glyph glyph-name="P" unicode="P" horiz-adv-x="692" 
d="M463 538q10 16 24 28t24.5 14t13.5 -10.5t-9 -46.5q-6 -18 -20 -49.5l-32.5 -72l-40.5 -88l-45 -95.5h1q63 0 113.5 31.5t86.5 78.5t56 101.5t22 101.5t-15 78.5t-54 31.5q-38 0 -71.5 -16.5t-66 -44t-65.5 -63.5l-69 -75.5l-76 -79.5t-87 -76q-55 -42 -93 -45.5
t-51.5 15t1 51.5t62.5 66q117 79 198 144l143 111t113 71.5t108 25.5t93.5 -23.5t54 -62t16 -88.5t-21.5 -103t-58 -104.5t-92.5 -94t-125.5 -71.5t-158 -36l-52 -112l-39 -87q-27 -63 -63.5 -83t-63.5 -6.5t-34.5 57t22.5 106.5q21 45 43 80.5t47 70.5q-22 17 -28 39.5
t0.5 43t22.5 34.5t37 14q17 0 29.5 -7.5t20.5 -16.5l81.5 111.5t97.5 151.5z" />
    <glyph glyph-name="C" unicode="C" horiz-adv-x="530" 
d="M72 432q62 38 141 53t164 23q91 90 169 138.5t139 65t102.5 8t60 -31t12 -54t-41.5 -60.5q-41 -33 -83 -51.5t-87 -30t-94.5 -19.5t-103.5 -19l-38 -48t-38 -54q-52 -78 -75 -139.5t-23.5 -106.5t17.5 -74.5t47 -44t65.5 -15.5t72.5 11q28 10 29.5 -2t-17.5 -34
q-42 -48 -89.5 -72.5t-93 -29t-85.5 11t-67.5 48t-39.5 80.5t-1 110t47.5 136t106.5 158l14 17q-40 -16 -82.5 -36.5t-89.5 -48.5q-47 -29 -74 -24.5t-32 26.5t11.5 53t56.5 56zM764 601q40 26 33.5 43t-44.5 13t-101 -34t-136 -99q69 9 132 25.5t116 51.5z" />
    <glyph glyph-name="V" unicode="V" horiz-adv-x="810" 
d="M57 332q51 42 102.5 65t103.5 40.5l102.5 35.5t100.5 50q15 42 33.5 66t35.5 33t30.5 5.5t20 -15.5t3.5 -31t-19 -40q-15 -20 -32 -37t-36 -33q-16 -57 -30.5 -122l-28.5 -132q50 55 107 109l115 105l114.5 96.5l107 82.5t92 64.5t69.5 41.5q65 33 108.5 29t57 -29.5
t-7 -63t-84.5 -70.5q-34 -18 -86.5 -51.5t-115 -78l-132 -98l-138 -111t-132 -116.5t-113.5 -115l-9 -49q-8 -40 -27 -67t-40.5 -39.5t-41.5 -10.5t-30 19.5t-6 51t31 83.5q16 31 38 63.5t49 66.5q14 73 30.5 147.5t36.5 146.5q-33 -21 -69.5 -41t-74.5 -43.5t-77.5 -51
t-79.5 -63.5q-24 -22 -47.5 -29.5t-42.5 -3.5t-30.5 17t-12 32t12 42.5t42.5 48.5z" />
    <glyph glyph-name="W" unicode="W" horiz-adv-x="958" 
d="M54 321q55 40 110 68l112.5 55.5t117.5 60t125 81.5q8 14 15 29q19 43 45.5 63t43.5 18.5t17.5 -22.5t-32.5 -59l-30 -31t-37 -35l-85 -173q72 54 142.5 100.5l133.5 86.5q28 53 55 69t43 8t16.5 -34.5t-22.5 -58.5q-11 -15 -31 -35.5t-46 -44.5q-14 -52 -24.5 -108.5
t-19.5 -114.5q55 82 121.5 161t135 144t134 111t118.5 62q79 24 117.5 17t45 -29.5t-15 -53t-63.5 -55.5q-25 -15 -67.5 -44.5t-95 -71l-112.5 -93.5t-121.5 -111t-120.5 -124t-109 -132l-8 -50t-8 -44q-8 -39 -20 -59t-24 -25.5t-23.5 0.5t-19.5 20.5t-11 34t2 41.5
q8 39 25.5 81.5t40.5 87.5q8 67 20.5 143.5t30.5 147.5l-84.5 -72.5l-91 -77l-92 -79.5l-86.5 -79l-87 -176q-19 -37 -41.5 -52.5t-42.5 -14t-35 18.5t-20 44.5t3 63.5t34 76q42 63 99.5 123.5t123.5 117.5l55.5 97.5l51.5 89.5l-89 -70.5l-90.5 -69.5l-83.5 -64t-67 -54
q-44 -37 -76 -37t-45.5 20.5t-4.5 52.5t48 60z" />
    <glyph glyph-name="X" unicode="X" horiz-adv-x="648" 
d="M802 669q28 31 63 43.5t59.5 5t29.5 -37.5t-28 -85q-30 -49 -81 -93.5t-116 -87t-139.5 -85l-150.5 -87.5q-8 -63 -4 -116.5t16 -97.5q9 -35 25.5 -56.5t35 -32t37 -10.5t31.5 7q21 11 24.5 6t-1.5 -16q-10 -23 -39.5 -46t-69 -32t-83 3.5t-81.5 60.5q-35 45 -43.5 105.5
t4.5 131.5q-76 -51 -141 -107.5t-112 -122.5q-8 -11 -16.5 -16t-14 -2.5t-4.5 14t13 34.5q24 48 55 86t68.5 72.5t81.5 67.5l94 69q25 75 66 153.5t92 153.5q-42 -15 -73 -45t-58 -66.5t-52 -75.5t-54 -72t-56.5 -37t-44 10.5t-18 42.5t22.5 59q36 48 79 88t85.5 70.5t81 50
t67.5 25.5q58 13 82.5 -3.5t-1.5 -66.5q-25 -47 -42.5 -91.5t-29.5 -87.5q75 59 159.5 135t180.5 182z" />
    <glyph glyph-name="Y" unicode="Y" horiz-adv-x="752" 
d="M971 678q49 34 92 41.5t65 -9t13.5 -54t-63.5 -93.5q-26 -27 -68.5 -55t-94 -58l-108.5 -63t-112 -69.5t-105 -77t-87.5 -86.5t-59.5 -98t-21 -111q1 -31 -11.5 -52.5t-31 -33t-39 -13t-37 7.5t-25 28t-2.5 49q14 74 64 156.5t135 173.5q-29 -13 -56 -20t-51 -7.5
t-43.5 7t-34.5 24.5q-26 30 -28 63t15 68q-36 -28 -73.5 -60.5l-77.5 -70.5q-39 -37 -69 -40.5t-44 14t-8.5 49t36.5 64.5q29 31 68.5 57t86 48.5t99.5 42.5l109 41q54 42 109.5 74.5t94.5 49.5q49 20 74 15.5t26.5 -21.5t-21 -39.5t-69.5 -37.5q-35 -11 -71.5 -26
t-78.5 -37q-45 -44 -56.5 -80.5t8.5 -57.5q19 -22 71.5 -19.5t134.5 46.5q73 65 159 132.5t186 137.5z" />
    <glyph glyph-name="Thorn" unicode="&#xde;" horiz-adv-x="876" 
d="M63 261q96 45 172.5 94.5t140.5 95.5l119.5 84.5t109.5 59.5q37 57 60 109q6 13 18 23t23.5 10.5t18 -11t0.5 -40.5q-6 -34 -18 -68q81 4 132 -25.5t71 -79.5t8.5 -112.5t-55 -124.5t-119 -117t-183.5 -88l-74 -20.5t-71 -14.5q-22 -43 -43 -89q-19 -41 -46 -66.5
t-53 -35t-48.5 -2.5t-33.5 30t-7.5 62.5t29.5 95.5l8 17l-8 6q-26 22 -35 44t-5.5 40.5t17 32.5t31 21t36 4.5t33.5 -16.5l5 -6q54 81 118 161.5l122 159.5q-35 -20 -71 -48.5t-71.5 -60.5l-70 -65l-67 -63t-62.5 -55t-55 -40q-50 -29 -83.5 -25t-46 25t-0.5 49.5t54 48.5z
M674 531q-40 -91 -99 -196l-126 -234q21 1 45 5t53 15q65 23 112 60.5t75.5 81t39 89t2.5 83t-33.5 64t-68.5 32.5z" />
    <glyph glyph-name="copyright" unicode="&#xa9;" horiz-adv-x="842" 
d="M605 130q-17 -17 -42.5 -40t-57.5 -43t-70 -34t-81 -14q-52 0 -81.5 27t-37.5 67.5t4 88t42 88t78 67.5t111 27q32 0 52.5 -10t31 -25t12 -33t-5 -33t-20.5 -25t-34 -10q-17 0 -27.5 8t-14 19.5t0 23t15.5 19.5q-33 0 -62.5 -21.5t-48 -51t-22 -60t15.5 -49.5
q15 -15 40 -18.5t53.5 3.5t58 23.5t54.5 41.5q13 13 25 14t19 -5.5t6 -19t-14 -25.5zM507 556q73 0 130 -29.5t91 -79.5t43 -117.5t-14 -142.5t-70 -143t-109.5 -119.5t-135 -82t-145.5 -30.5q-74 0 -135.5 30.5t-101 82t-53 119.5t9.5 143t70.5 142.5t112 117.5t143 79.5
t164.5 29.5zM698 187q19 64 13.5 118.5t-32.5 94t-73.5 62t-109.5 22.5t-124.5 -24t-114 -66t-92.5 -98.5t-59 -120.5q-20 -64 -14 -118.5t33 -94t73.5 -62t109.5 -22.5t124.5 24.5t114 66.5t92 98t59.5 120z" />
    <glyph glyph-name="registered" unicode="&#xae;" horiz-adv-x="842" 
d="M506 556q73 0 130 -29.5t91.5 -79.5t43.5 -117.5t-14 -142.5t-70 -143t-109.5 -119.5t-135 -82t-145.5 -30.5q-74 0 -135.5 30.5t-101 82t-53 119.5t9.5 143t70 142.5t111.5 117.5t143 79.5t164.5 29.5zM698 187q19 64 13.5 118.5t-32.5 94t-73.5 62t-109.5 22.5
q-59 0 -116.5 -21.5t-108 -58.5t-90.5 -87.5t-64 -108.5l6 3q48 24 86.5 50.5t72 53l62.5 50.5t58.5 42.5t61 29.5t68.5 11q38 0 62 -18t33 -47t2.5 -64.5t-29 -70.5t-61 -65t-93.5 -48q9 -34 10 -70t3 -64.5t10.5 -45.5t31.5 -13q4 1 7 0q66 42 116.5 106t73.5 139z
M159 130q-23 -14 -39 -16t-26 5q-8 -53 4 -97t40 -76t71 -50t99 -18q52 0 107 19q-29 7 -39 32.5t-10 59t5.5 68.5t6.5 62q-8 -1 -15 -0.5t-12 1.5q-23 -49 -45.5 -87.5t-42.5 -62.5q-21 -26 -47 -34.5t-43 1t-18 37.5t26 76q20 36 45.5 66.5l55 64t62 75t67.5 99.5
q-34 -18 -68 -49t-66.5 -64.5l-62 -64t-55.5 -47.5zM452 371q-1 -3 -1.5 -6.5t-2.5 -7.5l-29 -79t-32 -78q14 -2 26.5 -9.5t19.5 -19.5q52 22 77.5 57t27.5 68t-17 56.5t-54 20.5z" />
    <glyph glyph-name="one" unicode="1" 
d="M173 207l-25 -134l-24 134h-35l-3 -214h32l1 87l17 -87h25l17 88l1 -88h32l-2 214h-36zM823 623q-21 0 -34.5 11t-16.5 31q-2 10 -2 19v19q0 20 -1 42t5 42q5 17 17 24.5t29 8.5t31 -5t20 -23q8 -19 7 -42t-1 -43q0 -11 -0.5 -22.5t-2.5 -22.5q-9 -39 -51 -39zM773 401
q-44 0 -52 42q-2 10 -1.5 19.5t0.5 19.5q0 20 -1 42t4 41q5 17 17 25t29 8q17 1 31 -5t21 -23q8 -19 6 -41.5t-2 -42.5v-23t-2 -22q-4 -20 -17 -30t-33 -10zM1052 207h-48v-214h36v94h10l14 -94h36l-18 103q15 13 18 38q1 13 -0.5 26t-7 23.5t-15.5 17t-25 6.5zM302 104
l-37 103h-27v-214h33v105l37 -105h27v214h-33v-103zM571 73h21v-14t-1.5 -18t-6 -14.5t-13.5 -2.5q-6 2 -8 7.5t-3 12.5t-0.5 14t0.5 12v51q0 11 -0.5 23t2.5 23q5 11 16 9q10 -3 11 -13q2 -8 1.5 -16t-0.5 -16h36q0 18 -2.5 39t-20.5 32q-11 6 -24 6.5t-24 -2.5
q-15 -5 -21.5 -17.5t-9.5 -26.5q-2 -15 -1.5 -30.5t0.5 -31.5q0 -15 -0.5 -29.5t1.5 -29.5q2 -13 6.5 -25t15.5 -19q11 -8 26.5 -7.5t25.5 10.5l1 -7h28v111h-56v-31zM917 207l-39 -214h36l8 50h23l8 -50h36l-38 214h-34zM536 625v194q18 0 38.5 0.5t36.5 -8.5
q11 -6 16.5 -19t5.5 -27.5t-6 -26.5t-18 -16l27 -97h-27l-25 91h-21v-91h-27zM482 104l-18 20l-11 10.5t-8 13.5q-3 8 -0.5 18.5t13.5 9.5q6 -1 8.5 -5.5t3.5 -11t1.5 -13t0.5 -10.5l33 2q0 19 -4.5 38.5t-22.5 28.5q-12 5 -23.5 4t-21 -6.5t-16 -15t-7.5 -21.5
q-2 -13 0 -25.5t10 -23.5q3 -6 8 -10.5t9 -9.5l23 -25t12 -30q0 -5 -1.5 -11t-7.5 -7q-9 -3 -14 8q-5 8 -5.5 18t-1.5 20l-33 -3q0 -13 1.5 -25.5t6.5 -25.5q8 -15 22 -21.5t30 -3.5q17 3 26.5 15.5t11.5 27.5q2 20 -4.5 38t-20.5 32zM323 625v194h42q14 0 27 -3.5t21 -17.5
q8 -17 7 -39t-16 -34q-11 -9 -25.5 -9.5t-28.5 -0.5v-90h-27zM1250 88h34v30h-34v57h42v32h-78v-214h78v31h-42v64zM852 403v194h18l56 -129v129h23v-194h-18l-56 132v-132h-23zM904 625v194h18l55 -129v129h22v-194h-17l-56 132v-132h-22zM398 404q-18 -7 -38.5 -1
t-28.5 26q-5 11 -5.5 22.5t-0.5 24.5v121h26v-129q0 -11 1.5 -25.5t15.5 -19.5q10 -4 17 -1t11 10t5.5 15.5t1.5 16.5q1 16 0.5 31t-0.5 31v71h26v-89q0 -12 1 -28t-1.5 -31t-9 -27.5t-21.5 -17.5zM1019 625l42 194h25l41 -194h-25l-9 48h-40l-9 -48h-25zM503 401
q-25 0 -37.5 16.5t-13.5 40.5l24 6q1 -9 2.5 -18.5t8.5 -16.5q6 -6 15 -6.5t16 4.5q8 7 7 18.5t-6 19.5q-4 6 -9.5 11l-11.5 10q-9 9 -20 18t-18 20q-12 19 -6.5 42.5t27.5 30.5q11 3 24.5 2t22.5 -8q10 -8 13.5 -19.5t4.5 -22.5l-22 -7q-1 11 -4.5 22.5t-16.5 13.5
q-9 1 -16.5 -3t-9.5 -14q-2 -8 0.5 -14.5t7.5 -12.5t11.5 -11l11.5 -9q13 -11 24.5 -23.5t15.5 -29.5q5 -23 -7.5 -41.5t-37.5 -18.5zM706 623q-24 0 -37 16.5t-14 39.5l24 6q1 -9 3 -18.5t8 -15.5t15 -7t16 5q8 7 7 18.5t-6 19.5q-4 6 -9.5 11l-11.5 10l-20 17t-18 20
q-6 10 -7.5 21.5t1 22t9.5 18.5t18 11t24.5 2t22.5 -8q10 -7 13.5 -19t4.5 -23l-22 -6q-1 11 -4.5 22.5t-16.5 13.5q-9 1 -16.5 -3.5t-9.5 -13.5q-3 -17 8.5 -28t22.5 -20q13 -11 24.5 -23t15.5 -29q5 -23 -7.5 -41.5t-37.5 -18.5zM643 -34h32l59 268h-34zM439 625v194h75
v-20h-48v-64h39v-20h-39v-71h49v-19h-76zM571 403v194h75v-20h-48v-64h39v-19h-39v-72h48v-19h-75zM811 646q12 -5 26 0q7 4 9 10.5t3 13.5v23v67q0 8 -0.5 17t-6.5 16q-5 5 -11.5 6.5t-12.5 -0.5q-14 -1 -19 -17q-4 -14 -2.5 -31t1.5 -31v-36q0 -10 1 -21.5t12 -16.5z
M759 424q5 -2 13 -2t13 2q7 4 9.5 11t3.5 14q1 5 0.5 11t-0.5 11v68q0 8 -0.5 17t-6.5 15q-5 5 -11.5 6.5t-13.5 0.5q-14 -3 -18 -18q-3 -14 -2 -30.5t1 -31.5v-35q0 -11 1 -22.5t11 -16.5zM1103 403v41q0 7 1 14.5t-1 14.5q-2 10 -5.5 19t-7.5 18l-28 87h25l30 -93l28 93
h26l-12.5 -40l-13.5 -40l-14 -41q-2 -6 -2 -12.5v-12.5v-48h-26zM1147 625v194h27v-175h50v-19h-77zM979 403v194h27v-175h49v-19h-76zM433 -162q-11 0 -17 5.5t-8.5 13.5t-2.5 17.5v17.5t0.5 17t3.5 15.5t9 11t18 3.5q10 -1 15 -6t7.5 -12.5t2.5 -16.5v-16q0 -8 -0.5 -16.5
t-3 -16t-8 -12.5t-16.5 -5zM1127 -161v99q10 0 22.5 0.5t20.5 -6.5q8 -8 8 -20.5v-23.5v-23.5t-10 -20.5q-8 -6 -20 -5.5t-21 0.5zM1185 -285q-11 0 -17 5.5t-8 13.5t-2 17.5v17.5q0 9 0.5 17.5t3.5 15.5t9 11t18 3q10 -1 15 -6t6.5 -12.5t1.5 -16.5v-16v-16.5t-2.5 -16
t-8 -12.5t-16.5 -5zM349 -285q-12 0 -17.5 5.5t-7.5 13.5t-2 17.5v17.5q0 9 0.5 17.5t3.5 15.5t9 11t17 3q10 -1 15 -6t7 -12.5t2 -16.5v-16v-16.5t-2.5 -16t-8 -12.5t-16.5 -5zM601 -284v99q9 0 19.5 1t18.5 -4q6 -3 9 -9.5t3 -14t-3 -14t-10 -8.5l15 -50h-14l-12 47h-11
v-47h-15zM389 -284l2 99h14l18 -80l17 80h13l2 -99h-11l-1 72l-17 -72h-8l-16 72l-1 -72h-12zM470 -284l2 99h14l17 -80l18 80h14l1 -99h-10l-2 72l-17 -72h-8l-16 72l-2 -72h-11zM1008 -284v99q9 0 19 1t18 -4q6 -3 9 -9.5t3 -14t-3 -14t-9 -8.5l14 -50h-14l-12 47h-11v-47
h-14zM474 -161v99q9 0 19 1t18 -4q6 -3 9 -10t3.5 -14.5t-2.5 -14t-10 -8.5l14 -49h-13l-14 46h-10v-46h-14zM484 256v100h25.5t20.5 -11q4 -8 3.5 -19.5t-8.5 -17.5q-6 -5 -13 -5.5t-14 -0.5v-46h-14zM1062 -161v99h9l28 -66v66h12v-99h-9l-28 67v-67h-12zM615 -161v99h13
v-43h27v43h13v-99h-13v46h-27v-46h-13zM1227 -284v99h9l28 -66v66h11v-99h-9l-28 67v-67h-11zM636 256l21 100h14l21 -100h-14l-4 26h-20l-5 -26h-13zM753 -284l22 99h13l21 -99h-13l-4 25h-21l-5 -25h-13zM997 -161l20 99h14l21 -99h-13l-5 25h-20l-5 -25h-12zM1194 445
l-8 152h26l-9 -152h-9zM846 -161q-14 -5 -24.5 2t-12.5 21q-1 6 -0.5 12t0.5 11v53h13v-44q0 -5 -0.5 -12.5t0 -15t3.5 -13t10 -5.5t10 5.5t4 13t0.5 15t-0.5 12.5v44h12v-45q0 -6 0.5 -14.5t-0.5 -16t-4.5 -14t-10.5 -9.5zM350 735q7 0 14 -0.5t14 1.5q11 3 13.5 11t2.5 17
q1 11 -1.5 21t-14.5 13q-7 2 -14 1.5t-14 -0.5v-64zM563 735h14t14 2q10 5 13 13.5t2 18.5q0 9 -2.5 16.5t-12.5 11.5q-7 2 -14 2h-14v-64zM285 -285q-13 0 -18.5 7t-7.5 17.5t-1.5 22.5t0.5 21q0 14 7 24.5t23 8.5t19 -13t3 -23h-13q0 5 0.5 9.5t-1.5 9.5q-2 6 -9.5 6.5
t-11.5 -4.5q-4 -6 -3 -17.5t1 -18.5t-1 -18t4 -17q3 -5 10.5 -4t9.5 7q2 5 1.5 10t-0.5 10h13q0 -14 -4 -26t-21 -12zM690 -285q-13 0 -18.5 7t-7 17.5t-1 22.5t0.5 21q0 14 6.5 24.5t22.5 8.5t19 -13t3 -23h-13q0 5 0.5 9.5t-1.5 9.5q-2 6 -9.5 6.5t-11.5 -4.5
q-5 -6 -4 -17.5t1 -18.5t-0.5 -18t4.5 -17q3 -5 10.5 -4t9.5 7q2 5 1.5 10t-0.5 10h13q0 -14 -4 -26t-21 -12zM953 255q-13 0 -19 8.5t-7 20.5l13 4q0 -5 2 -12t7 -9q7 -2 11 1.5t4 9.5q1 11 -8 18t-16 14q-9 8 -12.5 20.5t7.5 21.5q5 4 13 4.5t14 -1.5q7 -3 10 -10t4 -14
l-12 -3l-2 10t-6 8q-4 2 -9 0t-6 -7q-4 -8 2.5 -14l11.5 -11q6 -5 12.5 -11.5t8.5 -15.5q3 -12 -3 -22t-20 -10zM725 255q-13 0 -19 8.5t-7 20.5l12 4q0 -5 2 -12t7 -9q7 -2 11.5 1.5t4.5 9.5q0 11 -9 18t-16 14q-8 8 -11.5 20.5t7.5 21.5q5 4 13 4.5t14 -1.5q7 -3 10 -10
t4 -14l-12 -3l-2 10t-6 8q-5 2 -9.5 0t-6.5 -7q-3 -8 3 -14l11 -11q7 -5 13.5 -11.5t8.5 -15.5q3 -12 -3.5 -22t-19.5 -10zM1095 -285q-13 0 -19 8.5t-7 20.5l12 3q0 -5 2 -11.5t7 -8.5q7 -3 11.5 0.5t4.5 9.5q0 11 -9 18.5l-16 13.5q-8 8 -11.5 21t7.5 21q5 5 13 5.5
t14 -2.5q7 -2 10 -9t4 -14l-12 -4l-2 10.5t-6 7.5t-9.5 0.5t-6.5 -6.5q-3 -8 3 -14l11 -11q7 -6 13.5 -12.5t8.5 -15.5q3 -12 -3.5 -21.5t-19.5 -9.5zM855 256l-22 100h13l15 -73l16 73h12l-22 -100h-12zM914 -284l-23 99h13l16 -73l14 73h13l-22 -99h-11zM759 256v100h39
v-10h-24v-33h20v-10h-20v-37h25v-10h-40zM683 -161v99h39v-10h-24v-33h20v-10h-20v-37h24v-9h-39zM958 -284v99h39v-10h-25v-32h20v-10h-20v-37h25v-10h-39zM552 -284v99h38v-10h-25v-32h21v-10h-21v-37h25v-10h-38zM591 256v100h39v-10h-25v-33h20v-10h-20v-37h25v-10h-39z
M426 -150q9 -4 13 -1t5.5 9t1.5 13.5v12.5q0 8 1 23.5t-7 19.5q-10 5 -15 -1.5t-5 -14.5v-16q0 -3 -0.5 -10t-0.5 -14t1.5 -13t5.5 -8zM1179 -272q8 -4 12.5 -1.5t6 8.5t1.5 13.5v12.5q0 4 0.5 10.5t0 13t-2 12t-5.5 7.5q-10 5 -14.5 -1.5t-4.5 -14.5v-15q0 -3 -0.5 -10
t-0.5 -14.5t1.5 -13.5t5.5 -7zM342 -272q8 -4 12.5 -1.5t6 8.5t1.5 13.5v12.5q0 4 0.5 10.5t0.5 13t-1.5 12t-5.5 7.5q-11 5 -15.5 -1.5t-4.5 -14.5q-1 -4 -0.5 -7.5t0.5 -7.5q0 -3 -0.5 -10t-0.5 -14.5t1.5 -13.5t5.5 -7zM359 -161v99h39v-10h-24v-33h19v-10h-19v-46h-15z
M762 -161v99h38v-10h-25v-33h19v-10h-19v-46h-13zM1141 -152q8 0 14.5 1.5t8.5 12.5v26v25q-1 11 -7.5 13t-15.5 2v-80zM576 -161v89h-18v10h50v-10h-18v-89h-14zM1029 256v90h-18v10h49v-10h-17v-90h-14zM820 -284v99h13v-89h26v-10h-39zM877 -161v99h13v-90h25v-9h-38z
M925 -161v99h14v-90h25v-9h-39zM543 256v100h13v-90h25v-10h-38zM900 256v100h14v-100h-14zM1057 693h33l-17 88zM358 -7h36v40h-36v-40zM1040 175q5 0 11.5 0.5t10.5 -3.5q5 -8 4.5 -24.5t-5.5 -24.5q-5 -5 -10.5 -5h-10.5v57zM729 -284v99h14v-99h-14zM1130 -284v99h14
v-99h-14zM988 256v100h14v-100h-14zM1186 403v27h26v-27h-26zM498 312h7t8 2q5 2 6 7.5t1 10.5q-1 11 -7 12.5t-15 1.5v-34zM488 -105q9 0 15.5 3t6.5 14t-6 13.5t-16 2.5v-33zM1022 -227q9 0 15.5 2.5t6.5 13.5t-6.5 13.5t-15.5 2.5v-32zM616 -227q9 0 15 2.5t6 13.5
t-6 13.5t-15 2.5v-32zM773 -249h17l-8 45zM1016 -126h17l-8 45zM655 292h17l-8 45zM927 75l7 42l6 -42h-13zM821 -7q12 0 22 5q12 7 19 21t8.5 30.5t-3.5 32t-15 24.5q15 12 17 28q2 13 0.5 26t-7 23.5t-16 17t-25.5 6.5h-47v-214h47zM810 94h10.5t9.5 -5q3 -4 4.5 -12.5
t2 -18t-1 -18t-4.5 -12.5t-9.5 -3.5t-11.5 0.5v69zM810 175q5 0 11.5 0.5t9.5 -3.5q6 -8 5.5 -24.5t-6.5 -24.5q-4 -5 -9.5 -5h-10.5v57zM1346 -7v77l-41 137h35l26 -93l25 93h34l-6.5 -23l-8 -27.5t-11.5 -37.5l-17 -53v-73h-36zM1155 207h-36v-214h78v31h-42v183z" />
    <glyph glyph-name="two" unicode="2" 
d="M173 207l-25 -134l-24 134h-35l-3 -214h32l1 87l17 -87h25l17 88l1 -88h32l-2 214h-36zM823 623q-21 0 -34.5 11t-16.5 31q-2 10 -2 19v19q0 20 -1 42t5 42q5 17 17 24.5t29 8.5t31 -5t20 -23q8 -19 7 -42t-1 -43q0 -11 -0.5 -22.5t-2.5 -22.5q-9 -39 -51 -39zM773 401
q-44 0 -52 42q-2 10 -1.5 19.5t0.5 19.5q0 20 -1 42t4 41q5 17 17 25t29 8q17 1 31 -5t21 -23q8 -19 6 -41.5t-2 -42.5v-23t-2 -22q-4 -20 -17 -30t-33 -10zM1052 207h-48v-214h36v94h10l14 -94h36l-18 103q15 13 18 38q1 13 -0.5 26t-7 23.5t-15.5 17t-25 6.5zM302 104
l-37 103h-27v-214h33v105l37 -105h27v214h-33v-103zM571 73h21v-14t-1.5 -18t-6 -14.5t-13.5 -2.5q-6 2 -8 7.5t-3 12.5t-0.5 14t0.5 12v51q0 11 -0.5 23t2.5 23q5 11 16 9q10 -3 11 -13q2 -8 1.5 -16t-0.5 -16h36q0 18 -2.5 39t-20.5 32q-11 6 -24 6.5t-24 -2.5
q-15 -5 -21.5 -17.5t-9.5 -26.5q-2 -15 -1.5 -30.5t0.5 -31.5q0 -15 -0.5 -29.5t1.5 -29.5q2 -13 6.5 -25t15.5 -19q11 -8 26.5 -7.5t25.5 10.5l1 -7h28v111h-56v-31zM917 207l-39 -214h36l8 50h23l8 -50h36l-38 214h-34zM536 625v194q18 0 38.5 0.5t36.5 -8.5
q11 -6 16.5 -19t5.5 -27.5t-6 -26.5t-18 -16l27 -97h-27l-25 91h-21v-91h-27zM482 104l-18 20l-11 10.5t-8 13.5q-3 8 -0.5 18.5t13.5 9.5q6 -1 8.5 -5.5t3.5 -11t1.5 -13t0.5 -10.5l33 2q0 19 -4.5 38.5t-22.5 28.5q-12 5 -23.5 4t-21 -6.5t-16 -15t-7.5 -21.5
q-2 -13 0 -25.5t10 -23.5q3 -6 8 -10.5t9 -9.5l23 -25t12 -30q0 -5 -1.5 -11t-7.5 -7q-9 -3 -14 8q-5 8 -5.5 18t-1.5 20l-33 -3q0 -13 1.5 -25.5t6.5 -25.5q8 -15 22 -21.5t30 -3.5q17 3 26.5 15.5t11.5 27.5q2 20 -4.5 38t-20.5 32zM323 625v194h42q14 0 27 -3.5t21 -17.5
q8 -17 7 -39t-16 -34q-11 -9 -25.5 -9.5t-28.5 -0.5v-90h-27zM1250 88h34v30h-34v57h42v32h-78v-214h78v31h-42v64zM852 403v194h18l56 -129v129h23v-194h-18l-56 132v-132h-23zM904 625v194h18l55 -129v129h22v-194h-17l-56 132v-132h-22zM398 404q-18 -7 -38.5 -1
t-28.5 26q-5 11 -5.5 22.5t-0.5 24.5v121h26v-129q0 -11 1.5 -25.5t15.5 -19.5q10 -4 17 -1t11 10t5.5 15.5t1.5 16.5q1 16 0.5 31t-0.5 31v71h26v-89q0 -12 1 -28t-1.5 -31t-9 -27.5t-21.5 -17.5zM1019 625l42 194h25l41 -194h-25l-9 48h-40l-9 -48h-25zM503 401
q-25 0 -37.5 16.5t-13.5 40.5l24 6q1 -9 2.5 -18.5t8.5 -16.5q6 -6 15 -6.5t16 4.5q8 7 7 18.5t-6 19.5q-4 6 -9.5 11l-11.5 10q-9 9 -20 18t-18 20q-12 19 -6.5 42.5t27.5 30.5q11 3 24.5 2t22.5 -8q10 -8 13.5 -19.5t4.5 -22.5l-22 -7q-1 11 -4.5 22.5t-16.5 13.5
q-9 1 -16.5 -3t-9.5 -14q-2 -8 0.5 -14.5t7.5 -12.5t11.5 -11l11.5 -9q13 -11 24.5 -23.5t15.5 -29.5q5 -23 -7.5 -41.5t-37.5 -18.5zM706 623q-24 0 -37 16.5t-14 39.5l24 6q1 -9 3 -18.5t8 -15.5t15 -7t16 5q8 7 7 18.5t-6 19.5q-4 6 -9.5 11l-11.5 10l-20 17t-18 20
q-6 10 -7.5 21.5t1 22t9.5 18.5t18 11t24.5 2t22.5 -8q10 -7 13.5 -19t4.5 -23l-22 -6q-1 11 -4.5 22.5t-16.5 13.5q-9 1 -16.5 -3.5t-9.5 -13.5q-3 -17 8.5 -28t22.5 -20q13 -11 24.5 -23t15.5 -29q5 -23 -7.5 -41.5t-37.5 -18.5zM643 -34h32l59 268h-34zM439 625v194h75
v-20h-48v-64h39v-20h-39v-71h49v-19h-76zM571 403v194h75v-20h-48v-64h39v-19h-39v-72h48v-19h-75zM811 646q12 -5 26 0q7 4 9 10.5t3 13.5v23v67q0 8 -0.5 17t-6.5 16q-5 5 -11.5 6.5t-12.5 -0.5q-14 -1 -19 -17q-4 -14 -2.5 -31t1.5 -31v-36q0 -10 1 -21.5t12 -16.5z
M759 424q5 -2 13 -2t13 2q7 4 9.5 11t3.5 14q1 5 0.5 11t-0.5 11v68q0 8 -0.5 17t-6.5 15q-5 5 -11.5 6.5t-13.5 0.5q-14 -3 -18 -18q-3 -14 -2 -30.5t1 -31.5v-35q0 -11 1 -22.5t11 -16.5zM1103 403v41q0 7 1 14.5t-1 14.5q-2 10 -5.5 19t-7.5 18l-28 87h25l30 -93l28 93
h26l-12.5 -40l-13.5 -40l-14 -41q-2 -6 -2 -12.5v-12.5v-48h-26zM1147 625v194h27v-175h50v-19h-77zM979 403v194h27v-175h49v-19h-76zM433 -162q-11 0 -17 5.5t-8.5 13.5t-2.5 17.5v17.5t0.5 17t3.5 15.5t9 11t18 3.5q10 -1 15 -6t7.5 -12.5t2.5 -16.5v-16q0 -8 -0.5 -16.5
t-3 -16t-8 -12.5t-16.5 -5zM1127 -161v99q10 0 22.5 0.5t20.5 -6.5q8 -8 8 -20.5v-23.5v-23.5t-10 -20.5q-8 -6 -20 -5.5t-21 0.5zM1185 -285q-11 0 -17 5.5t-8 13.5t-2 17.5v17.5q0 9 0.5 17.5t3.5 15.5t9 11t18 3q10 -1 15 -6t6.5 -12.5t1.5 -16.5v-16v-16.5t-2.5 -16
t-8 -12.5t-16.5 -5zM349 -285q-12 0 -17.5 5.5t-7.5 13.5t-2 17.5v17.5q0 9 0.5 17.5t3.5 15.5t9 11t17 3q10 -1 15 -6t7 -12.5t2 -16.5v-16v-16.5t-2.5 -16t-8 -12.5t-16.5 -5zM601 -284v99q9 0 19.5 1t18.5 -4q6 -3 9 -9.5t3 -14t-3 -14t-10 -8.5l15 -50h-14l-12 47h-11
v-47h-15zM389 -284l2 99h14l18 -80l17 80h13l2 -99h-11l-1 72l-17 -72h-8l-16 72l-1 -72h-12zM470 -284l2 99h14l17 -80l18 80h14l1 -99h-10l-2 72l-17 -72h-8l-16 72l-2 -72h-11zM1008 -284v99q9 0 19 1t18 -4q6 -3 9 -9.5t3 -14t-3 -14t-9 -8.5l14 -50h-14l-12 47h-11v-47
h-14zM474 -161v99q9 0 19 1t18 -4q6 -3 9 -10t3.5 -14.5t-2.5 -14t-10 -8.5l14 -49h-13l-14 46h-10v-46h-14zM484 256v100h25.5t20.5 -11q4 -8 3.5 -19.5t-8.5 -17.5q-6 -5 -13 -5.5t-14 -0.5v-46h-14zM1062 -161v99h9l28 -66v66h12v-99h-9l-28 67v-67h-12zM615 -161v99h13
v-43h27v43h13v-99h-13v46h-27v-46h-13zM1227 -284v99h9l28 -66v66h11v-99h-9l-28 67v-67h-11zM636 256l21 100h14l21 -100h-14l-4 26h-20l-5 -26h-13zM753 -284l22 99h13l21 -99h-13l-4 25h-21l-5 -25h-13zM997 -161l20 99h14l21 -99h-13l-5 25h-20l-5 -25h-12zM1194 445
l-8 152h26l-9 -152h-9zM846 -161q-14 -5 -24.5 2t-12.5 21q-1 6 -0.5 12t0.5 11v53h13v-44q0 -5 -0.5 -12.5t0 -15t3.5 -13t10 -5.5t10 5.5t4 13t0.5 15t-0.5 12.5v44h12v-45q0 -6 0.5 -14.5t-0.5 -16t-4.5 -14t-10.5 -9.5zM350 735q7 0 14 -0.5t14 1.5q11 3 13.5 11t2.5 17
q1 11 -1.5 21t-14.5 13q-7 2 -14 1.5t-14 -0.5v-64zM563 735h14t14 2q10 5 13 13.5t2 18.5q0 9 -2.5 16.5t-12.5 11.5q-7 2 -14 2h-14v-64zM285 -285q-13 0 -18.5 7t-7.5 17.5t-1.5 22.5t0.5 21q0 14 7 24.5t23 8.5t19 -13t3 -23h-13q0 5 0.5 9.5t-1.5 9.5q-2 6 -9.5 6.5
t-11.5 -4.5q-4 -6 -3 -17.5t1 -18.5t-1 -18t4 -17q3 -5 10.5 -4t9.5 7q2 5 1.5 10t-0.5 10h13q0 -14 -4 -26t-21 -12zM690 -285q-13 0 -18.5 7t-7 17.5t-1 22.5t0.5 21q0 14 6.5 24.5t22.5 8.5t19 -13t3 -23h-13q0 5 0.5 9.5t-1.5 9.5q-2 6 -9.5 6.5t-11.5 -4.5
q-5 -6 -4 -17.5t1 -18.5t-0.5 -18t4.5 -17q3 -5 10.5 -4t9.5 7q2 5 1.5 10t-0.5 10h13q0 -14 -4 -26t-21 -12zM953 255q-13 0 -19 8.5t-7 20.5l13 4q0 -5 2 -12t7 -9q7 -2 11 1.5t4 9.5q1 11 -8 18t-16 14q-9 8 -12.5 20.5t7.5 21.5q5 4 13 4.5t14 -1.5q7 -3 10 -10t4 -14
l-12 -3l-2 10t-6 8q-4 2 -9 0t-6 -7q-4 -8 2.5 -14l11.5 -11q6 -5 12.5 -11.5t8.5 -15.5q3 -12 -3 -22t-20 -10zM725 255q-13 0 -19 8.5t-7 20.5l12 4q0 -5 2 -12t7 -9q7 -2 11.5 1.5t4.5 9.5q0 11 -9 18t-16 14q-8 8 -11.5 20.5t7.5 21.5q5 4 13 4.5t14 -1.5q7 -3 10 -10
t4 -14l-12 -3l-2 10t-6 8q-5 2 -9.5 0t-6.5 -7q-3 -8 3 -14l11 -11q7 -5 13.5 -11.5t8.5 -15.5q3 -12 -3.5 -22t-19.5 -10zM1095 -285q-13 0 -19 8.5t-7 20.5l12 3q0 -5 2 -11.5t7 -8.5q7 -3 11.5 0.5t4.5 9.5q0 11 -9 18.5l-16 13.5q-8 8 -11.5 21t7.5 21q5 5 13 5.5
t14 -2.5q7 -2 10 -9t4 -14l-12 -4l-2 10.5t-6 7.5t-9.5 0.5t-6.5 -6.5q-3 -8 3 -14l11 -11q7 -6 13.5 -12.5t8.5 -15.5q3 -12 -3.5 -21.5t-19.5 -9.5zM855 256l-22 100h13l15 -73l16 73h12l-22 -100h-12zM914 -284l-23 99h13l16 -73l14 73h13l-22 -99h-11zM759 256v100h39
v-10h-24v-33h20v-10h-20v-37h25v-10h-40zM683 -161v99h39v-10h-24v-33h20v-10h-20v-37h24v-9h-39zM958 -284v99h39v-10h-25v-32h20v-10h-20v-37h25v-10h-39zM552 -284v99h38v-10h-25v-32h21v-10h-21v-37h25v-10h-38zM591 256v100h39v-10h-25v-33h20v-10h-20v-37h25v-10h-39z
M426 -150q9 -4 13 -1t5.5 9t1.5 13.5v12.5q0 8 1 23.5t-7 19.5q-10 5 -15 -1.5t-5 -14.5v-16q0 -3 -0.5 -10t-0.5 -14t1.5 -13t5.5 -8zM1179 -272q8 -4 12.5 -1.5t6 8.5t1.5 13.5v12.5q0 4 0.5 10.5t0 13t-2 12t-5.5 7.5q-10 5 -14.5 -1.5t-4.5 -14.5v-15q0 -3 -0.5 -10
t-0.5 -14.5t1.5 -13.5t5.5 -7zM342 -272q8 -4 12.5 -1.5t6 8.5t1.5 13.5v12.5q0 4 0.5 10.5t0.5 13t-1.5 12t-5.5 7.5q-11 5 -15.5 -1.5t-4.5 -14.5q-1 -4 -0.5 -7.5t0.5 -7.5q0 -3 -0.5 -10t-0.5 -14.5t1.5 -13.5t5.5 -7zM359 -161v99h39v-10h-24v-33h19v-10h-19v-46h-15z
M762 -161v99h38v-10h-25v-33h19v-10h-19v-46h-13zM1141 -152q8 0 14.5 1.5t8.5 12.5v26v25q-1 11 -7.5 13t-15.5 2v-80zM576 -161v89h-18v10h50v-10h-18v-89h-14zM1029 256v90h-18v10h49v-10h-17v-90h-14zM820 -284v99h13v-89h26v-10h-39zM877 -161v99h13v-90h25v-9h-38z
M925 -161v99h14v-90h25v-9h-39zM543 256v100h13v-90h25v-10h-38zM900 256v100h14v-100h-14zM1057 693h33l-17 88zM358 -7h36v40h-36v-40zM1040 175q5 0 11.5 0.5t10.5 -3.5q5 -8 4.5 -24.5t-5.5 -24.5q-5 -5 -10.5 -5h-10.5v57zM729 -284v99h14v-99h-14zM1130 -284v99h14
v-99h-14zM988 256v100h14v-100h-14zM1186 403v27h26v-27h-26zM498 312h7t8 2q5 2 6 7.5t1 10.5q-1 11 -7 12.5t-15 1.5v-34zM488 -105q9 0 15.5 3t6.5 14t-6 13.5t-16 2.5v-33zM1022 -227q9 0 15.5 2.5t6.5 13.5t-6.5 13.5t-15.5 2.5v-32zM616 -227q9 0 15 2.5t6 13.5
t-6 13.5t-15 2.5v-32zM773 -249h17l-8 45zM1016 -126h17l-8 45zM655 292h17l-8 45zM927 75l7 42l6 -42h-13zM821 -7q12 0 22 5q12 7 19 21t8.5 30.5t-3.5 32t-15 24.5q15 12 17 28q2 13 0.5 26t-7 23.5t-16 17t-25.5 6.5h-47v-214h47zM810 94h10.5t9.5 -5q3 -4 4.5 -12.5
t2 -18t-1 -18t-4.5 -12.5t-9.5 -3.5t-11.5 0.5v69zM810 175q5 0 11.5 0.5t9.5 -3.5q6 -8 5.5 -24.5t-6.5 -24.5q-4 -5 -9.5 -5h-10.5v57zM1346 -7v77l-41 137h35l26 -93l25 93h34l-6.5 -23l-8 -27.5t-11.5 -37.5l-17 -53v-73h-36zM1155 207h-36v-214h78v31h-42v183z" />
    <glyph glyph-name="three" unicode="3" 
d="M173 207l-25 -134l-24 134h-35l-3 -214h32l1 87l17 -87h25l17 88l1 -88h32l-2 214h-36zM823 623q-21 0 -34.5 11t-16.5 31q-2 10 -2 19v19q0 20 -1 42t5 42q5 17 17 24.5t29 8.5t31 -5t20 -23q8 -19 7 -42t-1 -43q0 -11 -0.5 -22.5t-2.5 -22.5q-9 -39 -51 -39zM773 401
q-44 0 -52 42q-2 10 -1.5 19.5t0.5 19.5q0 20 -1 42t4 41q5 17 17 25t29 8q17 1 31 -5t21 -23q8 -19 6 -41.5t-2 -42.5v-23t-2 -22q-4 -20 -17 -30t-33 -10zM1052 207h-48v-214h36v94h10l14 -94h36l-18 103q15 13 18 38q1 13 -0.5 26t-7 23.5t-15.5 17t-25 6.5zM302 104
l-37 103h-27v-214h33v105l37 -105h27v214h-33v-103zM571 73h21v-14t-1.5 -18t-6 -14.5t-13.5 -2.5q-6 2 -8 7.5t-3 12.5t-0.5 14t0.5 12v51q0 11 -0.5 23t2.5 23q5 11 16 9q10 -3 11 -13q2 -8 1.5 -16t-0.5 -16h36q0 18 -2.5 39t-20.5 32q-11 6 -24 6.5t-24 -2.5
q-15 -5 -21.5 -17.5t-9.5 -26.5q-2 -15 -1.5 -30.5t0.5 -31.5q0 -15 -0.5 -29.5t1.5 -29.5q2 -13 6.5 -25t15.5 -19q11 -8 26.5 -7.5t25.5 10.5l1 -7h28v111h-56v-31zM917 207l-39 -214h36l8 50h23l8 -50h36l-38 214h-34zM536 625v194q18 0 38.5 0.5t36.5 -8.5
q11 -6 16.5 -19t5.5 -27.5t-6 -26.5t-18 -16l27 -97h-27l-25 91h-21v-91h-27zM482 104l-18 20l-11 10.5t-8 13.5q-3 8 -0.5 18.5t13.5 9.5q6 -1 8.5 -5.5t3.5 -11t1.5 -13t0.5 -10.5l33 2q0 19 -4.5 38.5t-22.5 28.5q-12 5 -23.5 4t-21 -6.5t-16 -15t-7.5 -21.5
q-2 -13 0 -25.5t10 -23.5q3 -6 8 -10.5t9 -9.5l23 -25t12 -30q0 -5 -1.5 -11t-7.5 -7q-9 -3 -14 8q-5 8 -5.5 18t-1.5 20l-33 -3q0 -13 1.5 -25.5t6.5 -25.5q8 -15 22 -21.5t30 -3.5q17 3 26.5 15.5t11.5 27.5q2 20 -4.5 38t-20.5 32zM323 625v194h42q14 0 27 -3.5t21 -17.5
q8 -17 7 -39t-16 -34q-11 -9 -25.5 -9.5t-28.5 -0.5v-90h-27zM1250 88h34v30h-34v57h42v32h-78v-214h78v31h-42v64zM852 403v194h18l56 -129v129h23v-194h-18l-56 132v-132h-23zM904 625v194h18l55 -129v129h22v-194h-17l-56 132v-132h-22zM398 404q-18 -7 -38.5 -1
t-28.5 26q-5 11 -5.5 22.5t-0.5 24.5v121h26v-129q0 -11 1.5 -25.5t15.5 -19.5q10 -4 17 -1t11 10t5.5 15.5t1.5 16.5q1 16 0.5 31t-0.5 31v71h26v-89q0 -12 1 -28t-1.5 -31t-9 -27.5t-21.5 -17.5zM1019 625l42 194h25l41 -194h-25l-9 48h-40l-9 -48h-25zM503 401
q-25 0 -37.5 16.5t-13.5 40.5l24 6q1 -9 2.5 -18.5t8.5 -16.5q6 -6 15 -6.5t16 4.5q8 7 7 18.5t-6 19.5q-4 6 -9.5 11l-11.5 10q-9 9 -20 18t-18 20q-12 19 -6.5 42.5t27.5 30.5q11 3 24.5 2t22.5 -8q10 -8 13.5 -19.5t4.5 -22.5l-22 -7q-1 11 -4.5 22.5t-16.5 13.5
q-9 1 -16.5 -3t-9.5 -14q-2 -8 0.5 -14.5t7.5 -12.5t11.5 -11l11.5 -9q13 -11 24.5 -23.5t15.5 -29.5q5 -23 -7.5 -41.5t-37.5 -18.5zM706 623q-24 0 -37 16.5t-14 39.5l24 6q1 -9 3 -18.5t8 -15.5t15 -7t16 5q8 7 7 18.5t-6 19.5q-4 6 -9.5 11l-11.5 10l-20 17t-18 20
q-6 10 -7.5 21.5t1 22t9.5 18.5t18 11t24.5 2t22.5 -8q10 -7 13.5 -19t4.5 -23l-22 -6q-1 11 -4.5 22.5t-16.5 13.5q-9 1 -16.5 -3.5t-9.5 -13.5q-3 -17 8.5 -28t22.5 -20q13 -11 24.5 -23t15.5 -29q5 -23 -7.5 -41.5t-37.5 -18.5zM643 -34h32l59 268h-34zM439 625v194h75
v-20h-48v-64h39v-20h-39v-71h49v-19h-76zM571 403v194h75v-20h-48v-64h39v-19h-39v-72h48v-19h-75zM811 646q12 -5 26 0q7 4 9 10.5t3 13.5v23v67q0 8 -0.5 17t-6.5 16q-5 5 -11.5 6.5t-12.5 -0.5q-14 -1 -19 -17q-4 -14 -2.5 -31t1.5 -31v-36q0 -10 1 -21.5t12 -16.5z
M759 424q5 -2 13 -2t13 2q7 4 9.5 11t3.5 14q1 5 0.5 11t-0.5 11v68q0 8 -0.5 17t-6.5 15q-5 5 -11.5 6.5t-13.5 0.5q-14 -3 -18 -18q-3 -14 -2 -30.5t1 -31.5v-35q0 -11 1 -22.5t11 -16.5zM1103 403v41q0 7 1 14.5t-1 14.5q-2 10 -5.5 19t-7.5 18l-28 87h25l30 -93l28 93
h26l-12.5 -40l-13.5 -40l-14 -41q-2 -6 -2 -12.5v-12.5v-48h-26zM1147 625v194h27v-175h50v-19h-77zM979 403v194h27v-175h49v-19h-76zM433 -162q-11 0 -17 5.5t-8.5 13.5t-2.5 17.5v17.5t0.5 17t3.5 15.5t9 11t18 3.5q10 -1 15 -6t7.5 -12.5t2.5 -16.5v-16q0 -8 -0.5 -16.5
t-3 -16t-8 -12.5t-16.5 -5zM1127 -161v99q10 0 22.5 0.5t20.5 -6.5q8 -8 8 -20.5v-23.5v-23.5t-10 -20.5q-8 -6 -20 -5.5t-21 0.5zM1185 -285q-11 0 -17 5.5t-8 13.5t-2 17.5v17.5q0 9 0.5 17.5t3.5 15.5t9 11t18 3q10 -1 15 -6t6.5 -12.5t1.5 -16.5v-16v-16.5t-2.5 -16
t-8 -12.5t-16.5 -5zM349 -285q-12 0 -17.5 5.5t-7.5 13.5t-2 17.5v17.5q0 9 0.5 17.5t3.5 15.5t9 11t17 3q10 -1 15 -6t7 -12.5t2 -16.5v-16v-16.5t-2.5 -16t-8 -12.5t-16.5 -5zM601 -284v99q9 0 19.5 1t18.5 -4q6 -3 9 -9.5t3 -14t-3 -14t-10 -8.5l15 -50h-14l-12 47h-11
v-47h-15zM389 -284l2 99h14l18 -80l17 80h13l2 -99h-11l-1 72l-17 -72h-8l-16 72l-1 -72h-12zM470 -284l2 99h14l17 -80l18 80h14l1 -99h-10l-2 72l-17 -72h-8l-16 72l-2 -72h-11zM1008 -284v99q9 0 19 1t18 -4q6 -3 9 -9.5t3 -14t-3 -14t-9 -8.5l14 -50h-14l-12 47h-11v-47
h-14zM474 -161v99q9 0 19 1t18 -4q6 -3 9 -10t3.5 -14.5t-2.5 -14t-10 -8.5l14 -49h-13l-14 46h-10v-46h-14zM484 256v100h25.5t20.5 -11q4 -8 3.5 -19.5t-8.5 -17.5q-6 -5 -13 -5.5t-14 -0.5v-46h-14zM1062 -161v99h9l28 -66v66h12v-99h-9l-28 67v-67h-12zM615 -161v99h13
v-43h27v43h13v-99h-13v46h-27v-46h-13zM1227 -284v99h9l28 -66v66h11v-99h-9l-28 67v-67h-11zM636 256l21 100h14l21 -100h-14l-4 26h-20l-5 -26h-13zM753 -284l22 99h13l21 -99h-13l-4 25h-21l-5 -25h-13zM997 -161l20 99h14l21 -99h-13l-5 25h-20l-5 -25h-12zM1194 445
l-8 152h26l-9 -152h-9zM846 -161q-14 -5 -24.5 2t-12.5 21q-1 6 -0.5 12t0.5 11v53h13v-44q0 -5 -0.5 -12.5t0 -15t3.5 -13t10 -5.5t10 5.5t4 13t0.5 15t-0.5 12.5v44h12v-45q0 -6 0.5 -14.5t-0.5 -16t-4.5 -14t-10.5 -9.5zM350 735q7 0 14 -0.5t14 1.5q11 3 13.5 11t2.5 17
q1 11 -1.5 21t-14.5 13q-7 2 -14 1.5t-14 -0.5v-64zM563 735h14t14 2q10 5 13 13.5t2 18.5q0 9 -2.5 16.5t-12.5 11.5q-7 2 -14 2h-14v-64zM285 -285q-13 0 -18.5 7t-7.5 17.5t-1.5 22.5t0.5 21q0 14 7 24.5t23 8.5t19 -13t3 -23h-13q0 5 0.5 9.5t-1.5 9.5q-2 6 -9.5 6.5
t-11.5 -4.5q-4 -6 -3 -17.5t1 -18.5t-1 -18t4 -17q3 -5 10.5 -4t9.5 7q2 5 1.5 10t-0.5 10h13q0 -14 -4 -26t-21 -12zM690 -285q-13 0 -18.5 7t-7 17.5t-1 22.5t0.5 21q0 14 6.5 24.5t22.5 8.5t19 -13t3 -23h-13q0 5 0.5 9.5t-1.5 9.5q-2 6 -9.5 6.5t-11.5 -4.5
q-5 -6 -4 -17.5t1 -18.5t-0.5 -18t4.5 -17q3 -5 10.5 -4t9.5 7q2 5 1.5 10t-0.5 10h13q0 -14 -4 -26t-21 -12zM953 255q-13 0 -19 8.5t-7 20.5l13 4q0 -5 2 -12t7 -9q7 -2 11 1.5t4 9.5q1 11 -8 18t-16 14q-9 8 -12.5 20.5t7.5 21.5q5 4 13 4.5t14 -1.5q7 -3 10 -10t4 -14
l-12 -3l-2 10t-6 8q-4 2 -9 0t-6 -7q-4 -8 2.5 -14l11.5 -11q6 -5 12.5 -11.5t8.5 -15.5q3 -12 -3 -22t-20 -10zM725 255q-13 0 -19 8.5t-7 20.5l12 4q0 -5 2 -12t7 -9q7 -2 11.5 1.5t4.5 9.5q0 11 -9 18t-16 14q-8 8 -11.5 20.5t7.5 21.5q5 4 13 4.5t14 -1.5q7 -3 10 -10
t4 -14l-12 -3l-2 10t-6 8q-5 2 -9.5 0t-6.5 -7q-3 -8 3 -14l11 -11q7 -5 13.5 -11.5t8.5 -15.5q3 -12 -3.5 -22t-19.5 -10zM1095 -285q-13 0 -19 8.5t-7 20.5l12 3q0 -5 2 -11.5t7 -8.5q7 -3 11.5 0.5t4.5 9.5q0 11 -9 18.5l-16 13.5q-8 8 -11.5 21t7.5 21q5 5 13 5.5
t14 -2.5q7 -2 10 -9t4 -14l-12 -4l-2 10.5t-6 7.5t-9.5 0.5t-6.5 -6.5q-3 -8 3 -14l11 -11q7 -6 13.5 -12.5t8.5 -15.5q3 -12 -3.5 -21.5t-19.5 -9.5zM855 256l-22 100h13l15 -73l16 73h12l-22 -100h-12zM914 -284l-23 99h13l16 -73l14 73h13l-22 -99h-11zM759 256v100h39
v-10h-24v-33h20v-10h-20v-37h25v-10h-40zM683 -161v99h39v-10h-24v-33h20v-10h-20v-37h24v-9h-39zM958 -284v99h39v-10h-25v-32h20v-10h-20v-37h25v-10h-39zM552 -284v99h38v-10h-25v-32h21v-10h-21v-37h25v-10h-38zM591 256v100h39v-10h-25v-33h20v-10h-20v-37h25v-10h-39z
M426 -150q9 -4 13 -1t5.5 9t1.5 13.5v12.5q0 8 1 23.5t-7 19.5q-10 5 -15 -1.5t-5 -14.5v-16q0 -3 -0.5 -10t-0.5 -14t1.5 -13t5.5 -8zM1179 -272q8 -4 12.5 -1.5t6 8.5t1.5 13.5v12.5q0 4 0.5 10.5t0 13t-2 12t-5.5 7.5q-10 5 -14.5 -1.5t-4.5 -14.5v-15q0 -3 -0.5 -10
t-0.5 -14.5t1.5 -13.5t5.5 -7zM342 -272q8 -4 12.5 -1.5t6 8.5t1.5 13.5v12.5q0 4 0.5 10.5t0.5 13t-1.5 12t-5.5 7.5q-11 5 -15.5 -1.5t-4.5 -14.5q-1 -4 -0.5 -7.5t0.5 -7.5q0 -3 -0.5 -10t-0.5 -14.5t1.5 -13.5t5.5 -7zM359 -161v99h39v-10h-24v-33h19v-10h-19v-46h-15z
M762 -161v99h38v-10h-25v-33h19v-10h-19v-46h-13zM1141 -152q8 0 14.5 1.5t8.5 12.5v26v25q-1 11 -7.5 13t-15.5 2v-80zM576 -161v89h-18v10h50v-10h-18v-89h-14zM1029 256v90h-18v10h49v-10h-17v-90h-14zM820 -284v99h13v-89h26v-10h-39zM877 -161v99h13v-90h25v-9h-38z
M925 -161v99h14v-90h25v-9h-39zM543 256v100h13v-90h25v-10h-38zM900 256v100h14v-100h-14zM1057 693h33l-17 88zM358 -7h36v40h-36v-40zM1040 175q5 0 11.5 0.5t10.5 -3.5q5 -8 4.5 -24.5t-5.5 -24.5q-5 -5 -10.5 -5h-10.5v57zM729 -284v99h14v-99h-14zM1130 -284v99h14
v-99h-14zM988 256v100h14v-100h-14zM1186 403v27h26v-27h-26zM498 312h7t8 2q5 2 6 7.5t1 10.5q-1 11 -7 12.5t-15 1.5v-34zM488 -105q9 0 15.5 3t6.5 14t-6 13.5t-16 2.5v-33zM1022 -227q9 0 15.5 2.5t6.5 13.5t-6.5 13.5t-15.5 2.5v-32zM616 -227q9 0 15 2.5t6 13.5
t-6 13.5t-15 2.5v-32zM773 -249h17l-8 45zM1016 -126h17l-8 45zM655 292h17l-8 45zM927 75l7 42l6 -42h-13zM821 -7q12 0 22 5q12 7 19 21t8.5 30.5t-3.5 32t-15 24.5q15 12 17 28q2 13 0.5 26t-7 23.5t-16 17t-25.5 6.5h-47v-214h47zM810 94h10.5t9.5 -5q3 -4 4.5 -12.5
t2 -18t-1 -18t-4.5 -12.5t-9.5 -3.5t-11.5 0.5v69zM810 175q5 0 11.5 0.5t9.5 -3.5q6 -8 5.5 -24.5t-6.5 -24.5q-4 -5 -9.5 -5h-10.5v57zM1346 -7v77l-41 137h35l26 -93l25 93h34l-6.5 -23l-8 -27.5t-11.5 -37.5l-17 -53v-73h-36zM1155 207h-36v-214h78v31h-42v183z" />
    <glyph glyph-name="four" unicode="4" 
d="M173 207l-25 -134l-24 134h-35l-3 -214h32l1 87l17 -87h25l17 88l1 -88h32l-2 214h-36zM823 623q-21 0 -34.5 11t-16.5 31q-2 10 -2 19v19q0 20 -1 42t5 42q5 17 17 24.5t29 8.5t31 -5t20 -23q8 -19 7 -42t-1 -43q0 -11 -0.5 -22.5t-2.5 -22.5q-9 -39 -51 -39zM773 401
q-44 0 -52 42q-2 10 -1.5 19.5t0.5 19.5q0 20 -1 42t4 41q5 17 17 25t29 8q17 1 31 -5t21 -23q8 -19 6 -41.5t-2 -42.5v-23t-2 -22q-4 -20 -17 -30t-33 -10zM1052 207h-48v-214h36v94h10l14 -94h36l-18 103q15 13 18 38q1 13 -0.5 26t-7 23.5t-15.5 17t-25 6.5zM302 104
l-37 103h-27v-214h33v105l37 -105h27v214h-33v-103zM571 73h21v-14t-1.5 -18t-6 -14.5t-13.5 -2.5q-6 2 -8 7.5t-3 12.5t-0.5 14t0.5 12v51q0 11 -0.5 23t2.5 23q5 11 16 9q10 -3 11 -13q2 -8 1.5 -16t-0.5 -16h36q0 18 -2.5 39t-20.5 32q-11 6 -24 6.5t-24 -2.5
q-15 -5 -21.5 -17.5t-9.5 -26.5q-2 -15 -1.5 -30.5t0.5 -31.5q0 -15 -0.5 -29.5t1.5 -29.5q2 -13 6.5 -25t15.5 -19q11 -8 26.5 -7.5t25.5 10.5l1 -7h28v111h-56v-31zM917 207l-39 -214h36l8 50h23l8 -50h36l-38 214h-34zM536 625v194q18 0 38.5 0.5t36.5 -8.5
q11 -6 16.5 -19t5.5 -27.5t-6 -26.5t-18 -16l27 -97h-27l-25 91h-21v-91h-27zM482 104l-18 20l-11 10.5t-8 13.5q-3 8 -0.5 18.5t13.5 9.5q6 -1 8.5 -5.5t3.5 -11t1.5 -13t0.5 -10.5l33 2q0 19 -4.5 38.5t-22.5 28.5q-12 5 -23.5 4t-21 -6.5t-16 -15t-7.5 -21.5
q-2 -13 0 -25.5t10 -23.5q3 -6 8 -10.5t9 -9.5l23 -25t12 -30q0 -5 -1.5 -11t-7.5 -7q-9 -3 -14 8q-5 8 -5.5 18t-1.5 20l-33 -3q0 -13 1.5 -25.5t6.5 -25.5q8 -15 22 -21.5t30 -3.5q17 3 26.5 15.5t11.5 27.5q2 20 -4.5 38t-20.5 32zM323 625v194h42q14 0 27 -3.5t21 -17.5
q8 -17 7 -39t-16 -34q-11 -9 -25.5 -9.5t-28.5 -0.5v-90h-27zM1250 88h34v30h-34v57h42v32h-78v-214h78v31h-42v64zM852 403v194h18l56 -129v129h23v-194h-18l-56 132v-132h-23zM904 625v194h18l55 -129v129h22v-194h-17l-56 132v-132h-22zM398 404q-18 -7 -38.5 -1
t-28.5 26q-5 11 -5.5 22.5t-0.5 24.5v121h26v-129q0 -11 1.5 -25.5t15.5 -19.5q10 -4 17 -1t11 10t5.5 15.5t1.5 16.5q1 16 0.5 31t-0.5 31v71h26v-89q0 -12 1 -28t-1.5 -31t-9 -27.5t-21.5 -17.5zM1019 625l42 194h25l41 -194h-25l-9 48h-40l-9 -48h-25zM503 401
q-25 0 -37.5 16.5t-13.5 40.5l24 6q1 -9 2.5 -18.5t8.5 -16.5q6 -6 15 -6.5t16 4.5q8 7 7 18.5t-6 19.5q-4 6 -9.5 11l-11.5 10q-9 9 -20 18t-18 20q-12 19 -6.5 42.5t27.5 30.5q11 3 24.5 2t22.5 -8q10 -8 13.5 -19.5t4.5 -22.5l-22 -7q-1 11 -4.5 22.5t-16.5 13.5
q-9 1 -16.5 -3t-9.5 -14q-2 -8 0.5 -14.5t7.5 -12.5t11.5 -11l11.5 -9q13 -11 24.5 -23.5t15.5 -29.5q5 -23 -7.5 -41.5t-37.5 -18.5zM706 623q-24 0 -37 16.5t-14 39.5l24 6q1 -9 3 -18.5t8 -15.5t15 -7t16 5q8 7 7 18.5t-6 19.5q-4 6 -9.5 11l-11.5 10l-20 17t-18 20
q-6 10 -7.5 21.5t1 22t9.5 18.5t18 11t24.5 2t22.5 -8q10 -7 13.5 -19t4.5 -23l-22 -6q-1 11 -4.5 22.5t-16.5 13.5q-9 1 -16.5 -3.5t-9.5 -13.5q-3 -17 8.5 -28t22.5 -20q13 -11 24.5 -23t15.5 -29q5 -23 -7.5 -41.5t-37.5 -18.5zM643 -34h32l59 268h-34zM439 625v194h75
v-20h-48v-64h39v-20h-39v-71h49v-19h-76zM571 403v194h75v-20h-48v-64h39v-19h-39v-72h48v-19h-75zM811 646q12 -5 26 0q7 4 9 10.5t3 13.5v23v67q0 8 -0.5 17t-6.5 16q-5 5 -11.5 6.5t-12.5 -0.5q-14 -1 -19 -17q-4 -14 -2.5 -31t1.5 -31v-36q0 -10 1 -21.5t12 -16.5z
M759 424q5 -2 13 -2t13 2q7 4 9.5 11t3.5 14q1 5 0.5 11t-0.5 11v68q0 8 -0.5 17t-6.5 15q-5 5 -11.5 6.5t-13.5 0.5q-14 -3 -18 -18q-3 -14 -2 -30.5t1 -31.5v-35q0 -11 1 -22.5t11 -16.5zM1103 403v41q0 7 1 14.5t-1 14.5q-2 10 -5.5 19t-7.5 18l-28 87h25l30 -93l28 93
h26l-12.5 -40l-13.5 -40l-14 -41q-2 -6 -2 -12.5v-12.5v-48h-26zM1147 625v194h27v-175h50v-19h-77zM979 403v194h27v-175h49v-19h-76zM433 -162q-11 0 -17 5.5t-8.5 13.5t-2.5 17.5v17.5t0.5 17t3.5 15.5t9 11t18 3.5q10 -1 15 -6t7.5 -12.5t2.5 -16.5v-16q0 -8 -0.5 -16.5
t-3 -16t-8 -12.5t-16.5 -5zM1127 -161v99q10 0 22.5 0.5t20.5 -6.5q8 -8 8 -20.5v-23.5v-23.5t-10 -20.5q-8 -6 -20 -5.5t-21 0.5zM1185 -285q-11 0 -17 5.5t-8 13.5t-2 17.5v17.5q0 9 0.5 17.5t3.5 15.5t9 11t18 3q10 -1 15 -6t6.5 -12.5t1.5 -16.5v-16v-16.5t-2.5 -16
t-8 -12.5t-16.5 -5zM349 -285q-12 0 -17.5 5.5t-7.5 13.5t-2 17.5v17.5q0 9 0.5 17.5t3.5 15.5t9 11t17 3q10 -1 15 -6t7 -12.5t2 -16.5v-16v-16.5t-2.5 -16t-8 -12.5t-16.5 -5zM601 -284v99q9 0 19.5 1t18.5 -4q6 -3 9 -9.5t3 -14t-3 -14t-10 -8.5l15 -50h-14l-12 47h-11
v-47h-15zM389 -284l2 99h14l18 -80l17 80h13l2 -99h-11l-1 72l-17 -72h-8l-16 72l-1 -72h-12zM470 -284l2 99h14l17 -80l18 80h14l1 -99h-10l-2 72l-17 -72h-8l-16 72l-2 -72h-11zM1008 -284v99q9 0 19 1t18 -4q6 -3 9 -9.5t3 -14t-3 -14t-9 -8.5l14 -50h-14l-12 47h-11v-47
h-14zM474 -161v99q9 0 19 1t18 -4q6 -3 9 -10t3.5 -14.5t-2.5 -14t-10 -8.5l14 -49h-13l-14 46h-10v-46h-14zM484 256v100h25.5t20.5 -11q4 -8 3.5 -19.5t-8.5 -17.5q-6 -5 -13 -5.5t-14 -0.5v-46h-14zM1062 -161v99h9l28 -66v66h12v-99h-9l-28 67v-67h-12zM615 -161v99h13
v-43h27v43h13v-99h-13v46h-27v-46h-13zM1227 -284v99h9l28 -66v66h11v-99h-9l-28 67v-67h-11zM636 256l21 100h14l21 -100h-14l-4 26h-20l-5 -26h-13zM753 -284l22 99h13l21 -99h-13l-4 25h-21l-5 -25h-13zM997 -161l20 99h14l21 -99h-13l-5 25h-20l-5 -25h-12zM1194 445
l-8 152h26l-9 -152h-9zM846 -161q-14 -5 -24.5 2t-12.5 21q-1 6 -0.5 12t0.5 11v53h13v-44q0 -5 -0.5 -12.5t0 -15t3.5 -13t10 -5.5t10 5.5t4 13t0.5 15t-0.5 12.5v44h12v-45q0 -6 0.5 -14.5t-0.5 -16t-4.5 -14t-10.5 -9.5zM350 735q7 0 14 -0.5t14 1.5q11 3 13.5 11t2.5 17
q1 11 -1.5 21t-14.5 13q-7 2 -14 1.5t-14 -0.5v-64zM563 735h14t14 2q10 5 13 13.5t2 18.5q0 9 -2.5 16.5t-12.5 11.5q-7 2 -14 2h-14v-64zM285 -285q-13 0 -18.5 7t-7.5 17.5t-1.5 22.5t0.5 21q0 14 7 24.5t23 8.5t19 -13t3 -23h-13q0 5 0.5 9.5t-1.5 9.5q-2 6 -9.5 6.5
t-11.5 -4.5q-4 -6 -3 -17.5t1 -18.5t-1 -18t4 -17q3 -5 10.5 -4t9.5 7q2 5 1.5 10t-0.5 10h13q0 -14 -4 -26t-21 -12zM690 -285q-13 0 -18.5 7t-7 17.5t-1 22.5t0.5 21q0 14 6.5 24.5t22.5 8.5t19 -13t3 -23h-13q0 5 0.5 9.5t-1.5 9.5q-2 6 -9.5 6.5t-11.5 -4.5
q-5 -6 -4 -17.5t1 -18.5t-0.5 -18t4.5 -17q3 -5 10.5 -4t9.5 7q2 5 1.5 10t-0.5 10h13q0 -14 -4 -26t-21 -12zM953 255q-13 0 -19 8.5t-7 20.5l13 4q0 -5 2 -12t7 -9q7 -2 11 1.5t4 9.5q1 11 -8 18t-16 14q-9 8 -12.5 20.5t7.5 21.5q5 4 13 4.5t14 -1.5q7 -3 10 -10t4 -14
l-12 -3l-2 10t-6 8q-4 2 -9 0t-6 -7q-4 -8 2.5 -14l11.5 -11q6 -5 12.5 -11.5t8.5 -15.5q3 -12 -3 -22t-20 -10zM725 255q-13 0 -19 8.5t-7 20.5l12 4q0 -5 2 -12t7 -9q7 -2 11.5 1.5t4.5 9.5q0 11 -9 18t-16 14q-8 8 -11.5 20.5t7.5 21.5q5 4 13 4.5t14 -1.5q7 -3 10 -10
t4 -14l-12 -3l-2 10t-6 8q-5 2 -9.5 0t-6.5 -7q-3 -8 3 -14l11 -11q7 -5 13.5 -11.5t8.5 -15.5q3 -12 -3.5 -22t-19.5 -10zM1095 -285q-13 0 -19 8.5t-7 20.5l12 3q0 -5 2 -11.5t7 -8.5q7 -3 11.5 0.5t4.5 9.5q0 11 -9 18.5l-16 13.5q-8 8 -11.5 21t7.5 21q5 5 13 5.5
t14 -2.5q7 -2 10 -9t4 -14l-12 -4l-2 10.5t-6 7.5t-9.5 0.5t-6.5 -6.5q-3 -8 3 -14l11 -11q7 -6 13.5 -12.5t8.5 -15.5q3 -12 -3.5 -21.5t-19.5 -9.5zM855 256l-22 100h13l15 -73l16 73h12l-22 -100h-12zM914 -284l-23 99h13l16 -73l14 73h13l-22 -99h-11zM759 256v100h39
v-10h-24v-33h20v-10h-20v-37h25v-10h-40zM683 -161v99h39v-10h-24v-33h20v-10h-20v-37h24v-9h-39zM958 -284v99h39v-10h-25v-32h20v-10h-20v-37h25v-10h-39zM552 -284v99h38v-10h-25v-32h21v-10h-21v-37h25v-10h-38zM591 256v100h39v-10h-25v-33h20v-10h-20v-37h25v-10h-39z
M426 -150q9 -4 13 -1t5.5 9t1.5 13.5v12.5q0 8 1 23.5t-7 19.5q-10 5 -15 -1.5t-5 -14.5v-16q0 -3 -0.5 -10t-0.5 -14t1.5 -13t5.5 -8zM1179 -272q8 -4 12.5 -1.5t6 8.5t1.5 13.5v12.5q0 4 0.5 10.5t0 13t-2 12t-5.5 7.5q-10 5 -14.5 -1.5t-4.5 -14.5v-15q0 -3 -0.5 -10
t-0.5 -14.5t1.5 -13.5t5.5 -7zM342 -272q8 -4 12.5 -1.5t6 8.5t1.5 13.5v12.5q0 4 0.5 10.5t0.5 13t-1.5 12t-5.5 7.5q-11 5 -15.5 -1.5t-4.5 -14.5q-1 -4 -0.5 -7.5t0.5 -7.5q0 -3 -0.5 -10t-0.5 -14.5t1.5 -13.5t5.5 -7zM359 -161v99h39v-10h-24v-33h19v-10h-19v-46h-15z
M762 -161v99h38v-10h-25v-33h19v-10h-19v-46h-13zM1141 -152q8 0 14.5 1.5t8.5 12.5v26v25q-1 11 -7.5 13t-15.5 2v-80zM576 -161v89h-18v10h50v-10h-18v-89h-14zM1029 256v90h-18v10h49v-10h-17v-90h-14zM820 -284v99h13v-89h26v-10h-39zM877 -161v99h13v-90h25v-9h-38z
M925 -161v99h14v-90h25v-9h-39zM543 256v100h13v-90h25v-10h-38zM900 256v100h14v-100h-14zM1057 693h33l-17 88zM358 -7h36v40h-36v-40zM1040 175q5 0 11.5 0.5t10.5 -3.5q5 -8 4.5 -24.5t-5.5 -24.5q-5 -5 -10.5 -5h-10.5v57zM729 -284v99h14v-99h-14zM1130 -284v99h14
v-99h-14zM988 256v100h14v-100h-14zM1186 403v27h26v-27h-26zM498 312h7t8 2q5 2 6 7.5t1 10.5q-1 11 -7 12.5t-15 1.5v-34zM488 -105q9 0 15.5 3t6.5 14t-6 13.5t-16 2.5v-33zM1022 -227q9 0 15.5 2.5t6.5 13.5t-6.5 13.5t-15.5 2.5v-32zM616 -227q9 0 15 2.5t6 13.5
t-6 13.5t-15 2.5v-32zM773 -249h17l-8 45zM1016 -126h17l-8 45zM655 292h17l-8 45zM927 75l7 42l6 -42h-13zM821 -7q12 0 22 5q12 7 19 21t8.5 30.5t-3.5 32t-15 24.5q15 12 17 28q2 13 0.5 26t-7 23.5t-16 17t-25.5 6.5h-47v-214h47zM810 94h10.5t9.5 -5q3 -4 4.5 -12.5
t2 -18t-1 -18t-4.5 -12.5t-9.5 -3.5t-11.5 0.5v69zM810 175q5 0 11.5 0.5t9.5 -3.5q6 -8 5.5 -24.5t-6.5 -24.5q-4 -5 -9.5 -5h-10.5v57zM1346 -7v77l-41 137h35l26 -93l25 93h34l-6.5 -23l-8 -27.5t-11.5 -37.5l-17 -53v-73h-36zM1155 207h-36v-214h78v31h-42v183z" />
    <glyph glyph-name="five" unicode="5" 
d="M173 207l-25 -134l-24 134h-35l-3 -214h32l1 87l17 -87h25l17 88l1 -88h32l-2 214h-36zM823 623q-21 0 -34.5 11t-16.5 31q-2 10 -2 19v19q0 20 -1 42t5 42q5 17 17 24.5t29 8.5t31 -5t20 -23q8 -19 7 -42t-1 -43q0 -11 -0.5 -22.5t-2.5 -22.5q-9 -39 -51 -39zM773 401
q-44 0 -52 42q-2 10 -1.5 19.5t0.5 19.5q0 20 -1 42t4 41q5 17 17 25t29 8q17 1 31 -5t21 -23q8 -19 6 -41.5t-2 -42.5v-23t-2 -22q-4 -20 -17 -30t-33 -10zM1052 207h-48v-214h36v94h10l14 -94h36l-18 103q15 13 18 38q1 13 -0.5 26t-7 23.5t-15.5 17t-25 6.5zM302 104
l-37 103h-27v-214h33v105l37 -105h27v214h-33v-103zM571 73h21v-14t-1.5 -18t-6 -14.5t-13.5 -2.5q-6 2 -8 7.5t-3 12.5t-0.5 14t0.5 12v51q0 11 -0.5 23t2.5 23q5 11 16 9q10 -3 11 -13q2 -8 1.5 -16t-0.5 -16h36q0 18 -2.5 39t-20.5 32q-11 6 -24 6.5t-24 -2.5
q-15 -5 -21.5 -17.5t-9.5 -26.5q-2 -15 -1.5 -30.5t0.5 -31.5q0 -15 -0.5 -29.5t1.5 -29.5q2 -13 6.5 -25t15.5 -19q11 -8 26.5 -7.5t25.5 10.5l1 -7h28v111h-56v-31zM917 207l-39 -214h36l8 50h23l8 -50h36l-38 214h-34zM536 625v194q18 0 38.5 0.5t36.5 -8.5
q11 -6 16.5 -19t5.5 -27.5t-6 -26.5t-18 -16l27 -97h-27l-25 91h-21v-91h-27zM482 104l-18 20l-11 10.5t-8 13.5q-3 8 -0.5 18.5t13.5 9.5q6 -1 8.5 -5.5t3.5 -11t1.5 -13t0.5 -10.5l33 2q0 19 -4.5 38.5t-22.5 28.5q-12 5 -23.5 4t-21 -6.5t-16 -15t-7.5 -21.5
q-2 -13 0 -25.5t10 -23.5q3 -6 8 -10.5t9 -9.5l23 -25t12 -30q0 -5 -1.5 -11t-7.5 -7q-9 -3 -14 8q-5 8 -5.5 18t-1.5 20l-33 -3q0 -13 1.5 -25.5t6.5 -25.5q8 -15 22 -21.5t30 -3.5q17 3 26.5 15.5t11.5 27.5q2 20 -4.5 38t-20.5 32zM323 625v194h42q14 0 27 -3.5t21 -17.5
q8 -17 7 -39t-16 -34q-11 -9 -25.5 -9.5t-28.5 -0.5v-90h-27zM1250 88h34v30h-34v57h42v32h-78v-214h78v31h-42v64zM852 403v194h18l56 -129v129h23v-194h-18l-56 132v-132h-23zM904 625v194h18l55 -129v129h22v-194h-17l-56 132v-132h-22zM398 404q-18 -7 -38.5 -1
t-28.5 26q-5 11 -5.5 22.5t-0.5 24.5v121h26v-129q0 -11 1.5 -25.5t15.5 -19.5q10 -4 17 -1t11 10t5.5 15.5t1.5 16.5q1 16 0.5 31t-0.5 31v71h26v-89q0 -12 1 -28t-1.5 -31t-9 -27.5t-21.5 -17.5zM1019 625l42 194h25l41 -194h-25l-9 48h-40l-9 -48h-25zM503 401
q-25 0 -37.5 16.5t-13.5 40.5l24 6q1 -9 2.5 -18.5t8.5 -16.5q6 -6 15 -6.5t16 4.5q8 7 7 18.5t-6 19.5q-4 6 -9.5 11l-11.5 10q-9 9 -20 18t-18 20q-12 19 -6.5 42.5t27.5 30.5q11 3 24.5 2t22.5 -8q10 -8 13.5 -19.5t4.5 -22.5l-22 -7q-1 11 -4.5 22.5t-16.5 13.5
q-9 1 -16.5 -3t-9.5 -14q-2 -8 0.5 -14.5t7.5 -12.5t11.5 -11l11.5 -9q13 -11 24.5 -23.5t15.5 -29.5q5 -23 -7.5 -41.5t-37.5 -18.5zM706 623q-24 0 -37 16.5t-14 39.5l24 6q1 -9 3 -18.5t8 -15.5t15 -7t16 5q8 7 7 18.5t-6 19.5q-4 6 -9.5 11l-11.5 10l-20 17t-18 20
q-6 10 -7.5 21.5t1 22t9.5 18.5t18 11t24.5 2t22.5 -8q10 -7 13.5 -19t4.5 -23l-22 -6q-1 11 -4.5 22.5t-16.5 13.5q-9 1 -16.5 -3.5t-9.5 -13.5q-3 -17 8.5 -28t22.5 -20q13 -11 24.5 -23t15.5 -29q5 -23 -7.5 -41.5t-37.5 -18.5zM643 -34h32l59 268h-34zM439 625v194h75
v-20h-48v-64h39v-20h-39v-71h49v-19h-76zM571 403v194h75v-20h-48v-64h39v-19h-39v-72h48v-19h-75zM811 646q12 -5 26 0q7 4 9 10.5t3 13.5v23v67q0 8 -0.5 17t-6.5 16q-5 5 -11.5 6.5t-12.5 -0.5q-14 -1 -19 -17q-4 -14 -2.5 -31t1.5 -31v-36q0 -10 1 -21.5t12 -16.5z
M759 424q5 -2 13 -2t13 2q7 4 9.5 11t3.5 14q1 5 0.5 11t-0.5 11v68q0 8 -0.5 17t-6.5 15q-5 5 -11.5 6.5t-13.5 0.5q-14 -3 -18 -18q-3 -14 -2 -30.5t1 -31.5v-35q0 -11 1 -22.5t11 -16.5zM1103 403v41q0 7 1 14.5t-1 14.5q-2 10 -5.5 19t-7.5 18l-28 87h25l30 -93l28 93
h26l-12.5 -40l-13.5 -40l-14 -41q-2 -6 -2 -12.5v-12.5v-48h-26zM1147 625v194h27v-175h50v-19h-77zM979 403v194h27v-175h49v-19h-76zM433 -162q-11 0 -17 5.5t-8.5 13.5t-2.5 17.5v17.5t0.5 17t3.5 15.5t9 11t18 3.5q10 -1 15 -6t7.5 -12.5t2.5 -16.5v-16q0 -8 -0.5 -16.5
t-3 -16t-8 -12.5t-16.5 -5zM1127 -161v99q10 0 22.5 0.5t20.5 -6.5q8 -8 8 -20.5v-23.5v-23.5t-10 -20.5q-8 -6 -20 -5.5t-21 0.5zM1185 -285q-11 0 -17 5.5t-8 13.5t-2 17.5v17.5q0 9 0.5 17.5t3.5 15.5t9 11t18 3q10 -1 15 -6t6.5 -12.5t1.5 -16.5v-16v-16.5t-2.5 -16
t-8 -12.5t-16.5 -5zM349 -285q-12 0 -17.5 5.5t-7.5 13.5t-2 17.5v17.5q0 9 0.5 17.5t3.5 15.5t9 11t17 3q10 -1 15 -6t7 -12.5t2 -16.5v-16v-16.5t-2.5 -16t-8 -12.5t-16.5 -5zM601 -284v99q9 0 19.5 1t18.5 -4q6 -3 9 -9.5t3 -14t-3 -14t-10 -8.5l15 -50h-14l-12 47h-11
v-47h-15zM389 -284l2 99h14l18 -80l17 80h13l2 -99h-11l-1 72l-17 -72h-8l-16 72l-1 -72h-12zM470 -284l2 99h14l17 -80l18 80h14l1 -99h-10l-2 72l-17 -72h-8l-16 72l-2 -72h-11zM1008 -284v99q9 0 19 1t18 -4q6 -3 9 -9.5t3 -14t-3 -14t-9 -8.5l14 -50h-14l-12 47h-11v-47
h-14zM474 -161v99q9 0 19 1t18 -4q6 -3 9 -10t3.5 -14.5t-2.5 -14t-10 -8.5l14 -49h-13l-14 46h-10v-46h-14zM484 256v100h25.5t20.5 -11q4 -8 3.5 -19.5t-8.5 -17.5q-6 -5 -13 -5.5t-14 -0.5v-46h-14zM1062 -161v99h9l28 -66v66h12v-99h-9l-28 67v-67h-12zM615 -161v99h13
v-43h27v43h13v-99h-13v46h-27v-46h-13zM1227 -284v99h9l28 -66v66h11v-99h-9l-28 67v-67h-11zM636 256l21 100h14l21 -100h-14l-4 26h-20l-5 -26h-13zM753 -284l22 99h13l21 -99h-13l-4 25h-21l-5 -25h-13zM997 -161l20 99h14l21 -99h-13l-5 25h-20l-5 -25h-12zM1194 445
l-8 152h26l-9 -152h-9zM846 -161q-14 -5 -24.5 2t-12.5 21q-1 6 -0.5 12t0.5 11v53h13v-44q0 -5 -0.5 -12.5t0 -15t3.5 -13t10 -5.5t10 5.5t4 13t0.5 15t-0.5 12.5v44h12v-45q0 -6 0.5 -14.5t-0.5 -16t-4.5 -14t-10.5 -9.5zM350 735q7 0 14 -0.5t14 1.5q11 3 13.5 11t2.5 17
q1 11 -1.5 21t-14.5 13q-7 2 -14 1.5t-14 -0.5v-64zM563 735h14t14 2q10 5 13 13.5t2 18.5q0 9 -2.5 16.5t-12.5 11.5q-7 2 -14 2h-14v-64zM285 -285q-13 0 -18.5 7t-7.5 17.5t-1.5 22.5t0.5 21q0 14 7 24.5t23 8.5t19 -13t3 -23h-13q0 5 0.5 9.5t-1.5 9.5q-2 6 -9.5 6.5
t-11.5 -4.5q-4 -6 -3 -17.5t1 -18.5t-1 -18t4 -17q3 -5 10.5 -4t9.5 7q2 5 1.5 10t-0.5 10h13q0 -14 -4 -26t-21 -12zM690 -285q-13 0 -18.5 7t-7 17.5t-1 22.5t0.5 21q0 14 6.5 24.5t22.5 8.5t19 -13t3 -23h-13q0 5 0.5 9.5t-1.5 9.5q-2 6 -9.5 6.5t-11.5 -4.5
q-5 -6 -4 -17.5t1 -18.5t-0.5 -18t4.5 -17q3 -5 10.5 -4t9.5 7q2 5 1.5 10t-0.5 10h13q0 -14 -4 -26t-21 -12zM953 255q-13 0 -19 8.5t-7 20.5l13 4q0 -5 2 -12t7 -9q7 -2 11 1.5t4 9.5q1 11 -8 18t-16 14q-9 8 -12.5 20.5t7.5 21.5q5 4 13 4.5t14 -1.5q7 -3 10 -10t4 -14
l-12 -3l-2 10t-6 8q-4 2 -9 0t-6 -7q-4 -8 2.5 -14l11.5 -11q6 -5 12.5 -11.5t8.5 -15.5q3 -12 -3 -22t-20 -10zM725 255q-13 0 -19 8.5t-7 20.5l12 4q0 -5 2 -12t7 -9q7 -2 11.5 1.5t4.5 9.5q0 11 -9 18t-16 14q-8 8 -11.5 20.5t7.5 21.5q5 4 13 4.5t14 -1.5q7 -3 10 -10
t4 -14l-12 -3l-2 10t-6 8q-5 2 -9.5 0t-6.5 -7q-3 -8 3 -14l11 -11q7 -5 13.5 -11.5t8.5 -15.5q3 -12 -3.5 -22t-19.5 -10zM1095 -285q-13 0 -19 8.5t-7 20.5l12 3q0 -5 2 -11.5t7 -8.5q7 -3 11.5 0.5t4.5 9.5q0 11 -9 18.5l-16 13.5q-8 8 -11.5 21t7.5 21q5 5 13 5.5
t14 -2.5q7 -2 10 -9t4 -14l-12 -4l-2 10.5t-6 7.5t-9.5 0.5t-6.5 -6.5q-3 -8 3 -14l11 -11q7 -6 13.5 -12.5t8.5 -15.5q3 -12 -3.5 -21.5t-19.5 -9.5zM855 256l-22 100h13l15 -73l16 73h12l-22 -100h-12zM914 -284l-23 99h13l16 -73l14 73h13l-22 -99h-11zM759 256v100h39
v-10h-24v-33h20v-10h-20v-37h25v-10h-40zM683 -161v99h39v-10h-24v-33h20v-10h-20v-37h24v-9h-39zM958 -284v99h39v-10h-25v-32h20v-10h-20v-37h25v-10h-39zM552 -284v99h38v-10h-25v-32h21v-10h-21v-37h25v-10h-38zM591 256v100h39v-10h-25v-33h20v-10h-20v-37h25v-10h-39z
M426 -150q9 -4 13 -1t5.5 9t1.5 13.5v12.5q0 8 1 23.5t-7 19.5q-10 5 -15 -1.5t-5 -14.5v-16q0 -3 -0.5 -10t-0.5 -14t1.5 -13t5.5 -8zM1179 -272q8 -4 12.5 -1.5t6 8.5t1.5 13.5v12.5q0 4 0.5 10.5t0 13t-2 12t-5.5 7.5q-10 5 -14.5 -1.5t-4.5 -14.5v-15q0 -3 -0.5 -10
t-0.5 -14.5t1.5 -13.5t5.5 -7zM342 -272q8 -4 12.5 -1.5t6 8.5t1.5 13.5v12.5q0 4 0.5 10.5t0.5 13t-1.5 12t-5.5 7.5q-11 5 -15.5 -1.5t-4.5 -14.5q-1 -4 -0.5 -7.5t0.5 -7.5q0 -3 -0.5 -10t-0.5 -14.5t1.5 -13.5t5.5 -7zM359 -161v99h39v-10h-24v-33h19v-10h-19v-46h-15z
M762 -161v99h38v-10h-25v-33h19v-10h-19v-46h-13zM1141 -152q8 0 14.5 1.5t8.5 12.5v26v25q-1 11 -7.5 13t-15.5 2v-80zM576 -161v89h-18v10h50v-10h-18v-89h-14zM1029 256v90h-18v10h49v-10h-17v-90h-14zM820 -284v99h13v-89h26v-10h-39zM877 -161v99h13v-90h25v-9h-38z
M925 -161v99h14v-90h25v-9h-39zM543 256v100h13v-90h25v-10h-38zM900 256v100h14v-100h-14zM1057 693h33l-17 88zM358 -7h36v40h-36v-40zM1040 175q5 0 11.5 0.5t10.5 -3.5q5 -8 4.5 -24.5t-5.5 -24.5q-5 -5 -10.5 -5h-10.5v57zM729 -284v99h14v-99h-14zM1130 -284v99h14
v-99h-14zM988 256v100h14v-100h-14zM1186 403v27h26v-27h-26zM498 312h7t8 2q5 2 6 7.5t1 10.5q-1 11 -7 12.5t-15 1.5v-34zM488 -105q9 0 15.5 3t6.5 14t-6 13.5t-16 2.5v-33zM1022 -227q9 0 15.5 2.5t6.5 13.5t-6.5 13.5t-15.5 2.5v-32zM616 -227q9 0 15 2.5t6 13.5
t-6 13.5t-15 2.5v-32zM773 -249h17l-8 45zM1016 -126h17l-8 45zM655 292h17l-8 45zM927 75l7 42l6 -42h-13zM821 -7q12 0 22 5q12 7 19 21t8.5 30.5t-3.5 32t-15 24.5q15 12 17 28q2 13 0.5 26t-7 23.5t-16 17t-25.5 6.5h-47v-214h47zM810 94h10.5t9.5 -5q3 -4 4.5 -12.5
t2 -18t-1 -18t-4.5 -12.5t-9.5 -3.5t-11.5 0.5v69zM810 175q5 0 11.5 0.5t9.5 -3.5q6 -8 5.5 -24.5t-6.5 -24.5q-4 -5 -9.5 -5h-10.5v57zM1346 -7v77l-41 137h35l26 -93l25 93h34l-6.5 -23l-8 -27.5t-11.5 -37.5l-17 -53v-73h-36zM1155 207h-36v-214h78v31h-42v183z" />
    <glyph glyph-name="six" unicode="6" 
d="M173 207l-25 -134l-24 134h-35l-3 -214h32l1 87l17 -87h25l17 88l1 -88h32l-2 214h-36zM823 623q-21 0 -34.5 11t-16.5 31q-2 10 -2 19v19q0 20 -1 42t5 42q5 17 17 24.5t29 8.5t31 -5t20 -23q8 -19 7 -42t-1 -43q0 -11 -0.5 -22.5t-2.5 -22.5q-9 -39 -51 -39zM773 401
q-44 0 -52 42q-2 10 -1.5 19.5t0.5 19.5q0 20 -1 42t4 41q5 17 17 25t29 8q17 1 31 -5t21 -23q8 -19 6 -41.5t-2 -42.5v-23t-2 -22q-4 -20 -17 -30t-33 -10zM1052 207h-48v-214h36v94h10l14 -94h36l-18 103q15 13 18 38q1 13 -0.5 26t-7 23.5t-15.5 17t-25 6.5zM302 104
l-37 103h-27v-214h33v105l37 -105h27v214h-33v-103zM571 73h21v-14t-1.5 -18t-6 -14.5t-13.5 -2.5q-6 2 -8 7.5t-3 12.5t-0.5 14t0.5 12v51q0 11 -0.5 23t2.5 23q5 11 16 9q10 -3 11 -13q2 -8 1.5 -16t-0.5 -16h36q0 18 -2.5 39t-20.5 32q-11 6 -24 6.5t-24 -2.5
q-15 -5 -21.5 -17.5t-9.5 -26.5q-2 -15 -1.5 -30.5t0.5 -31.5q0 -15 -0.5 -29.5t1.5 -29.5q2 -13 6.5 -25t15.5 -19q11 -8 26.5 -7.5t25.5 10.5l1 -7h28v111h-56v-31zM917 207l-39 -214h36l8 50h23l8 -50h36l-38 214h-34zM536 625v194q18 0 38.5 0.5t36.5 -8.5
q11 -6 16.5 -19t5.5 -27.5t-6 -26.5t-18 -16l27 -97h-27l-25 91h-21v-91h-27zM482 104l-18 20l-11 10.5t-8 13.5q-3 8 -0.5 18.5t13.5 9.5q6 -1 8.5 -5.5t3.5 -11t1.5 -13t0.5 -10.5l33 2q0 19 -4.5 38.5t-22.5 28.5q-12 5 -23.5 4t-21 -6.5t-16 -15t-7.5 -21.5
q-2 -13 0 -25.5t10 -23.5q3 -6 8 -10.5t9 -9.5l23 -25t12 -30q0 -5 -1.5 -11t-7.5 -7q-9 -3 -14 8q-5 8 -5.5 18t-1.5 20l-33 -3q0 -13 1.5 -25.5t6.5 -25.5q8 -15 22 -21.5t30 -3.5q17 3 26.5 15.5t11.5 27.5q2 20 -4.5 38t-20.5 32zM323 625v194h42q14 0 27 -3.5t21 -17.5
q8 -17 7 -39t-16 -34q-11 -9 -25.5 -9.5t-28.5 -0.5v-90h-27zM1250 88h34v30h-34v57h42v32h-78v-214h78v31h-42v64zM852 403v194h18l56 -129v129h23v-194h-18l-56 132v-132h-23zM904 625v194h18l55 -129v129h22v-194h-17l-56 132v-132h-22zM398 404q-18 -7 -38.5 -1
t-28.5 26q-5 11 -5.5 22.5t-0.5 24.5v121h26v-129q0 -11 1.5 -25.5t15.5 -19.5q10 -4 17 -1t11 10t5.5 15.5t1.5 16.5q1 16 0.5 31t-0.5 31v71h26v-89q0 -12 1 -28t-1.5 -31t-9 -27.5t-21.5 -17.5zM1019 625l42 194h25l41 -194h-25l-9 48h-40l-9 -48h-25zM503 401
q-25 0 -37.5 16.5t-13.5 40.5l24 6q1 -9 2.5 -18.5t8.5 -16.5q6 -6 15 -6.5t16 4.5q8 7 7 18.5t-6 19.5q-4 6 -9.5 11l-11.5 10q-9 9 -20 18t-18 20q-12 19 -6.5 42.5t27.5 30.5q11 3 24.5 2t22.5 -8q10 -8 13.5 -19.5t4.5 -22.5l-22 -7q-1 11 -4.5 22.5t-16.5 13.5
q-9 1 -16.5 -3t-9.5 -14q-2 -8 0.5 -14.5t7.5 -12.5t11.5 -11l11.5 -9q13 -11 24.5 -23.5t15.5 -29.5q5 -23 -7.5 -41.5t-37.5 -18.5zM706 623q-24 0 -37 16.5t-14 39.5l24 6q1 -9 3 -18.5t8 -15.5t15 -7t16 5q8 7 7 18.5t-6 19.5q-4 6 -9.5 11l-11.5 10l-20 17t-18 20
q-6 10 -7.5 21.5t1 22t9.5 18.5t18 11t24.5 2t22.5 -8q10 -7 13.5 -19t4.5 -23l-22 -6q-1 11 -4.5 22.5t-16.5 13.5q-9 1 -16.5 -3.5t-9.5 -13.5q-3 -17 8.5 -28t22.5 -20q13 -11 24.5 -23t15.5 -29q5 -23 -7.5 -41.5t-37.5 -18.5zM643 -34h32l59 268h-34zM439 625v194h75
v-20h-48v-64h39v-20h-39v-71h49v-19h-76zM571 403v194h75v-20h-48v-64h39v-19h-39v-72h48v-19h-75zM811 646q12 -5 26 0q7 4 9 10.5t3 13.5v23v67q0 8 -0.5 17t-6.5 16q-5 5 -11.5 6.5t-12.5 -0.5q-14 -1 -19 -17q-4 -14 -2.5 -31t1.5 -31v-36q0 -10 1 -21.5t12 -16.5z
M759 424q5 -2 13 -2t13 2q7 4 9.5 11t3.5 14q1 5 0.5 11t-0.5 11v68q0 8 -0.5 17t-6.5 15q-5 5 -11.5 6.5t-13.5 0.5q-14 -3 -18 -18q-3 -14 -2 -30.5t1 -31.5v-35q0 -11 1 -22.5t11 -16.5zM1103 403v41q0 7 1 14.5t-1 14.5q-2 10 -5.5 19t-7.5 18l-28 87h25l30 -93l28 93
h26l-12.5 -40l-13.5 -40l-14 -41q-2 -6 -2 -12.5v-12.5v-48h-26zM1147 625v194h27v-175h50v-19h-77zM979 403v194h27v-175h49v-19h-76zM433 -162q-11 0 -17 5.5t-8.5 13.5t-2.5 17.5v17.5t0.5 17t3.5 15.5t9 11t18 3.5q10 -1 15 -6t7.5 -12.5t2.5 -16.5v-16q0 -8 -0.5 -16.5
t-3 -16t-8 -12.5t-16.5 -5zM1127 -161v99q10 0 22.5 0.5t20.5 -6.5q8 -8 8 -20.5v-23.5v-23.5t-10 -20.5q-8 -6 -20 -5.5t-21 0.5zM1185 -285q-11 0 -17 5.5t-8 13.5t-2 17.5v17.5q0 9 0.5 17.5t3.5 15.5t9 11t18 3q10 -1 15 -6t6.5 -12.5t1.5 -16.5v-16v-16.5t-2.5 -16
t-8 -12.5t-16.5 -5zM349 -285q-12 0 -17.5 5.5t-7.5 13.5t-2 17.5v17.5q0 9 0.5 17.5t3.5 15.5t9 11t17 3q10 -1 15 -6t7 -12.5t2 -16.5v-16v-16.5t-2.5 -16t-8 -12.5t-16.5 -5zM601 -284v99q9 0 19.5 1t18.5 -4q6 -3 9 -9.5t3 -14t-3 -14t-10 -8.5l15 -50h-14l-12 47h-11
v-47h-15zM389 -284l2 99h14l18 -80l17 80h13l2 -99h-11l-1 72l-17 -72h-8l-16 72l-1 -72h-12zM470 -284l2 99h14l17 -80l18 80h14l1 -99h-10l-2 72l-17 -72h-8l-16 72l-2 -72h-11zM1008 -284v99q9 0 19 1t18 -4q6 -3 9 -9.5t3 -14t-3 -14t-9 -8.5l14 -50h-14l-12 47h-11v-47
h-14zM474 -161v99q9 0 19 1t18 -4q6 -3 9 -10t3.5 -14.5t-2.5 -14t-10 -8.5l14 -49h-13l-14 46h-10v-46h-14zM484 256v100h25.5t20.5 -11q4 -8 3.5 -19.5t-8.5 -17.5q-6 -5 -13 -5.5t-14 -0.5v-46h-14zM1062 -161v99h9l28 -66v66h12v-99h-9l-28 67v-67h-12zM615 -161v99h13
v-43h27v43h13v-99h-13v46h-27v-46h-13zM1227 -284v99h9l28 -66v66h11v-99h-9l-28 67v-67h-11zM636 256l21 100h14l21 -100h-14l-4 26h-20l-5 -26h-13zM753 -284l22 99h13l21 -99h-13l-4 25h-21l-5 -25h-13zM997 -161l20 99h14l21 -99h-13l-5 25h-20l-5 -25h-12zM1194 445
l-8 152h26l-9 -152h-9zM846 -161q-14 -5 -24.5 2t-12.5 21q-1 6 -0.5 12t0.5 11v53h13v-44q0 -5 -0.5 -12.5t0 -15t3.5 -13t10 -5.5t10 5.5t4 13t0.5 15t-0.5 12.5v44h12v-45q0 -6 0.5 -14.5t-0.5 -16t-4.5 -14t-10.5 -9.5zM350 735q7 0 14 -0.5t14 1.5q11 3 13.5 11t2.5 17
q1 11 -1.5 21t-14.5 13q-7 2 -14 1.5t-14 -0.5v-64zM563 735h14t14 2q10 5 13 13.5t2 18.5q0 9 -2.5 16.5t-12.5 11.5q-7 2 -14 2h-14v-64zM285 -285q-13 0 -18.5 7t-7.5 17.5t-1.5 22.5t0.5 21q0 14 7 24.5t23 8.5t19 -13t3 -23h-13q0 5 0.5 9.5t-1.5 9.5q-2 6 -9.5 6.5
t-11.5 -4.5q-4 -6 -3 -17.5t1 -18.5t-1 -18t4 -17q3 -5 10.5 -4t9.5 7q2 5 1.5 10t-0.5 10h13q0 -14 -4 -26t-21 -12zM690 -285q-13 0 -18.5 7t-7 17.5t-1 22.5t0.5 21q0 14 6.5 24.5t22.5 8.5t19 -13t3 -23h-13q0 5 0.5 9.5t-1.5 9.5q-2 6 -9.5 6.5t-11.5 -4.5
q-5 -6 -4 -17.5t1 -18.5t-0.5 -18t4.5 -17q3 -5 10.5 -4t9.5 7q2 5 1.5 10t-0.5 10h13q0 -14 -4 -26t-21 -12zM953 255q-13 0 -19 8.5t-7 20.5l13 4q0 -5 2 -12t7 -9q7 -2 11 1.5t4 9.5q1 11 -8 18t-16 14q-9 8 -12.5 20.5t7.5 21.5q5 4 13 4.5t14 -1.5q7 -3 10 -10t4 -14
l-12 -3l-2 10t-6 8q-4 2 -9 0t-6 -7q-4 -8 2.5 -14l11.5 -11q6 -5 12.5 -11.5t8.5 -15.5q3 -12 -3 -22t-20 -10zM725 255q-13 0 -19 8.5t-7 20.5l12 4q0 -5 2 -12t7 -9q7 -2 11.5 1.5t4.5 9.5q0 11 -9 18t-16 14q-8 8 -11.5 20.5t7.5 21.5q5 4 13 4.5t14 -1.5q7 -3 10 -10
t4 -14l-12 -3l-2 10t-6 8q-5 2 -9.5 0t-6.5 -7q-3 -8 3 -14l11 -11q7 -5 13.5 -11.5t8.5 -15.5q3 -12 -3.5 -22t-19.5 -10zM1095 -285q-13 0 -19 8.5t-7 20.5l12 3q0 -5 2 -11.5t7 -8.5q7 -3 11.5 0.5t4.5 9.5q0 11 -9 18.5l-16 13.5q-8 8 -11.5 21t7.5 21q5 5 13 5.5
t14 -2.5q7 -2 10 -9t4 -14l-12 -4l-2 10.5t-6 7.5t-9.5 0.5t-6.5 -6.5q-3 -8 3 -14l11 -11q7 -6 13.5 -12.5t8.5 -15.5q3 -12 -3.5 -21.5t-19.5 -9.5zM855 256l-22 100h13l15 -73l16 73h12l-22 -100h-12zM914 -284l-23 99h13l16 -73l14 73h13l-22 -99h-11zM759 256v100h39
v-10h-24v-33h20v-10h-20v-37h25v-10h-40zM683 -161v99h39v-10h-24v-33h20v-10h-20v-37h24v-9h-39zM958 -284v99h39v-10h-25v-32h20v-10h-20v-37h25v-10h-39zM552 -284v99h38v-10h-25v-32h21v-10h-21v-37h25v-10h-38zM591 256v100h39v-10h-25v-33h20v-10h-20v-37h25v-10h-39z
M426 -150q9 -4 13 -1t5.5 9t1.5 13.5v12.5q0 8 1 23.5t-7 19.5q-10 5 -15 -1.5t-5 -14.5v-16q0 -3 -0.5 -10t-0.5 -14t1.5 -13t5.5 -8zM1179 -272q8 -4 12.5 -1.5t6 8.5t1.5 13.5v12.5q0 4 0.5 10.5t0 13t-2 12t-5.5 7.5q-10 5 -14.5 -1.5t-4.5 -14.5v-15q0 -3 -0.5 -10
t-0.5 -14.5t1.5 -13.5t5.5 -7zM342 -272q8 -4 12.5 -1.5t6 8.5t1.5 13.5v12.5q0 4 0.5 10.5t0.5 13t-1.5 12t-5.5 7.5q-11 5 -15.5 -1.5t-4.5 -14.5q-1 -4 -0.5 -7.5t0.5 -7.5q0 -3 -0.5 -10t-0.5 -14.5t1.5 -13.5t5.5 -7zM359 -161v99h39v-10h-24v-33h19v-10h-19v-46h-15z
M762 -161v99h38v-10h-25v-33h19v-10h-19v-46h-13zM1141 -152q8 0 14.5 1.5t8.5 12.5v26v25q-1 11 -7.5 13t-15.5 2v-80zM576 -161v89h-18v10h50v-10h-18v-89h-14zM1029 256v90h-18v10h49v-10h-17v-90h-14zM820 -284v99h13v-89h26v-10h-39zM877 -161v99h13v-90h25v-9h-38z
M925 -161v99h14v-90h25v-9h-39zM543 256v100h13v-90h25v-10h-38zM900 256v100h14v-100h-14zM1057 693h33l-17 88zM358 -7h36v40h-36v-40zM1040 175q5 0 11.5 0.5t10.5 -3.5q5 -8 4.5 -24.5t-5.5 -24.5q-5 -5 -10.5 -5h-10.5v57zM729 -284v99h14v-99h-14zM1130 -284v99h14
v-99h-14zM988 256v100h14v-100h-14zM1186 403v27h26v-27h-26zM498 312h7t8 2q5 2 6 7.5t1 10.5q-1 11 -7 12.5t-15 1.5v-34zM488 -105q9 0 15.5 3t6.5 14t-6 13.5t-16 2.5v-33zM1022 -227q9 0 15.5 2.5t6.5 13.5t-6.5 13.5t-15.5 2.5v-32zM616 -227q9 0 15 2.5t6 13.5
t-6 13.5t-15 2.5v-32zM773 -249h17l-8 45zM1016 -126h17l-8 45zM655 292h17l-8 45zM927 75l7 42l6 -42h-13zM821 -7q12 0 22 5q12 7 19 21t8.5 30.5t-3.5 32t-15 24.5q15 12 17 28q2 13 0.5 26t-7 23.5t-16 17t-25.5 6.5h-47v-214h47zM810 94h10.5t9.5 -5q3 -4 4.5 -12.5
t2 -18t-1 -18t-4.5 -12.5t-9.5 -3.5t-11.5 0.5v69zM810 175q5 0 11.5 0.5t9.5 -3.5q6 -8 5.5 -24.5t-6.5 -24.5q-4 -5 -9.5 -5h-10.5v57zM1346 -7v77l-41 137h35l26 -93l25 93h34l-6.5 -23l-8 -27.5t-11.5 -37.5l-17 -53v-73h-36zM1155 207h-36v-214h78v31h-42v183z" />
    <glyph glyph-name="seven" unicode="7" 
d="M173 207l-25 -134l-24 134h-35l-3 -214h32l1 87l17 -87h25l17 88l1 -88h32l-2 214h-36zM823 623q-21 0 -34.5 11t-16.5 31q-2 10 -2 19v19q0 20 -1 42t5 42q5 17 17 24.5t29 8.5t31 -5t20 -23q8 -19 7 -42t-1 -43q0 -11 -0.5 -22.5t-2.5 -22.5q-9 -39 -51 -39zM773 401
q-44 0 -52 42q-2 10 -1.5 19.5t0.5 19.5q0 20 -1 42t4 41q5 17 17 25t29 8q17 1 31 -5t21 -23q8 -19 6 -41.5t-2 -42.5v-23t-2 -22q-4 -20 -17 -30t-33 -10zM1052 207h-48v-214h36v94h10l14 -94h36l-18 103q15 13 18 38q1 13 -0.5 26t-7 23.5t-15.5 17t-25 6.5zM302 104
l-37 103h-27v-214h33v105l37 -105h27v214h-33v-103zM571 73h21v-14t-1.5 -18t-6 -14.5t-13.5 -2.5q-6 2 -8 7.5t-3 12.5t-0.5 14t0.5 12v51q0 11 -0.5 23t2.5 23q5 11 16 9q10 -3 11 -13q2 -8 1.5 -16t-0.5 -16h36q0 18 -2.5 39t-20.5 32q-11 6 -24 6.5t-24 -2.5
q-15 -5 -21.5 -17.5t-9.5 -26.5q-2 -15 -1.5 -30.5t0.5 -31.5q0 -15 -0.5 -29.5t1.5 -29.5q2 -13 6.5 -25t15.5 -19q11 -8 26.5 -7.5t25.5 10.5l1 -7h28v111h-56v-31zM917 207l-39 -214h36l8 50h23l8 -50h36l-38 214h-34zM536 625v194q18 0 38.5 0.5t36.5 -8.5
q11 -6 16.5 -19t5.5 -27.5t-6 -26.5t-18 -16l27 -97h-27l-25 91h-21v-91h-27zM482 104l-18 20l-11 10.5t-8 13.5q-3 8 -0.5 18.5t13.5 9.5q6 -1 8.5 -5.5t3.5 -11t1.5 -13t0.5 -10.5l33 2q0 19 -4.5 38.5t-22.5 28.5q-12 5 -23.5 4t-21 -6.5t-16 -15t-7.5 -21.5
q-2 -13 0 -25.5t10 -23.5q3 -6 8 -10.5t9 -9.5l23 -25t12 -30q0 -5 -1.5 -11t-7.5 -7q-9 -3 -14 8q-5 8 -5.5 18t-1.5 20l-33 -3q0 -13 1.5 -25.5t6.5 -25.5q8 -15 22 -21.5t30 -3.5q17 3 26.5 15.5t11.5 27.5q2 20 -4.5 38t-20.5 32zM323 625v194h42q14 0 27 -3.5t21 -17.5
q8 -17 7 -39t-16 -34q-11 -9 -25.5 -9.5t-28.5 -0.5v-90h-27zM1250 88h34v30h-34v57h42v32h-78v-214h78v31h-42v64zM852 403v194h18l56 -129v129h23v-194h-18l-56 132v-132h-23zM904 625v194h18l55 -129v129h22v-194h-17l-56 132v-132h-22zM398 404q-18 -7 -38.5 -1
t-28.5 26q-5 11 -5.5 22.5t-0.5 24.5v121h26v-129q0 -11 1.5 -25.5t15.5 -19.5q10 -4 17 -1t11 10t5.5 15.5t1.5 16.5q1 16 0.5 31t-0.5 31v71h26v-89q0 -12 1 -28t-1.5 -31t-9 -27.5t-21.5 -17.5zM1019 625l42 194h25l41 -194h-25l-9 48h-40l-9 -48h-25zM503 401
q-25 0 -37.5 16.5t-13.5 40.5l24 6q1 -9 2.5 -18.5t8.5 -16.5q6 -6 15 -6.5t16 4.5q8 7 7 18.5t-6 19.5q-4 6 -9.5 11l-11.5 10q-9 9 -20 18t-18 20q-12 19 -6.5 42.5t27.5 30.5q11 3 24.5 2t22.5 -8q10 -8 13.5 -19.5t4.5 -22.5l-22 -7q-1 11 -4.5 22.5t-16.5 13.5
q-9 1 -16.5 -3t-9.5 -14q-2 -8 0.5 -14.5t7.5 -12.5t11.5 -11l11.5 -9q13 -11 24.5 -23.5t15.5 -29.5q5 -23 -7.5 -41.5t-37.5 -18.5zM706 623q-24 0 -37 16.5t-14 39.5l24 6q1 -9 3 -18.5t8 -15.5t15 -7t16 5q8 7 7 18.5t-6 19.5q-4 6 -9.5 11l-11.5 10l-20 17t-18 20
q-6 10 -7.5 21.5t1 22t9.5 18.5t18 11t24.5 2t22.5 -8q10 -7 13.5 -19t4.5 -23l-22 -6q-1 11 -4.5 22.5t-16.5 13.5q-9 1 -16.5 -3.5t-9.5 -13.5q-3 -17 8.5 -28t22.5 -20q13 -11 24.5 -23t15.5 -29q5 -23 -7.5 -41.5t-37.5 -18.5zM643 -34h32l59 268h-34zM439 625v194h75
v-20h-48v-64h39v-20h-39v-71h49v-19h-76zM571 403v194h75v-20h-48v-64h39v-19h-39v-72h48v-19h-75zM811 646q12 -5 26 0q7 4 9 10.5t3 13.5v23v67q0 8 -0.5 17t-6.5 16q-5 5 -11.5 6.5t-12.5 -0.5q-14 -1 -19 -17q-4 -14 -2.5 -31t1.5 -31v-36q0 -10 1 -21.5t12 -16.5z
M759 424q5 -2 13 -2t13 2q7 4 9.5 11t3.5 14q1 5 0.5 11t-0.5 11v68q0 8 -0.5 17t-6.5 15q-5 5 -11.5 6.5t-13.5 0.5q-14 -3 -18 -18q-3 -14 -2 -30.5t1 -31.5v-35q0 -11 1 -22.5t11 -16.5zM1103 403v41q0 7 1 14.5t-1 14.5q-2 10 -5.5 19t-7.5 18l-28 87h25l30 -93l28 93
h26l-12.5 -40l-13.5 -40l-14 -41q-2 -6 -2 -12.5v-12.5v-48h-26zM1147 625v194h27v-175h50v-19h-77zM979 403v194h27v-175h49v-19h-76zM433 -162q-11 0 -17 5.5t-8.5 13.5t-2.5 17.5v17.5t0.5 17t3.5 15.5t9 11t18 3.5q10 -1 15 -6t7.5 -12.5t2.5 -16.5v-16q0 -8 -0.5 -16.5
t-3 -16t-8 -12.5t-16.5 -5zM1127 -161v99q10 0 22.5 0.5t20.5 -6.5q8 -8 8 -20.5v-23.5v-23.5t-10 -20.5q-8 -6 -20 -5.5t-21 0.5zM1185 -285q-11 0 -17 5.5t-8 13.5t-2 17.5v17.5q0 9 0.5 17.5t3.5 15.5t9 11t18 3q10 -1 15 -6t6.5 -12.5t1.5 -16.5v-16v-16.5t-2.5 -16
t-8 -12.5t-16.5 -5zM349 -285q-12 0 -17.5 5.5t-7.5 13.5t-2 17.5v17.5q0 9 0.5 17.5t3.5 15.5t9 11t17 3q10 -1 15 -6t7 -12.5t2 -16.5v-16v-16.5t-2.5 -16t-8 -12.5t-16.5 -5zM601 -284v99q9 0 19.5 1t18.5 -4q6 -3 9 -9.5t3 -14t-3 -14t-10 -8.5l15 -50h-14l-12 47h-11
v-47h-15zM389 -284l2 99h14l18 -80l17 80h13l2 -99h-11l-1 72l-17 -72h-8l-16 72l-1 -72h-12zM470 -284l2 99h14l17 -80l18 80h14l1 -99h-10l-2 72l-17 -72h-8l-16 72l-2 -72h-11zM1008 -284v99q9 0 19 1t18 -4q6 -3 9 -9.5t3 -14t-3 -14t-9 -8.5l14 -50h-14l-12 47h-11v-47
h-14zM474 -161v99q9 0 19 1t18 -4q6 -3 9 -10t3.5 -14.5t-2.5 -14t-10 -8.5l14 -49h-13l-14 46h-10v-46h-14zM484 256v100h25.5t20.5 -11q4 -8 3.5 -19.5t-8.5 -17.5q-6 -5 -13 -5.5t-14 -0.5v-46h-14zM1062 -161v99h9l28 -66v66h12v-99h-9l-28 67v-67h-12zM615 -161v99h13
v-43h27v43h13v-99h-13v46h-27v-46h-13zM1227 -284v99h9l28 -66v66h11v-99h-9l-28 67v-67h-11zM636 256l21 100h14l21 -100h-14l-4 26h-20l-5 -26h-13zM753 -284l22 99h13l21 -99h-13l-4 25h-21l-5 -25h-13zM997 -161l20 99h14l21 -99h-13l-5 25h-20l-5 -25h-12zM1194 445
l-8 152h26l-9 -152h-9zM846 -161q-14 -5 -24.5 2t-12.5 21q-1 6 -0.5 12t0.5 11v53h13v-44q0 -5 -0.5 -12.5t0 -15t3.5 -13t10 -5.5t10 5.5t4 13t0.5 15t-0.5 12.5v44h12v-45q0 -6 0.5 -14.5t-0.5 -16t-4.5 -14t-10.5 -9.5zM350 735q7 0 14 -0.5t14 1.5q11 3 13.5 11t2.5 17
q1 11 -1.5 21t-14.5 13q-7 2 -14 1.5t-14 -0.5v-64zM563 735h14t14 2q10 5 13 13.5t2 18.5q0 9 -2.5 16.5t-12.5 11.5q-7 2 -14 2h-14v-64zM285 -285q-13 0 -18.5 7t-7.5 17.5t-1.5 22.5t0.5 21q0 14 7 24.5t23 8.5t19 -13t3 -23h-13q0 5 0.5 9.5t-1.5 9.5q-2 6 -9.5 6.5
t-11.5 -4.5q-4 -6 -3 -17.5t1 -18.5t-1 -18t4 -17q3 -5 10.5 -4t9.5 7q2 5 1.5 10t-0.5 10h13q0 -14 -4 -26t-21 -12zM690 -285q-13 0 -18.5 7t-7 17.5t-1 22.5t0.5 21q0 14 6.5 24.5t22.5 8.5t19 -13t3 -23h-13q0 5 0.5 9.5t-1.5 9.5q-2 6 -9.5 6.5t-11.5 -4.5
q-5 -6 -4 -17.5t1 -18.5t-0.5 -18t4.5 -17q3 -5 10.5 -4t9.5 7q2 5 1.5 10t-0.5 10h13q0 -14 -4 -26t-21 -12zM953 255q-13 0 -19 8.5t-7 20.5l13 4q0 -5 2 -12t7 -9q7 -2 11 1.5t4 9.5q1 11 -8 18t-16 14q-9 8 -12.5 20.5t7.5 21.5q5 4 13 4.5t14 -1.5q7 -3 10 -10t4 -14
l-12 -3l-2 10t-6 8q-4 2 -9 0t-6 -7q-4 -8 2.5 -14l11.5 -11q6 -5 12.5 -11.5t8.5 -15.5q3 -12 -3 -22t-20 -10zM725 255q-13 0 -19 8.5t-7 20.5l12 4q0 -5 2 -12t7 -9q7 -2 11.5 1.5t4.5 9.5q0 11 -9 18t-16 14q-8 8 -11.5 20.5t7.5 21.5q5 4 13 4.5t14 -1.5q7 -3 10 -10
t4 -14l-12 -3l-2 10t-6 8q-5 2 -9.5 0t-6.5 -7q-3 -8 3 -14l11 -11q7 -5 13.5 -11.5t8.5 -15.5q3 -12 -3.5 -22t-19.5 -10zM1095 -285q-13 0 -19 8.5t-7 20.5l12 3q0 -5 2 -11.5t7 -8.5q7 -3 11.5 0.5t4.5 9.5q0 11 -9 18.5l-16 13.5q-8 8 -11.5 21t7.5 21q5 5 13 5.5
t14 -2.5q7 -2 10 -9t4 -14l-12 -4l-2 10.5t-6 7.5t-9.5 0.5t-6.5 -6.5q-3 -8 3 -14l11 -11q7 -6 13.5 -12.5t8.5 -15.5q3 -12 -3.5 -21.5t-19.5 -9.5zM855 256l-22 100h13l15 -73l16 73h12l-22 -100h-12zM914 -284l-23 99h13l16 -73l14 73h13l-22 -99h-11zM759 256v100h39
v-10h-24v-33h20v-10h-20v-37h25v-10h-40zM683 -161v99h39v-10h-24v-33h20v-10h-20v-37h24v-9h-39zM958 -284v99h39v-10h-25v-32h20v-10h-20v-37h25v-10h-39zM552 -284v99h38v-10h-25v-32h21v-10h-21v-37h25v-10h-38zM591 256v100h39v-10h-25v-33h20v-10h-20v-37h25v-10h-39z
M426 -150q9 -4 13 -1t5.5 9t1.5 13.5v12.5q0 8 1 23.5t-7 19.5q-10 5 -15 -1.5t-5 -14.5v-16q0 -3 -0.5 -10t-0.5 -14t1.5 -13t5.5 -8zM1179 -272q8 -4 12.5 -1.5t6 8.5t1.5 13.5v12.5q0 4 0.5 10.5t0 13t-2 12t-5.5 7.5q-10 5 -14.5 -1.5t-4.5 -14.5v-15q0 -3 -0.5 -10
t-0.5 -14.5t1.5 -13.5t5.5 -7zM342 -272q8 -4 12.5 -1.5t6 8.5t1.5 13.5v12.5q0 4 0.5 10.5t0.5 13t-1.5 12t-5.5 7.5q-11 5 -15.5 -1.5t-4.5 -14.5q-1 -4 -0.5 -7.5t0.5 -7.5q0 -3 -0.5 -10t-0.5 -14.5t1.5 -13.5t5.5 -7zM359 -161v99h39v-10h-24v-33h19v-10h-19v-46h-15z
M762 -161v99h38v-10h-25v-33h19v-10h-19v-46h-13zM1141 -152q8 0 14.5 1.5t8.5 12.5v26v25q-1 11 -7.5 13t-15.5 2v-80zM576 -161v89h-18v10h50v-10h-18v-89h-14zM1029 256v90h-18v10h49v-10h-17v-90h-14zM820 -284v99h13v-89h26v-10h-39zM877 -161v99h13v-90h25v-9h-38z
M925 -161v99h14v-90h25v-9h-39zM543 256v100h13v-90h25v-10h-38zM900 256v100h14v-100h-14zM1057 693h33l-17 88zM358 -7h36v40h-36v-40zM1040 175q5 0 11.5 0.5t10.5 -3.5q5 -8 4.5 -24.5t-5.5 -24.5q-5 -5 -10.5 -5h-10.5v57zM729 -284v99h14v-99h-14zM1130 -284v99h14
v-99h-14zM988 256v100h14v-100h-14zM1186 403v27h26v-27h-26zM498 312h7t8 2q5 2 6 7.5t1 10.5q-1 11 -7 12.5t-15 1.5v-34zM488 -105q9 0 15.5 3t6.5 14t-6 13.5t-16 2.5v-33zM1022 -227q9 0 15.5 2.5t6.5 13.5t-6.5 13.5t-15.5 2.5v-32zM616 -227q9 0 15 2.5t6 13.5
t-6 13.5t-15 2.5v-32zM773 -249h17l-8 45zM1016 -126h17l-8 45zM655 292h17l-8 45zM927 75l7 42l6 -42h-13zM821 -7q12 0 22 5q12 7 19 21t8.5 30.5t-3.5 32t-15 24.5q15 12 17 28q2 13 0.5 26t-7 23.5t-16 17t-25.5 6.5h-47v-214h47zM810 94h10.5t9.5 -5q3 -4 4.5 -12.5
t2 -18t-1 -18t-4.5 -12.5t-9.5 -3.5t-11.5 0.5v69zM810 175q5 0 11.5 0.5t9.5 -3.5q6 -8 5.5 -24.5t-6.5 -24.5q-4 -5 -9.5 -5h-10.5v57zM1346 -7v77l-41 137h35l26 -93l25 93h34l-6.5 -23l-8 -27.5t-11.5 -37.5l-17 -53v-73h-36zM1155 207h-36v-214h78v31h-42v183z" />
    <glyph glyph-name="eight" unicode="8" 
d="M173 207l-25 -134l-24 134h-35l-3 -214h32l1 87l17 -87h25l17 88l1 -88h32l-2 214h-36zM823 623q-21 0 -34.5 11t-16.5 31q-2 10 -2 19v19q0 20 -1 42t5 42q5 17 17 24.5t29 8.5t31 -5t20 -23q8 -19 7 -42t-1 -43q0 -11 -0.5 -22.5t-2.5 -22.5q-9 -39 -51 -39zM773 401
q-44 0 -52 42q-2 10 -1.5 19.5t0.5 19.5q0 20 -1 42t4 41q5 17 17 25t29 8q17 1 31 -5t21 -23q8 -19 6 -41.5t-2 -42.5v-23t-2 -22q-4 -20 -17 -30t-33 -10zM1052 207h-48v-214h36v94h10l14 -94h36l-18 103q15 13 18 38q1 13 -0.5 26t-7 23.5t-15.5 17t-25 6.5zM302 104
l-37 103h-27v-214h33v105l37 -105h27v214h-33v-103zM571 73h21v-14t-1.5 -18t-6 -14.5t-13.5 -2.5q-6 2 -8 7.5t-3 12.5t-0.5 14t0.5 12v51q0 11 -0.5 23t2.5 23q5 11 16 9q10 -3 11 -13q2 -8 1.5 -16t-0.5 -16h36q0 18 -2.5 39t-20.5 32q-11 6 -24 6.5t-24 -2.5
q-15 -5 -21.5 -17.5t-9.5 -26.5q-2 -15 -1.5 -30.5t0.5 -31.5q0 -15 -0.5 -29.5t1.5 -29.5q2 -13 6.5 -25t15.5 -19q11 -8 26.5 -7.5t25.5 10.5l1 -7h28v111h-56v-31zM917 207l-39 -214h36l8 50h23l8 -50h36l-38 214h-34zM536 625v194q18 0 38.5 0.5t36.5 -8.5
q11 -6 16.5 -19t5.5 -27.5t-6 -26.5t-18 -16l27 -97h-27l-25 91h-21v-91h-27zM482 104l-18 20l-11 10.5t-8 13.5q-3 8 -0.5 18.5t13.5 9.5q6 -1 8.5 -5.5t3.5 -11t1.5 -13t0.5 -10.5l33 2q0 19 -4.5 38.5t-22.5 28.5q-12 5 -23.5 4t-21 -6.5t-16 -15t-7.5 -21.5
q-2 -13 0 -25.5t10 -23.5q3 -6 8 -10.5t9 -9.5l23 -25t12 -30q0 -5 -1.5 -11t-7.5 -7q-9 -3 -14 8q-5 8 -5.5 18t-1.5 20l-33 -3q0 -13 1.5 -25.5t6.5 -25.5q8 -15 22 -21.5t30 -3.5q17 3 26.5 15.5t11.5 27.5q2 20 -4.5 38t-20.5 32zM323 625v194h42q14 0 27 -3.5t21 -17.5
q8 -17 7 -39t-16 -34q-11 -9 -25.5 -9.5t-28.5 -0.5v-90h-27zM1250 88h34v30h-34v57h42v32h-78v-214h78v31h-42v64zM852 403v194h18l56 -129v129h23v-194h-18l-56 132v-132h-23zM904 625v194h18l55 -129v129h22v-194h-17l-56 132v-132h-22zM398 404q-18 -7 -38.5 -1
t-28.5 26q-5 11 -5.5 22.5t-0.5 24.5v121h26v-129q0 -11 1.5 -25.5t15.5 -19.5q10 -4 17 -1t11 10t5.5 15.5t1.5 16.5q1 16 0.5 31t-0.5 31v71h26v-89q0 -12 1 -28t-1.5 -31t-9 -27.5t-21.5 -17.5zM1019 625l42 194h25l41 -194h-25l-9 48h-40l-9 -48h-25zM503 401
q-25 0 -37.5 16.5t-13.5 40.5l24 6q1 -9 2.5 -18.5t8.5 -16.5q6 -6 15 -6.5t16 4.5q8 7 7 18.5t-6 19.5q-4 6 -9.5 11l-11.5 10q-9 9 -20 18t-18 20q-12 19 -6.5 42.5t27.5 30.5q11 3 24.5 2t22.5 -8q10 -8 13.5 -19.5t4.5 -22.5l-22 -7q-1 11 -4.5 22.5t-16.5 13.5
q-9 1 -16.5 -3t-9.5 -14q-2 -8 0.5 -14.5t7.5 -12.5t11.5 -11l11.5 -9q13 -11 24.5 -23.5t15.5 -29.5q5 -23 -7.5 -41.5t-37.5 -18.5zM706 623q-24 0 -37 16.5t-14 39.5l24 6q1 -9 3 -18.5t8 -15.5t15 -7t16 5q8 7 7 18.5t-6 19.5q-4 6 -9.5 11l-11.5 10l-20 17t-18 20
q-6 10 -7.5 21.5t1 22t9.5 18.5t18 11t24.5 2t22.5 -8q10 -7 13.5 -19t4.5 -23l-22 -6q-1 11 -4.5 22.5t-16.5 13.5q-9 1 -16.5 -3.5t-9.5 -13.5q-3 -17 8.5 -28t22.5 -20q13 -11 24.5 -23t15.5 -29q5 -23 -7.5 -41.5t-37.5 -18.5zM643 -34h32l59 268h-34zM439 625v194h75
v-20h-48v-64h39v-20h-39v-71h49v-19h-76zM571 403v194h75v-20h-48v-64h39v-19h-39v-72h48v-19h-75zM811 646q12 -5 26 0q7 4 9 10.5t3 13.5v23v67q0 8 -0.5 17t-6.5 16q-5 5 -11.5 6.5t-12.5 -0.5q-14 -1 -19 -17q-4 -14 -2.5 -31t1.5 -31v-36q0 -10 1 -21.5t12 -16.5z
M759 424q5 -2 13 -2t13 2q7 4 9.5 11t3.5 14q1 5 0.5 11t-0.5 11v68q0 8 -0.5 17t-6.5 15q-5 5 -11.5 6.5t-13.5 0.5q-14 -3 -18 -18q-3 -14 -2 -30.5t1 -31.5v-35q0 -11 1 -22.5t11 -16.5zM1103 403v41q0 7 1 14.5t-1 14.5q-2 10 -5.5 19t-7.5 18l-28 87h25l30 -93l28 93
h26l-12.5 -40l-13.5 -40l-14 -41q-2 -6 -2 -12.5v-12.5v-48h-26zM1147 625v194h27v-175h50v-19h-77zM979 403v194h27v-175h49v-19h-76zM433 -162q-11 0 -17 5.5t-8.5 13.5t-2.5 17.5v17.5t0.5 17t3.5 15.5t9 11t18 3.5q10 -1 15 -6t7.5 -12.5t2.5 -16.5v-16q0 -8 -0.5 -16.5
t-3 -16t-8 -12.5t-16.5 -5zM1127 -161v99q10 0 22.5 0.5t20.5 -6.5q8 -8 8 -20.5v-23.5v-23.5t-10 -20.5q-8 -6 -20 -5.5t-21 0.5zM1185 -285q-11 0 -17 5.5t-8 13.5t-2 17.5v17.5q0 9 0.5 17.5t3.5 15.5t9 11t18 3q10 -1 15 -6t6.5 -12.5t1.5 -16.5v-16v-16.5t-2.5 -16
t-8 -12.5t-16.5 -5zM349 -285q-12 0 -17.5 5.5t-7.5 13.5t-2 17.5v17.5q0 9 0.5 17.5t3.5 15.5t9 11t17 3q10 -1 15 -6t7 -12.5t2 -16.5v-16v-16.5t-2.5 -16t-8 -12.5t-16.5 -5zM601 -284v99q9 0 19.5 1t18.5 -4q6 -3 9 -9.5t3 -14t-3 -14t-10 -8.5l15 -50h-14l-12 47h-11
v-47h-15zM389 -284l2 99h14l18 -80l17 80h13l2 -99h-11l-1 72l-17 -72h-8l-16 72l-1 -72h-12zM470 -284l2 99h14l17 -80l18 80h14l1 -99h-10l-2 72l-17 -72h-8l-16 72l-2 -72h-11zM1008 -284v99q9 0 19 1t18 -4q6 -3 9 -9.5t3 -14t-3 -14t-9 -8.5l14 -50h-14l-12 47h-11v-47
h-14zM474 -161v99q9 0 19 1t18 -4q6 -3 9 -10t3.5 -14.5t-2.5 -14t-10 -8.5l14 -49h-13l-14 46h-10v-46h-14zM484 256v100h25.5t20.5 -11q4 -8 3.5 -19.5t-8.5 -17.5q-6 -5 -13 -5.5t-14 -0.5v-46h-14zM1062 -161v99h9l28 -66v66h12v-99h-9l-28 67v-67h-12zM615 -161v99h13
v-43h27v43h13v-99h-13v46h-27v-46h-13zM1227 -284v99h9l28 -66v66h11v-99h-9l-28 67v-67h-11zM636 256l21 100h14l21 -100h-14l-4 26h-20l-5 -26h-13zM753 -284l22 99h13l21 -99h-13l-4 25h-21l-5 -25h-13zM997 -161l20 99h14l21 -99h-13l-5 25h-20l-5 -25h-12zM1194 445
l-8 152h26l-9 -152h-9zM846 -161q-14 -5 -24.5 2t-12.5 21q-1 6 -0.5 12t0.5 11v53h13v-44q0 -5 -0.5 -12.5t0 -15t3.5 -13t10 -5.5t10 5.5t4 13t0.5 15t-0.5 12.5v44h12v-45q0 -6 0.5 -14.5t-0.5 -16t-4.5 -14t-10.5 -9.5zM350 735q7 0 14 -0.5t14 1.5q11 3 13.5 11t2.5 17
q1 11 -1.5 21t-14.5 13q-7 2 -14 1.5t-14 -0.5v-64zM563 735h14t14 2q10 5 13 13.5t2 18.5q0 9 -2.5 16.5t-12.5 11.5q-7 2 -14 2h-14v-64zM285 -285q-13 0 -18.5 7t-7.5 17.5t-1.5 22.5t0.5 21q0 14 7 24.5t23 8.5t19 -13t3 -23h-13q0 5 0.5 9.5t-1.5 9.5q-2 6 -9.5 6.5
t-11.5 -4.5q-4 -6 -3 -17.5t1 -18.5t-1 -18t4 -17q3 -5 10.5 -4t9.5 7q2 5 1.5 10t-0.5 10h13q0 -14 -4 -26t-21 -12zM690 -285q-13 0 -18.5 7t-7 17.5t-1 22.5t0.5 21q0 14 6.5 24.5t22.5 8.5t19 -13t3 -23h-13q0 5 0.5 9.5t-1.5 9.5q-2 6 -9.5 6.5t-11.5 -4.5
q-5 -6 -4 -17.5t1 -18.5t-0.5 -18t4.5 -17q3 -5 10.5 -4t9.5 7q2 5 1.5 10t-0.5 10h13q0 -14 -4 -26t-21 -12zM953 255q-13 0 -19 8.5t-7 20.5l13 4q0 -5 2 -12t7 -9q7 -2 11 1.5t4 9.5q1 11 -8 18t-16 14q-9 8 -12.5 20.5t7.5 21.5q5 4 13 4.5t14 -1.5q7 -3 10 -10t4 -14
l-12 -3l-2 10t-6 8q-4 2 -9 0t-6 -7q-4 -8 2.5 -14l11.5 -11q6 -5 12.5 -11.5t8.5 -15.5q3 -12 -3 -22t-20 -10zM725 255q-13 0 -19 8.5t-7 20.5l12 4q0 -5 2 -12t7 -9q7 -2 11.5 1.5t4.5 9.5q0 11 -9 18t-16 14q-8 8 -11.5 20.5t7.5 21.5q5 4 13 4.5t14 -1.5q7 -3 10 -10
t4 -14l-12 -3l-2 10t-6 8q-5 2 -9.5 0t-6.5 -7q-3 -8 3 -14l11 -11q7 -5 13.5 -11.5t8.5 -15.5q3 -12 -3.5 -22t-19.5 -10zM1095 -285q-13 0 -19 8.5t-7 20.5l12 3q0 -5 2 -11.5t7 -8.5q7 -3 11.5 0.5t4.5 9.5q0 11 -9 18.5l-16 13.5q-8 8 -11.5 21t7.5 21q5 5 13 5.5
t14 -2.5q7 -2 10 -9t4 -14l-12 -4l-2 10.5t-6 7.5t-9.5 0.5t-6.5 -6.5q-3 -8 3 -14l11 -11q7 -6 13.5 -12.5t8.5 -15.5q3 -12 -3.5 -21.5t-19.5 -9.5zM855 256l-22 100h13l15 -73l16 73h12l-22 -100h-12zM914 -284l-23 99h13l16 -73l14 73h13l-22 -99h-11zM759 256v100h39
v-10h-24v-33h20v-10h-20v-37h25v-10h-40zM683 -161v99h39v-10h-24v-33h20v-10h-20v-37h24v-9h-39zM958 -284v99h39v-10h-25v-32h20v-10h-20v-37h25v-10h-39zM552 -284v99h38v-10h-25v-32h21v-10h-21v-37h25v-10h-38zM591 256v100h39v-10h-25v-33h20v-10h-20v-37h25v-10h-39z
M426 -150q9 -4 13 -1t5.5 9t1.5 13.5v12.5q0 8 1 23.5t-7 19.5q-10 5 -15 -1.5t-5 -14.5v-16q0 -3 -0.5 -10t-0.5 -14t1.5 -13t5.5 -8zM1179 -272q8 -4 12.5 -1.5t6 8.5t1.5 13.5v12.5q0 4 0.5 10.5t0 13t-2 12t-5.5 7.5q-10 5 -14.5 -1.5t-4.5 -14.5v-15q0 -3 -0.5 -10
t-0.5 -14.5t1.5 -13.5t5.5 -7zM342 -272q8 -4 12.5 -1.5t6 8.5t1.5 13.5v12.5q0 4 0.5 10.5t0.5 13t-1.5 12t-5.5 7.5q-11 5 -15.5 -1.5t-4.5 -14.5q-1 -4 -0.5 -7.5t0.5 -7.5q0 -3 -0.5 -10t-0.5 -14.5t1.5 -13.5t5.5 -7zM359 -161v99h39v-10h-24v-33h19v-10h-19v-46h-15z
M762 -161v99h38v-10h-25v-33h19v-10h-19v-46h-13zM1141 -152q8 0 14.5 1.5t8.5 12.5v26v25q-1 11 -7.5 13t-15.5 2v-80zM576 -161v89h-18v10h50v-10h-18v-89h-14zM1029 256v90h-18v10h49v-10h-17v-90h-14zM820 -284v99h13v-89h26v-10h-39zM877 -161v99h13v-90h25v-9h-38z
M925 -161v99h14v-90h25v-9h-39zM543 256v100h13v-90h25v-10h-38zM900 256v100h14v-100h-14zM1057 693h33l-17 88zM358 -7h36v40h-36v-40zM1040 175q5 0 11.5 0.5t10.5 -3.5q5 -8 4.5 -24.5t-5.5 -24.5q-5 -5 -10.5 -5h-10.5v57zM729 -284v99h14v-99h-14zM1130 -284v99h14
v-99h-14zM988 256v100h14v-100h-14zM1186 403v27h26v-27h-26zM498 312h7t8 2q5 2 6 7.5t1 10.5q-1 11 -7 12.5t-15 1.5v-34zM488 -105q9 0 15.5 3t6.5 14t-6 13.5t-16 2.5v-33zM1022 -227q9 0 15.5 2.5t6.5 13.5t-6.5 13.5t-15.5 2.5v-32zM616 -227q9 0 15 2.5t6 13.5
t-6 13.5t-15 2.5v-32zM773 -249h17l-8 45zM1016 -126h17l-8 45zM655 292h17l-8 45zM927 75l7 42l6 -42h-13zM821 -7q12 0 22 5q12 7 19 21t8.5 30.5t-3.5 32t-15 24.5q15 12 17 28q2 13 0.5 26t-7 23.5t-16 17t-25.5 6.5h-47v-214h47zM810 94h10.5t9.5 -5q3 -4 4.5 -12.5
t2 -18t-1 -18t-4.5 -12.5t-9.5 -3.5t-11.5 0.5v69zM810 175q5 0 11.5 0.5t9.5 -3.5q6 -8 5.5 -24.5t-6.5 -24.5q-4 -5 -9.5 -5h-10.5v57zM1346 -7v77l-41 137h35l26 -93l25 93h34l-6.5 -23l-8 -27.5t-11.5 -37.5l-17 -53v-73h-36zM1155 207h-36v-214h78v31h-42v183z" />
    <glyph glyph-name="nine" unicode="9" 
d="M173 207l-25 -134l-24 134h-35l-3 -214h32l1 87l17 -87h25l17 88l1 -88h32l-2 214h-36zM823 623q-21 0 -34.5 11t-16.5 31q-2 10 -2 19v19q0 20 -1 42t5 42q5 17 17 24.5t29 8.5t31 -5t20 -23q8 -19 7 -42t-1 -43q0 -11 -0.5 -22.5t-2.5 -22.5q-9 -39 -51 -39zM773 401
q-44 0 -52 42q-2 10 -1.5 19.5t0.5 19.5q0 20 -1 42t4 41q5 17 17 25t29 8q17 1 31 -5t21 -23q8 -19 6 -41.5t-2 -42.5v-23t-2 -22q-4 -20 -17 -30t-33 -10zM1052 207h-48v-214h36v94h10l14 -94h36l-18 103q15 13 18 38q1 13 -0.5 26t-7 23.5t-15.5 17t-25 6.5zM302 104
l-37 103h-27v-214h33v105l37 -105h27v214h-33v-103zM571 73h21v-14t-1.5 -18t-6 -14.5t-13.5 -2.5q-6 2 -8 7.5t-3 12.5t-0.5 14t0.5 12v51q0 11 -0.5 23t2.5 23q5 11 16 9q10 -3 11 -13q2 -8 1.5 -16t-0.5 -16h36q0 18 -2.5 39t-20.5 32q-11 6 -24 6.5t-24 -2.5
q-15 -5 -21.5 -17.5t-9.5 -26.5q-2 -15 -1.5 -30.5t0.5 -31.5q0 -15 -0.5 -29.5t1.5 -29.5q2 -13 6.5 -25t15.5 -19q11 -8 26.5 -7.5t25.5 10.5l1 -7h28v111h-56v-31zM917 207l-39 -214h36l8 50h23l8 -50h36l-38 214h-34zM536 625v194q18 0 38.5 0.5t36.5 -8.5
q11 -6 16.5 -19t5.5 -27.5t-6 -26.5t-18 -16l27 -97h-27l-25 91h-21v-91h-27zM482 104l-18 20l-11 10.5t-8 13.5q-3 8 -0.5 18.5t13.5 9.5q6 -1 8.5 -5.5t3.5 -11t1.5 -13t0.5 -10.5l33 2q0 19 -4.5 38.5t-22.5 28.5q-12 5 -23.5 4t-21 -6.5t-16 -15t-7.5 -21.5
q-2 -13 0 -25.5t10 -23.5q3 -6 8 -10.5t9 -9.5l23 -25t12 -30q0 -5 -1.5 -11t-7.5 -7q-9 -3 -14 8q-5 8 -5.5 18t-1.5 20l-33 -3q0 -13 1.5 -25.5t6.5 -25.5q8 -15 22 -21.5t30 -3.5q17 3 26.5 15.5t11.5 27.5q2 20 -4.5 38t-20.5 32zM323 625v194h42q14 0 27 -3.5t21 -17.5
q8 -17 7 -39t-16 -34q-11 -9 -25.5 -9.5t-28.5 -0.5v-90h-27zM1250 88h34v30h-34v57h42v32h-78v-214h78v31h-42v64zM852 403v194h18l56 -129v129h23v-194h-18l-56 132v-132h-23zM904 625v194h18l55 -129v129h22v-194h-17l-56 132v-132h-22zM398 404q-18 -7 -38.5 -1
t-28.5 26q-5 11 -5.5 22.5t-0.5 24.5v121h26v-129q0 -11 1.5 -25.5t15.5 -19.5q10 -4 17 -1t11 10t5.5 15.5t1.5 16.5q1 16 0.5 31t-0.5 31v71h26v-89q0 -12 1 -28t-1.5 -31t-9 -27.5t-21.5 -17.5zM1019 625l42 194h25l41 -194h-25l-9 48h-40l-9 -48h-25zM503 401
q-25 0 -37.5 16.5t-13.5 40.5l24 6q1 -9 2.5 -18.5t8.5 -16.5q6 -6 15 -6.5t16 4.5q8 7 7 18.5t-6 19.5q-4 6 -9.5 11l-11.5 10q-9 9 -20 18t-18 20q-12 19 -6.5 42.5t27.5 30.5q11 3 24.5 2t22.5 -8q10 -8 13.5 -19.5t4.5 -22.5l-22 -7q-1 11 -4.5 22.5t-16.5 13.5
q-9 1 -16.5 -3t-9.5 -14q-2 -8 0.5 -14.5t7.5 -12.5t11.5 -11l11.5 -9q13 -11 24.5 -23.5t15.5 -29.5q5 -23 -7.5 -41.5t-37.5 -18.5zM706 623q-24 0 -37 16.5t-14 39.5l24 6q1 -9 3 -18.5t8 -15.5t15 -7t16 5q8 7 7 18.5t-6 19.5q-4 6 -9.5 11l-11.5 10l-20 17t-18 20
q-6 10 -7.5 21.5t1 22t9.5 18.5t18 11t24.5 2t22.5 -8q10 -7 13.5 -19t4.5 -23l-22 -6q-1 11 -4.5 22.5t-16.5 13.5q-9 1 -16.5 -3.5t-9.5 -13.5q-3 -17 8.5 -28t22.5 -20q13 -11 24.5 -23t15.5 -29q5 -23 -7.5 -41.5t-37.5 -18.5zM643 -34h32l59 268h-34zM439 625v194h75
v-20h-48v-64h39v-20h-39v-71h49v-19h-76zM571 403v194h75v-20h-48v-64h39v-19h-39v-72h48v-19h-75zM811 646q12 -5 26 0q7 4 9 10.5t3 13.5v23v67q0 8 -0.5 17t-6.5 16q-5 5 -11.5 6.5t-12.5 -0.5q-14 -1 -19 -17q-4 -14 -2.5 -31t1.5 -31v-36q0 -10 1 -21.5t12 -16.5z
M759 424q5 -2 13 -2t13 2q7 4 9.5 11t3.5 14q1 5 0.5 11t-0.5 11v68q0 8 -0.5 17t-6.5 15q-5 5 -11.5 6.5t-13.5 0.5q-14 -3 -18 -18q-3 -14 -2 -30.5t1 -31.5v-35q0 -11 1 -22.5t11 -16.5zM1103 403v41q0 7 1 14.5t-1 14.5q-2 10 -5.5 19t-7.5 18l-28 87h25l30 -93l28 93
h26l-12.5 -40l-13.5 -40l-14 -41q-2 -6 -2 -12.5v-12.5v-48h-26zM1147 625v194h27v-175h50v-19h-77zM979 403v194h27v-175h49v-19h-76zM433 -162q-11 0 -17 5.5t-8.5 13.5t-2.5 17.5v17.5t0.5 17t3.5 15.5t9 11t18 3.5q10 -1 15 -6t7.5 -12.5t2.5 -16.5v-16q0 -8 -0.5 -16.5
t-3 -16t-8 -12.5t-16.5 -5zM1127 -161v99q10 0 22.5 0.5t20.5 -6.5q8 -8 8 -20.5v-23.5v-23.5t-10 -20.5q-8 -6 -20 -5.5t-21 0.5zM1185 -285q-11 0 -17 5.5t-8 13.5t-2 17.5v17.5q0 9 0.5 17.5t3.5 15.5t9 11t18 3q10 -1 15 -6t6.5 -12.5t1.5 -16.5v-16v-16.5t-2.5 -16
t-8 -12.5t-16.5 -5zM349 -285q-12 0 -17.5 5.5t-7.5 13.5t-2 17.5v17.5q0 9 0.5 17.5t3.5 15.5t9 11t17 3q10 -1 15 -6t7 -12.5t2 -16.5v-16v-16.5t-2.5 -16t-8 -12.5t-16.5 -5zM601 -284v99q9 0 19.5 1t18.5 -4q6 -3 9 -9.5t3 -14t-3 -14t-10 -8.5l15 -50h-14l-12 47h-11
v-47h-15zM389 -284l2 99h14l18 -80l17 80h13l2 -99h-11l-1 72l-17 -72h-8l-16 72l-1 -72h-12zM470 -284l2 99h14l17 -80l18 80h14l1 -99h-10l-2 72l-17 -72h-8l-16 72l-2 -72h-11zM1008 -284v99q9 0 19 1t18 -4q6 -3 9 -9.5t3 -14t-3 -14t-9 -8.5l14 -50h-14l-12 47h-11v-47
h-14zM474 -161v99q9 0 19 1t18 -4q6 -3 9 -10t3.5 -14.5t-2.5 -14t-10 -8.5l14 -49h-13l-14 46h-10v-46h-14zM484 256v100h25.5t20.5 -11q4 -8 3.5 -19.5t-8.5 -17.5q-6 -5 -13 -5.5t-14 -0.5v-46h-14zM1062 -161v99h9l28 -66v66h12v-99h-9l-28 67v-67h-12zM615 -161v99h13
v-43h27v43h13v-99h-13v46h-27v-46h-13zM1227 -284v99h9l28 -66v66h11v-99h-9l-28 67v-67h-11zM636 256l21 100h14l21 -100h-14l-4 26h-20l-5 -26h-13zM753 -284l22 99h13l21 -99h-13l-4 25h-21l-5 -25h-13zM997 -161l20 99h14l21 -99h-13l-5 25h-20l-5 -25h-12zM1194 445
l-8 152h26l-9 -152h-9zM846 -161q-14 -5 -24.5 2t-12.5 21q-1 6 -0.5 12t0.5 11v53h13v-44q0 -5 -0.5 -12.5t0 -15t3.5 -13t10 -5.5t10 5.5t4 13t0.5 15t-0.5 12.5v44h12v-45q0 -6 0.5 -14.5t-0.5 -16t-4.5 -14t-10.5 -9.5zM350 735q7 0 14 -0.5t14 1.5q11 3 13.5 11t2.5 17
q1 11 -1.5 21t-14.5 13q-7 2 -14 1.5t-14 -0.5v-64zM563 735h14t14 2q10 5 13 13.5t2 18.5q0 9 -2.5 16.5t-12.5 11.5q-7 2 -14 2h-14v-64zM285 -285q-13 0 -18.5 7t-7.5 17.5t-1.5 22.5t0.5 21q0 14 7 24.5t23 8.5t19 -13t3 -23h-13q0 5 0.5 9.5t-1.5 9.5q-2 6 -9.5 6.5
t-11.5 -4.5q-4 -6 -3 -17.5t1 -18.5t-1 -18t4 -17q3 -5 10.5 -4t9.5 7q2 5 1.5 10t-0.5 10h13q0 -14 -4 -26t-21 -12zM690 -285q-13 0 -18.5 7t-7 17.5t-1 22.5t0.5 21q0 14 6.5 24.5t22.5 8.5t19 -13t3 -23h-13q0 5 0.5 9.5t-1.5 9.5q-2 6 -9.5 6.5t-11.5 -4.5
q-5 -6 -4 -17.5t1 -18.5t-0.5 -18t4.5 -17q3 -5 10.5 -4t9.5 7q2 5 1.5 10t-0.5 10h13q0 -14 -4 -26t-21 -12zM953 255q-13 0 -19 8.5t-7 20.5l13 4q0 -5 2 -12t7 -9q7 -2 11 1.5t4 9.5q1 11 -8 18t-16 14q-9 8 -12.5 20.5t7.5 21.5q5 4 13 4.5t14 -1.5q7 -3 10 -10t4 -14
l-12 -3l-2 10t-6 8q-4 2 -9 0t-6 -7q-4 -8 2.5 -14l11.5 -11q6 -5 12.5 -11.5t8.5 -15.5q3 -12 -3 -22t-20 -10zM725 255q-13 0 -19 8.5t-7 20.5l12 4q0 -5 2 -12t7 -9q7 -2 11.5 1.5t4.5 9.5q0 11 -9 18t-16 14q-8 8 -11.5 20.5t7.5 21.5q5 4 13 4.5t14 -1.5q7 -3 10 -10
t4 -14l-12 -3l-2 10t-6 8q-5 2 -9.5 0t-6.5 -7q-3 -8 3 -14l11 -11q7 -5 13.5 -11.5t8.5 -15.5q3 -12 -3.5 -22t-19.5 -10zM1095 -285q-13 0 -19 8.5t-7 20.5l12 3q0 -5 2 -11.5t7 -8.5q7 -3 11.5 0.5t4.5 9.5q0 11 -9 18.5l-16 13.5q-8 8 -11.5 21t7.5 21q5 5 13 5.5
t14 -2.5q7 -2 10 -9t4 -14l-12 -4l-2 10.5t-6 7.5t-9.5 0.5t-6.5 -6.5q-3 -8 3 -14l11 -11q7 -6 13.5 -12.5t8.5 -15.5q3 -12 -3.5 -21.5t-19.5 -9.5zM855 256l-22 100h13l15 -73l16 73h12l-22 -100h-12zM914 -284l-23 99h13l16 -73l14 73h13l-22 -99h-11zM759 256v100h39
v-10h-24v-33h20v-10h-20v-37h25v-10h-40zM683 -161v99h39v-10h-24v-33h20v-10h-20v-37h24v-9h-39zM958 -284v99h39v-10h-25v-32h20v-10h-20v-37h25v-10h-39zM552 -284v99h38v-10h-25v-32h21v-10h-21v-37h25v-10h-38zM591 256v100h39v-10h-25v-33h20v-10h-20v-37h25v-10h-39z
M426 -150q9 -4 13 -1t5.5 9t1.5 13.5v12.5q0 8 1 23.5t-7 19.5q-10 5 -15 -1.5t-5 -14.5v-16q0 -3 -0.5 -10t-0.5 -14t1.5 -13t5.5 -8zM1179 -272q8 -4 12.5 -1.5t6 8.5t1.5 13.5v12.5q0 4 0.5 10.5t0 13t-2 12t-5.5 7.5q-10 5 -14.5 -1.5t-4.5 -14.5v-15q0 -3 -0.5 -10
t-0.5 -14.5t1.5 -13.5t5.5 -7zM342 -272q8 -4 12.5 -1.5t6 8.5t1.5 13.5v12.5q0 4 0.5 10.5t0.5 13t-1.5 12t-5.5 7.5q-11 5 -15.5 -1.5t-4.5 -14.5q-1 -4 -0.5 -7.5t0.5 -7.5q0 -3 -0.5 -10t-0.5 -14.5t1.5 -13.5t5.5 -7zM359 -161v99h39v-10h-24v-33h19v-10h-19v-46h-15z
M762 -161v99h38v-10h-25v-33h19v-10h-19v-46h-13zM1141 -152q8 0 14.5 1.5t8.5 12.5v26v25q-1 11 -7.5 13t-15.5 2v-80zM576 -161v89h-18v10h50v-10h-18v-89h-14zM1029 256v90h-18v10h49v-10h-17v-90h-14zM820 -284v99h13v-89h26v-10h-39zM877 -161v99h13v-90h25v-9h-38z
M925 -161v99h14v-90h25v-9h-39zM543 256v100h13v-90h25v-10h-38zM900 256v100h14v-100h-14zM1057 693h33l-17 88zM358 -7h36v40h-36v-40zM1040 175q5 0 11.5 0.5t10.5 -3.5q5 -8 4.5 -24.5t-5.5 -24.5q-5 -5 -10.5 -5h-10.5v57zM729 -284v99h14v-99h-14zM1130 -284v99h14
v-99h-14zM988 256v100h14v-100h-14zM1186 403v27h26v-27h-26zM498 312h7t8 2q5 2 6 7.5t1 10.5q-1 11 -7 12.5t-15 1.5v-34zM488 -105q9 0 15.5 3t6.5 14t-6 13.5t-16 2.5v-33zM1022 -227q9 0 15.5 2.5t6.5 13.5t-6.5 13.5t-15.5 2.5v-32zM616 -227q9 0 15 2.5t6 13.5
t-6 13.5t-15 2.5v-32zM773 -249h17l-8 45zM1016 -126h17l-8 45zM655 292h17l-8 45zM927 75l7 42l6 -42h-13zM821 -7q12 0 22 5q12 7 19 21t8.5 30.5t-3.5 32t-15 24.5q15 12 17 28q2 13 0.5 26t-7 23.5t-16 17t-25.5 6.5h-47v-214h47zM810 94h10.5t9.5 -5q3 -4 4.5 -12.5
t2 -18t-1 -18t-4.5 -12.5t-9.5 -3.5t-11.5 0.5v69zM810 175q5 0 11.5 0.5t9.5 -3.5q6 -8 5.5 -24.5t-6.5 -24.5q-4 -5 -9.5 -5h-10.5v57zM1346 -7v77l-41 137h35l26 -93l25 93h34l-6.5 -23l-8 -27.5t-11.5 -37.5l-17 -53v-73h-36zM1155 207h-36v-214h78v31h-42v183z" />
    <glyph glyph-name="asterisk" unicode="*" horiz-adv-x="295" 
d="M322 453q13 1 19 -9t5.5 -22.5t-7 -24t-16.5 -13.5q-7 -2 -21.5 -4t-33.5 -5q8 -5 18 -10l21 -10q12 -6 14 -17.5t-4 -22t-18 -17.5t-26 -4q-17 3 -29 18.5t-19 32.5q-1 -8 -0.5 -16.5t0.5 -19.5q0 -15 -10.5 -22.5t-24.5 -8.5t-27.5 6t-17.5 22q-5 12 0 25.5t13 27.5
q-30 -3 -43 -3q-13 1 -18 7.5t-3.5 15t8.5 17t19 14.5q5 2 16 4.5t26 6.5q-8 5 -16.5 9l-18.5 9q-12 6 -14 17.5t4 22t18 17.5t26 4q17 -3 28 -17.5t19 -31.5q1 10 0.5 21t-0.5 24q0 15 10.5 23t24.5 9t27.5 -6t18.5 -22q4 -13 -1 -27t-13 -28l46 8v0z" />
    <glyph glyph-name="onehalf" unicode="&#xbd;" horiz-adv-x="688" 
d="M128 134q42 53 88.5 101t91.5 88t86 71t71 51q31 20 57 29.5t39 7.5t9 -17.5t-34 -44.5l-66.5 -65t-79 -80t-85.5 -95.5t-86 -111.5t-78.5 -78t-54 -4.5t-10 53t51.5 95.5zM559 369q54 0 84 -50q25 -40 5 -97q-18 -56 -70 -106.5t-126 -83.5q30 -11 59 -11q19 0 33 3.5
t22 8.5q6 3 11 3q11 0 13 -13q0 -8 -5.5 -20.5t-18 -25t-31 -22.5t-43.5 -12q-3 0 -6 -0.5t-6 -0.5q-32 0 -56.5 12t-45.5 25q-31 -25 -65 -25q-22 0 -33 11q-11 9 -11 26q0 13 6.5 26t18.5 23.5t28 17t36 6.5q14 0 29 -3q36 24 69.5 52.5t58 55.5t36.5 50t6 37
q-4 10 -17 10q-21 0 -50.5 -26.5t-49.5 -77.5q-4 -11 -9 -14.5t-10 -3.5q-11 0 -19 14q-4 7 -7 19.5t-3 27.5t4.5 31.5t14.5 33.5q26 45 66.5 72t81.5 27zM332 537q9 -17 -17 -66l-25 -46.5l-39.5 -72l-49 -86.5l-52.5 -89q-20 -31 -39.5 -39t-30.5 -8q-16 0 -29 7.5
t-20 21.5q-8 14 -7 30.5t12 32.5q11 19 28 35.5l36 33.5q21 18 42 39q-21 -8 -37 -8q-21 0 -31 10t-12 21q-2 13 4.5 23.5t19.5 15.5q88 29 162 105l6 5q42 42 65 42q10 0 14 -7z" />
    <glyph glyph-name="onequarter" unicode="&#xbc;" horiz-adv-x="688" 
d="M639 371q9 0 13 -7q10 -16 -15 -68l-46.5 -96t-36.5 -82q17 4 28 12q9 6 15 6t11.5 -5t5.5 -18q0 -10 -4 -22.5t-12.5 -24t-21.5 -20t-31 -8.5h-3h-10t-10 1l-13 -39q-8 -28 -25 -43.5t-39 -15.5q-15 0 -28 7.5t-21 21.5t-7 30t10 31l18 28l-39 10t-34 10
q-38 -18 -69 -18q-30 0 -43 15l-6 -8q-42 -60 -78.5 -78t-54 -4.5t-10.5 53t52 95.5q42 53 88.5 101t91.5 88t85.5 71t71.5 51q30 20 56 29.5t39 7.5t9 -17.5t-33 -44.5l-116 -115t-140 -155q6 -1 11.5 -1.5t11.5 -2.5q143 60 256 174q48 51 73 51zM332 537q10 -15 -17 -66
l-25 -46.5l-39.5 -72l-49 -86.5l-52.5 -89q-19 -31 -39 -39t-31 -8q-33 0 -49 29q-8 14 -7 30.5t12 32.5q12 19 28.5 35.5t35.5 33.5q21 18 42 39q-21 -8 -37 -8q-21 0 -31 10t-12 21q-2 13 4.5 23.5t19.5 15.5q87 29 163 105l5 5q42 42 66 42q9 0 13 -7zM504 197
q-20 -19 -43.5 -38.5t-49.5 -38.5q11 -2 21.5 -3l20.5 -2q12 17 24.5 37t26.5 45z" />
    <glyph glyph-name="threequarters" unicode="&#xbe;" horiz-adv-x="720" 
d="M678 371q10 0 14 -7q9 -17 -16 -68q-26 -52 -46 -96l-37 -82q19 5 29 12q7 6 15 6q6 0 11 -5t5 -18q0 -10 -4 -22.5t-12.5 -24t-21.5 -20t-30 -8.5h-4h-9.5t-9.5 1q-5 -11 -8 -20.5l-6 -18.5q-8 -28 -25 -43.5t-39 -15.5q-15 0 -28 7.5t-21 21.5q-16 29 3 61l18 28
l-72 20q-38 -18 -70 -18q-27 0 -40 13q-2 -2 -4 -6q-42 -60 -78.5 -78t-54 -4.5t-10.5 53t52 95.5q-17 -3 -34 -3q-37 0 -58.5 12t-32.5 24q-17 20 -21 38.5t-4 27.5q0 17 6 27t15 10q10 0 19 -12q25 -34 58 -34q20 0 40 12.5t35 33.5q14 20 19 41t0 40q-15 -5 -27 -5
q-20 0 -32 7t-12 21q0 15 18 28t50 13h3q13 14 23 28.5l19 28.5q0 2 2 4q-14 2 -27 3.5t-26 1.5q-39 0 -63 -18q-6 -4 -10 -4q-10 0 -13 13q-3 16 9.5 39.5t43.5 36.5q21 10 47 10q24 0 46 -7.5t42 -17.5q25 18 63 18q23 0 34 -12.5t11 -26.5q0 -18 -15 -33q-17 -14 -42 -14
l-29 -27l-27 -25.5t-27 -23.5q17 -20 23.5 -50.5t0.5 -64.5q59 58 114.5 101.5t94.5 69.5q31 20 57 29.5t39 7.5t9 -17.5t-33 -44.5l-116 -115t-140 -156q9 0 18 -3q73 30 137 73.5t120 100.5q46 51 72 51zM543 197q-20 -19 -43 -38.5t-49 -38.5q11 -2 21 -3l21 -2
q24 35 50 82z" />
    <glyph glyph-name="onesuperior" unicode="&#xb9;" horiz-adv-x="317" 
d="M352 537q9 -17 -17 -66l-25 -46.5l-39.5 -72l-49 -86.5l-53.5 -89q-19 -31 -38.5 -39t-30.5 -8q-34 0 -50 29t6 63q11 19 28 35.5l36 33.5l20.5 18.5t21.5 20.5q-22 -8 -37 -8q-21 0 -31 10t-12 21q-2 13 4.5 23.5t18.5 15.5q88 29 163 105l5 5q44 42 66 42q10 0 14 -7z
" />
    <glyph glyph-name="ordmasculine" unicode="&#xba;" horiz-adv-x="350" 
d="M292 563q48 0 74 -35q22 -31 22 -83q0 -48 -18 -102t-50 -100q-36 -53 -80 -80.5t-91 -27.5q-54 0 -81 36q-26 32 -26 88q0 48 19 100.5t52 97.5q37 51 83 78.5t96 27.5zM120 309q-7 -17 -9 -36t11 -30q11 -8 24 -8q19 0 42 14t45 36t40.5 48.5t29.5 52.5q3 8 6.5 18.5
t4.5 22t-1 21.5t-10 18q-8 9 -21 9q-19 0 -43.5 -16t-47.5 -40.5t-42.5 -53.5t-28.5 -56z" />
    <glyph glyph-name="twosuperior" unicode="&#xb2;" horiz-adv-x="392" 
d="M392 410q-19 -55 -71 -105.5t-126 -83.5q14 -6 29 -8.5t30 -2.5q19 0 33 3t22 8q5 4 11 4q13 0 13 -13q0 -8 -5.5 -21t-17.5 -25.5t-30.5 -22.5t-43.5 -12h-13q-32 0 -56.5 11.5t-45.5 25.5q-30 -26 -65 -26q-20 0 -33 11q-11 11 -11 27q0 13 6.5 26t18.5 23.5t28 17
t36 6.5q16 0 29 -4q36 24 69.5 52.5t58 55.5t36.5 50.5t6 37.5q-5 9 -17 9q-22 0 -51 -26.5t-49 -77.5q-4 -11 -9 -14.5t-10 -3.5q-10 0 -19 15q-4 7 -7 19t-3 27t4.5 32t14.5 34q26 45 66.5 72t81.5 27q53 0 84 -50q24 -41 6 -98z" />
    <glyph glyph-name="threesuperior" unicode="&#xb3;" horiz-adv-x="397" 
d="M349 438l-26.5 -25.5l-26.5 -23.5q23 -25 26.5 -66.5t-13.5 -83.5q-20 -51 -60 -79.5t-91 -28.5q-37 0 -58.5 12t-32.5 24q-17 20 -21 38.5t-4 27.5q0 17 6 27t15 10q10 0 19 -12q25 -34 58 -34q20 0 40 12.5t35 33.5q30 41 19 81q-15 -5 -27 -5q-11 0 -18.5 2t-13.5 5
q-12 7 -12 21q0 15 18 28t50 13h3q13 14 23 28.5l19 28.5l2 4q-14 2 -27 3.5t-26 1.5q-40 0 -62 -18q-3 -2 -5.5 -3t-5.5 -1q-10 0 -13 13q-3 16 9.5 39.5t43.5 36.5q21 10 47 10q24 0 46 -7.5t42 -17.5q25 18 63 18q23 0 34 -12.5t11 -26.5q0 -20 -15 -33q-16 -14 -42 -14z
" />
    <glyph glyph-name="percent" unicode="%" horiz-adv-x="545" 
d="M68 127q11 13 23 25l25 24q-26 13 -33 42.5t1 66t29 75.5t51 71.5t68 53t80 20.5q46 0 59.5 -35t1.5 -84l62 39q32 19 59 28t39.5 7t7 -16.5t-37.5 -42.5l-72 -62q31 -8 41 -36.5t3.5 -67t-27 -80.5t-51 -77.5t-69 -59t-79.5 -23.5q-45 0 -63 26t-16 65l-18 -22
q-48 -57 -86 -74.5t-54 -4.5t-5 51t61 91zM261 113q21 -18 48.5 -9t49 31.5t30 50.5t-10.5 48q-10 11 -25.5 9t-32 -12.5t-32 -26.5t-25 -33.5t-11.5 -33t9 -24.5zM175 284q11 -10 26.5 -8.5t32 11t31 24t23.5 31t10.5 32t-8.5 26.5q-12 12 -28.5 11.5t-33.5 -9.5t-32 -24.5
t-24 -32.5t-9.5 -33.5t12.5 -27.5z" />
    <glyph glyph-name="ring" unicode="&#x2da;" horiz-adv-x="233" 
d="M117 581q24 0 44.5 -8t36 -22t24.5 -33t9 -40t-9 -40t-24.5 -33t-36 -22t-44.5 -8t-44.5 8t-36.5 22t-25 33t-9 40t9 40t25 33t36.5 22t44.5 8zM152 478q5 18 1 31t-24 13t-31 -13t-16 -31q-5 -19 -1 -31.5t24 -12.5t31 12.5t16 31.5z" />
    <glyph glyph-name="caron" unicode="&#x2c7;" horiz-adv-x="277" 
d="M250 480q-13 -4 -29 -9.5t-32 -13.5t-31.5 -18.5t-27.5 -24.5q-15 -17 -31 -25t-29.5 -8t-22.5 7t-10 22l-3.5 26t-4.5 20.5t-8 19t-12 20.5q-12 19 -4 34t24.5 22t36.5 4.5t31 -18.5q11 -17 14 -36t7 -37l29 30q27 27 62 51q19 13 35.5 6.5t24.5 -20.5t4.5 -30
t-23.5 -22z" />
    <glyph glyph-name="ogonek" unicode="&#x2db;" horiz-adv-x="262" 
d="M223 10q-60 -26 -88 -54t-30 -49t19 -29.5t59 4.5q21 7 22.5 -0.5t-10 -21t-33 -28.5t-46 -23t-50 -5.5t-45.5 25.5q-23 26 -18.5 56.5t32.5 59.5t76.5 54t114.5 40q12 3 21.5 2.5t11.5 -4.5t-5.5 -10.5t-30.5 -16.5z" />
    <glyph glyph-name="circumflex" unicode="&#x2c6;" horiz-adv-x="277" 
d="M27 470q26 7 60.5 22.5t59.5 43.5q15 16 31 24.5t29.5 8.5t22.5 -7t10 -22q3 -29 8.5 -46.5t19.5 -39.5q12 -19 4 -34t-24.5 -22t-36.5 -4.5t-31 18.5q-11 17 -14 36t-7 37l-29 -30q-13 -13 -29 -26.5t-33 -24.5q-19 -13 -35.5 -6.5t-24.5 20.5t-4.5 30t23.5 22z" />
    <glyph glyph-name="tilde" unicode="&#x2dc;" horiz-adv-x="288" 
d="M17 443q23 31 46 43.5t45 13t42.5 -6t37.5 -13t30.5 -9.5t22.5 6q15 15 27.5 16.5t16 -9t-5 -31.5t-35.5 -50q-16 -17 -33.5 -19.5t-35 3t-34.5 15.5t-33 17t-30 7t-25 -13q-12 -15 -24 -19t-19.5 1t-7 17.5t14.5 30.5z" />
    <glyph glyph-name="macron" unicode="&#xaf;" horiz-adv-x="272" 
d="M37 487q6 2 22 4.5t36.5 5t44 5t44 4t36 2t21.5 0.5q18 -1 24.5 -16t3.5 -32t-14 -32t-27 -16q-11 0 -40.5 -1t-63 -1.5t-63.5 0.5t-40 4q-12 4 -16 14t-1.5 21t11.5 22t22 16z" />
    <glyph glyph-name="cedilla" unicode="&#xb8;" horiz-adv-x="293" 
d="M224 54q26 8 36 -1t-1 -23q-14 -17 -33 -34t-32 -42q16 1 33 -2.5t31.5 -12.5t23.5 -24t9 -37q0 -34 -22 -58.5t-55 -38t-72 -15t-73 12.5q-35 14 -49.5 36t-16 40t7 26.5t20.5 -3.5q15 -16 43 -23.5t55.5 -6.5t48 9.5t20.5 25.5q0 10 -7.5 15t-18.5 6t-24.5 -1.5
t-24.5 -6.5q-12 -5 -20 -1.5t-12.5 11t-4.5 18t5 20.5q17 34 49.5 63.5t83.5 46.5z" />
    <glyph glyph-name="acute" unicode="&#xb4;" horiz-adv-x="224" 
d="M28 450q17 13 34.5 29.5l34.5 34l32.5 33.5t29.5 28q21 17 41.5 13t31.5 -20t7 -39.5t-34 -44.5q-33 -25 -77 -41t-85 -34q-15 -6 -25 -5t-13 7.5t2 17t21 21.5z" />
    <glyph glyph-name="grave" unicode="`" horiz-adv-x="153" 
d="M156 446q11 -17 12.5 -29t-4 -18t-16 -5t-23.5 10l-32 24t-26 23t-23 26t-23 32q-20 31 -14.5 55t22.5 35.5t37.5 7t31.5 -29.5l23 -62.5t35 -68.5z" />
    <glyph glyph-name="dieresis" unicode="&#xa8;" horiz-adv-x="276" 
d="M130 471q0 -26 -19 -45t-45 -19t-45 19t-19 45t19 45t45 19t45 -19t19 -45zM274 471q0 -26 -19 -45t-46 -19q-26 0 -45 19t-19 45t19 45t45 19q27 0 46 -19t19 -45z" />
    <glyph glyph-name="dotaccent" unicode="&#x2d9;" horiz-adv-x="147" 
d="M145 478q0 -29 -21 -50t-51 -21q-29 0 -50 21t-21 50q0 30 21 51t50 21q30 0 51 -21t21 -51z" />
    <glyph glyph-name="zero" unicode="0" 
d="M173 207l-25 -134l-24 134h-35l-3 -214h32l1 87l17 -87h25l17 88l1 -88h32l-2 214h-36zM823 623q-21 0 -34.5 11t-16.5 31q-2 10 -2 19v19q0 20 -1 42t5 42q5 17 17 24.5t29 8.5t31 -5t20 -23q8 -19 7 -42t-1 -43q0 -11 -0.5 -22.5t-2.5 -22.5q-9 -39 -51 -39zM773 401
q-44 0 -52 42q-2 10 -1.5 19.5t0.5 19.5q0 20 -1 42t4 41q5 17 17 25t29 8q17 1 31 -5t21 -23q8 -19 6 -41.5t-2 -42.5v-23t-2 -22q-4 -20 -17 -30t-33 -10zM1052 207h-48v-214h36v94h10l14 -94h36l-18 103q15 13 18 38q1 13 -0.5 26t-7 23.5t-15.5 17t-25 6.5zM302 104
l-37 103h-27v-214h33v105l37 -105h27v214h-33v-103zM571 73h21v-14t-1.5 -18t-6 -14.5t-13.5 -2.5q-6 2 -8 7.5t-3 12.5t-0.5 14t0.5 12v51q0 11 -0.5 23t2.5 23q5 11 16 9q10 -3 11 -13q2 -8 1.5 -16t-0.5 -16h36q0 18 -2.5 39t-20.5 32q-11 6 -24 6.5t-24 -2.5
q-15 -5 -21.5 -17.5t-9.5 -26.5q-2 -15 -1.5 -30.5t0.5 -31.5q0 -15 -0.5 -29.5t1.5 -29.5q2 -13 6.5 -25t15.5 -19q11 -8 26.5 -7.5t25.5 10.5l1 -7h28v111h-56v-31zM917 207l-39 -214h36l8 50h23l8 -50h36l-38 214h-34zM536 625v194q18 0 38.5 0.5t36.5 -8.5
q11 -6 16.5 -19t5.5 -27.5t-6 -26.5t-18 -16l27 -97h-27l-25 91h-21v-91h-27zM482 104l-18 20l-11 10.5t-8 13.5q-3 8 -0.5 18.5t13.5 9.5q6 -1 8.5 -5.5t3.5 -11t1.5 -13t0.5 -10.5l33 2q0 19 -4.5 38.5t-22.5 28.5q-12 5 -23.5 4t-21 -6.5t-16 -15t-7.5 -21.5
q-2 -13 0 -25.5t10 -23.5q3 -6 8 -10.5t9 -9.5l23 -25t12 -30q0 -5 -1.5 -11t-7.5 -7q-9 -3 -14 8q-5 8 -5.5 18t-1.5 20l-33 -3q0 -13 1.5 -25.5t6.5 -25.5q8 -15 22 -21.5t30 -3.5q17 3 26.5 15.5t11.5 27.5q2 20 -4.5 38t-20.5 32zM323 625v194h42q14 0 27 -3.5t21 -17.5
q8 -17 7 -39t-16 -34q-11 -9 -25.5 -9.5t-28.5 -0.5v-90h-27zM1250 88h34v30h-34v57h42v32h-78v-214h78v31h-42v64zM852 403v194h18l56 -129v129h23v-194h-18l-56 132v-132h-23zM904 625v194h18l55 -129v129h22v-194h-17l-56 132v-132h-22zM398 404q-18 -7 -38.5 -1
t-28.5 26q-5 11 -5.5 22.5t-0.5 24.5v121h26v-129q0 -11 1.5 -25.5t15.5 -19.5q10 -4 17 -1t11 10t5.5 15.5t1.5 16.5q1 16 0.5 31t-0.5 31v71h26v-89q0 -12 1 -28t-1.5 -31t-9 -27.5t-21.5 -17.5zM1019 625l42 194h25l41 -194h-25l-9 48h-40l-9 -48h-25zM503 401
q-25 0 -37.5 16.5t-13.5 40.5l24 6q1 -9 2.5 -18.5t8.5 -16.5q6 -6 15 -6.5t16 4.5q8 7 7 18.5t-6 19.5q-4 6 -9.5 11l-11.5 10q-9 9 -20 18t-18 20q-12 19 -6.5 42.5t27.5 30.5q11 3 24.5 2t22.5 -8q10 -8 13.5 -19.5t4.5 -22.5l-22 -7q-1 11 -4.5 22.5t-16.5 13.5
q-9 1 -16.5 -3t-9.5 -14q-2 -8 0.5 -14.5t7.5 -12.5t11.5 -11l11.5 -9q13 -11 24.5 -23.5t15.5 -29.5q5 -23 -7.5 -41.5t-37.5 -18.5zM706 623q-24 0 -37 16.5t-14 39.5l24 6q1 -9 3 -18.5t8 -15.5t15 -7t16 5q8 7 7 18.5t-6 19.5q-4 6 -9.5 11l-11.5 10l-20 17t-18 20
q-6 10 -7.5 21.5t1 22t9.5 18.5t18 11t24.5 2t22.5 -8q10 -7 13.5 -19t4.5 -23l-22 -6q-1 11 -4.5 22.5t-16.5 13.5q-9 1 -16.5 -3.5t-9.5 -13.5q-3 -17 8.5 -28t22.5 -20q13 -11 24.5 -23t15.5 -29q5 -23 -7.5 -41.5t-37.5 -18.5zM643 -34h32l59 268h-34zM439 625v194h75
v-20h-48v-64h39v-20h-39v-71h49v-19h-76zM571 403v194h75v-20h-48v-64h39v-19h-39v-72h48v-19h-75zM811 646q12 -5 26 0q7 4 9 10.5t3 13.5v23v67q0 8 -0.5 17t-6.5 16q-5 5 -11.5 6.5t-12.5 -0.5q-14 -1 -19 -17q-4 -14 -2.5 -31t1.5 -31v-36q0 -10 1 -21.5t12 -16.5z
M759 424q5 -2 13 -2t13 2q7 4 9.5 11t3.5 14q1 5 0.5 11t-0.5 11v68q0 8 -0.5 17t-6.5 15q-5 5 -11.5 6.5t-13.5 0.5q-14 -3 -18 -18q-3 -14 -2 -30.5t1 -31.5v-35q0 -11 1 -22.5t11 -16.5zM1103 403v41q0 7 1 14.5t-1 14.5q-2 10 -5.5 19t-7.5 18l-28 87h25l30 -93l28 93
h26l-12.5 -40l-13.5 -40l-14 -41q-2 -6 -2 -12.5v-12.5v-48h-26zM1147 625v194h27v-175h50v-19h-77zM979 403v194h27v-175h49v-19h-76zM433 -162q-11 0 -17 5.5t-8.5 13.5t-2.5 17.5v17.5t0.5 17t3.5 15.5t9 11t18 3.5q10 -1 15 -6t7.5 -12.5t2.5 -16.5v-16q0 -8 -0.5 -16.5
t-3 -16t-8 -12.5t-16.5 -5zM1127 -161v99q10 0 22.5 0.5t20.5 -6.5q8 -8 8 -20.5v-23.5v-23.5t-10 -20.5q-8 -6 -20 -5.5t-21 0.5zM1185 -285q-11 0 -17 5.5t-8 13.5t-2 17.5v17.5q0 9 0.5 17.5t3.5 15.5t9 11t18 3q10 -1 15 -6t6.5 -12.5t1.5 -16.5v-16v-16.5t-2.5 -16
t-8 -12.5t-16.5 -5zM349 -285q-12 0 -17.5 5.5t-7.5 13.5t-2 17.5v17.5q0 9 0.5 17.5t3.5 15.5t9 11t17 3q10 -1 15 -6t7 -12.5t2 -16.5v-16v-16.5t-2.5 -16t-8 -12.5t-16.5 -5zM601 -284v99q9 0 19.5 1t18.5 -4q6 -3 9 -9.5t3 -14t-3 -14t-10 -8.5l15 -50h-14l-12 47h-11
v-47h-15zM389 -284l2 99h14l18 -80l17 80h13l2 -99h-11l-1 72l-17 -72h-8l-16 72l-1 -72h-12zM470 -284l2 99h14l17 -80l18 80h14l1 -99h-10l-2 72l-17 -72h-8l-16 72l-2 -72h-11zM1008 -284v99q9 0 19 1t18 -4q6 -3 9 -9.5t3 -14t-3 -14t-9 -8.5l14 -50h-14l-12 47h-11v-47
h-14zM474 -161v99q9 0 19 1t18 -4q6 -3 9 -10t3.5 -14.5t-2.5 -14t-10 -8.5l14 -49h-13l-14 46h-10v-46h-14zM484 256v100h25.5t20.5 -11q4 -8 3.5 -19.5t-8.5 -17.5q-6 -5 -13 -5.5t-14 -0.5v-46h-14zM1062 -161v99h9l28 -66v66h12v-99h-9l-28 67v-67h-12zM615 -161v99h13
v-43h27v43h13v-99h-13v46h-27v-46h-13zM1227 -284v99h9l28 -66v66h11v-99h-9l-28 67v-67h-11zM636 256l21 100h14l21 -100h-14l-4 26h-20l-5 -26h-13zM753 -284l22 99h13l21 -99h-13l-4 25h-21l-5 -25h-13zM997 -161l20 99h14l21 -99h-13l-5 25h-20l-5 -25h-12zM1194 445
l-8 152h26l-9 -152h-9zM846 -161q-14 -5 -24.5 2t-12.5 21q-1 6 -0.5 12t0.5 11v53h13v-44q0 -5 -0.5 -12.5t0 -15t3.5 -13t10 -5.5t10 5.5t4 13t0.5 15t-0.5 12.5v44h12v-45q0 -6 0.5 -14.5t-0.5 -16t-4.5 -14t-10.5 -9.5zM350 735q7 0 14 -0.5t14 1.5q11 3 13.5 11t2.5 17
q1 11 -1.5 21t-14.5 13q-7 2 -14 1.5t-14 -0.5v-64zM563 735h14t14 2q10 5 13 13.5t2 18.5q0 9 -2.5 16.5t-12.5 11.5q-7 2 -14 2h-14v-64zM285 -285q-13 0 -18.5 7t-7.5 17.5t-1.5 22.5t0.5 21q0 14 7 24.5t23 8.5t19 -13t3 -23h-13q0 5 0.5 9.5t-1.5 9.5q-2 6 -9.5 6.5
t-11.5 -4.5q-4 -6 -3 -17.5t1 -18.5t-1 -18t4 -17q3 -5 10.5 -4t9.5 7q2 5 1.5 10t-0.5 10h13q0 -14 -4 -26t-21 -12zM690 -285q-13 0 -18.5 7t-7 17.5t-1 22.5t0.5 21q0 14 6.5 24.5t22.5 8.5t19 -13t3 -23h-13q0 5 0.5 9.5t-1.5 9.5q-2 6 -9.5 6.5t-11.5 -4.5
q-5 -6 -4 -17.5t1 -18.5t-0.5 -18t4.5 -17q3 -5 10.5 -4t9.5 7q2 5 1.5 10t-0.5 10h13q0 -14 -4 -26t-21 -12zM953 255q-13 0 -19 8.5t-7 20.5l13 4q0 -5 2 -12t7 -9q7 -2 11 1.5t4 9.5q1 11 -8 18t-16 14q-9 8 -12.5 20.5t7.5 21.5q5 4 13 4.5t14 -1.5q7 -3 10 -10t4 -14
l-12 -3l-2 10t-6 8q-4 2 -9 0t-6 -7q-4 -8 2.5 -14l11.5 -11q6 -5 12.5 -11.5t8.5 -15.5q3 -12 -3 -22t-20 -10zM725 255q-13 0 -19 8.5t-7 20.5l12 4q0 -5 2 -12t7 -9q7 -2 11.5 1.5t4.5 9.5q0 11 -9 18t-16 14q-8 8 -11.5 20.5t7.5 21.5q5 4 13 4.5t14 -1.5q7 -3 10 -10
t4 -14l-12 -3l-2 10t-6 8q-5 2 -9.5 0t-6.5 -7q-3 -8 3 -14l11 -11q7 -5 13.5 -11.5t8.5 -15.5q3 -12 -3.5 -22t-19.5 -10zM1095 -285q-13 0 -19 8.5t-7 20.5l12 3q0 -5 2 -11.5t7 -8.5q7 -3 11.5 0.5t4.5 9.5q0 11 -9 18.5l-16 13.5q-8 8 -11.5 21t7.5 21q5 5 13 5.5
t14 -2.5q7 -2 10 -9t4 -14l-12 -4l-2 10.5t-6 7.5t-9.5 0.5t-6.5 -6.5q-3 -8 3 -14l11 -11q7 -6 13.5 -12.5t8.5 -15.5q3 -12 -3.5 -21.5t-19.5 -9.5zM855 256l-22 100h13l15 -73l16 73h12l-22 -100h-12zM914 -284l-23 99h13l16 -73l14 73h13l-22 -99h-11zM759 256v100h39
v-10h-24v-33h20v-10h-20v-37h25v-10h-40zM683 -161v99h39v-10h-24v-33h20v-10h-20v-37h24v-9h-39zM958 -284v99h39v-10h-25v-32h20v-10h-20v-37h25v-10h-39zM552 -284v99h38v-10h-25v-32h21v-10h-21v-37h25v-10h-38zM591 256v100h39v-10h-25v-33h20v-10h-20v-37h25v-10h-39z
M426 -150q9 -4 13 -1t5.5 9t1.5 13.5v12.5q0 8 1 23.5t-7 19.5q-10 5 -15 -1.5t-5 -14.5v-16q0 -3 -0.5 -10t-0.5 -14t1.5 -13t5.5 -8zM1179 -272q8 -4 12.5 -1.5t6 8.5t1.5 13.5v12.5q0 4 0.5 10.5t0 13t-2 12t-5.5 7.5q-10 5 -14.5 -1.5t-4.5 -14.5v-15q0 -3 -0.5 -10
t-0.5 -14.5t1.5 -13.5t5.5 -7zM342 -272q8 -4 12.5 -1.5t6 8.5t1.5 13.5v12.5q0 4 0.5 10.5t0.5 13t-1.5 12t-5.5 7.5q-11 5 -15.5 -1.5t-4.5 -14.5q-1 -4 -0.5 -7.5t0.5 -7.5q0 -3 -0.5 -10t-0.5 -14.5t1.5 -13.5t5.5 -7zM359 -161v99h39v-10h-24v-33h19v-10h-19v-46h-15z
M762 -161v99h38v-10h-25v-33h19v-10h-19v-46h-13zM1141 -152q8 0 14.5 1.5t8.5 12.5v26v25q-1 11 -7.5 13t-15.5 2v-80zM576 -161v89h-18v10h50v-10h-18v-89h-14zM1029 256v90h-18v10h49v-10h-17v-90h-14zM820 -284v99h13v-89h26v-10h-39zM877 -161v99h13v-90h25v-9h-38z
M925 -161v99h14v-90h25v-9h-39zM543 256v100h13v-90h25v-10h-38zM900 256v100h14v-100h-14zM1057 693h33l-17 88zM358 -7h36v40h-36v-40zM1040 175q5 0 11.5 0.5t10.5 -3.5q5 -8 4.5 -24.5t-5.5 -24.5q-5 -5 -10.5 -5h-10.5v57zM729 -284v99h14v-99h-14zM1130 -284v99h14
v-99h-14zM988 256v100h14v-100h-14zM1186 403v27h26v-27h-26zM498 312h7t8 2q5 2 6 7.5t1 10.5q-1 11 -7 12.5t-15 1.5v-34zM488 -105q9 0 15.5 3t6.5 14t-6 13.5t-16 2.5v-33zM1022 -227q9 0 15.5 2.5t6.5 13.5t-6.5 13.5t-15.5 2.5v-32zM616 -227q9 0 15 2.5t6 13.5
t-6 13.5t-15 2.5v-32zM773 -249h17l-8 45zM1016 -126h17l-8 45zM655 292h17l-8 45zM927 75l7 42l6 -42h-13zM821 -7q12 0 22 5q12 7 19 21t8.5 30.5t-3.5 32t-15 24.5q15 12 17 28q2 13 0.5 26t-7 23.5t-16 17t-25.5 6.5h-47v-214h47zM810 94h10.5t9.5 -5q3 -4 4.5 -12.5
t2 -18t-1 -18t-4.5 -12.5t-9.5 -3.5t-11.5 0.5v69zM810 175q5 0 11.5 0.5t9.5 -3.5q6 -8 5.5 -24.5t-6.5 -24.5q-4 -5 -9.5 -5h-10.5v57zM1346 -7v77l-41 137h35l26 -93l25 93h34l-6.5 -23l-8 -27.5t-11.5 -37.5l-17 -53v-73h-36zM1155 207h-36v-214h78v31h-42v183z" />
    <glyph glyph-name="asciitilde" unicode="~" horiz-adv-x="288" 
d="M17 182q23 31 46 43.5t45.5 13t42.5 -6.5l37.5 -13.5t31 -9.5t21.5 6q15 15 27.5 16.5t16 -9t-5 -31t-35.5 -49.5q-16 -18 -33.5 -20t-35 3.5t-34 15.5t-32.5 17t-30 7t-25 -13q-12 -15 -24.5 -19t-19.5 1t-7 17.5t14 30.5z" />
    <glyph glyph-name="colon" unicode=":" horiz-adv-x="260" 
d="M166 80q0 -26 -18 -44t-44 -18t-44 18t-18 44t18 44t44 18t44 -18t18 -44zM238 263q0 -26 -18 -44t-44 -18t-44 18t-18 44t18 44t44 18t44 -18t18 -44z" />
    <glyph glyph-name="comma" unicode="," horiz-adv-x="213" 
d="M49 101q5 19 22 28t36 7.5t34 -12.5t15 -30q1 -20 -14 -41t-35.5 -40t-40 -33t-27.5 -19t-19 -5.5t-18.5 3.5t-9 12.5t8.5 21.5q17 24 28 48.5t20 59.5z" />
    <glyph glyph-name="exclam" unicode="!" horiz-adv-x="276" 
d="M167 80q0 -26 -18 -44t-44 -18t-44.5 18t-18.5 44t18.5 44t44.5 18t44 -18t18 -44zM247 525q12 34 36 52.5t46 19.5t34 -16.5t0 -55.5q-12 -37 -34.5 -83t-48 -89.5l-48 -78.5t-34.5 -49t-24.5 -19.5t-20.5 -3t-10 12t7 26.5q9 16 20.5 49t24 73l26 82.5t26.5 79.5z" />
    <glyph glyph-name="hyphen" unicode="-" horiz-adv-x="264" 
d="M37 223q11 3 31.5 6.5t43 5.5t43 3.5t31.5 0.5q18 -1 23.5 -15t2 -30.5t-14.5 -30.5t-25 -14t-34.5 -0.5t-42.5 0t-43 2t-34 4.5q-16 4 -21.5 13.5t-2.5 20t14.5 20t28.5 14.5z" />
    <glyph glyph-name="quotesingle" unicode="'" horiz-adv-x="0" 
d="M49 523q0 19 14 29.5t32.5 11.5t36 -8t23.5 -28q6 -20 -3 -42t-23.5 -42t-29.5 -35t-22 -20t-16.5 -6.5t-17 1.5t-10 10.5t3.5 20.5q11 23 12 48t0 60z" />
    <glyph glyph-name="yen" unicode="&#xa5;" 
d="M173 207l-25 -134l-24 134h-35l-3 -214h32l1 87l17 -87h25l17 88l1 -88h32l-2 214h-36zM823 623q-21 0 -34.5 11t-16.5 31q-2 10 -2 19v19q0 20 -1 42t5 42q5 17 17 24.5t29 8.5t31 -5t20 -23q8 -19 7 -42t-1 -43q0 -11 -0.5 -22.5t-2.5 -22.5q-9 -39 -51 -39zM773 401
q-44 0 -52 42q-2 10 -1.5 19.5t0.5 19.5q0 20 -1 42t4 41q5 17 17 25t29 8q17 1 31 -5t21 -23q8 -19 6 -41.5t-2 -42.5v-23t-2 -22q-4 -20 -17 -30t-33 -10zM1052 207h-48v-214h36v94h10l14 -94h36l-18 103q15 13 18 38q1 13 -0.5 26t-7 23.5t-15.5 17t-25 6.5zM302 104
l-37 103h-27v-214h33v105l37 -105h27v214h-33v-103zM571 73h21v-14t-1.5 -18t-6 -14.5t-13.5 -2.5q-6 2 -8 7.5t-3 12.5t-0.5 14t0.5 12v51q0 11 -0.5 23t2.5 23q5 11 16 9q10 -3 11 -13q2 -8 1.5 -16t-0.5 -16h36q0 18 -2.5 39t-20.5 32q-11 6 -24 6.5t-24 -2.5
q-15 -5 -21.5 -17.5t-9.5 -26.5q-2 -15 -1.5 -30.5t0.5 -31.5q0 -15 -0.5 -29.5t1.5 -29.5q2 -13 6.5 -25t15.5 -19q11 -8 26.5 -7.5t25.5 10.5l1 -7h28v111h-56v-31zM917 207l-39 -214h36l8 50h23l8 -50h36l-38 214h-34zM536 625v194q18 0 38.5 0.5t36.5 -8.5
q11 -6 16.5 -19t5.5 -27.5t-6 -26.5t-18 -16l27 -97h-27l-25 91h-21v-91h-27zM482 104l-18 20l-11 10.5t-8 13.5q-3 8 -0.5 18.5t13.5 9.5q6 -1 8.5 -5.5t3.5 -11t1.5 -13t0.5 -10.5l33 2q0 19 -4.5 38.5t-22.5 28.5q-12 5 -23.5 4t-21 -6.5t-16 -15t-7.5 -21.5
q-2 -13 0 -25.5t10 -23.5q3 -6 8 -10.5t9 -9.5l23 -25t12 -30q0 -5 -1.5 -11t-7.5 -7q-9 -3 -14 8q-5 8 -5.5 18t-1.5 20l-33 -3q0 -13 1.5 -25.5t6.5 -25.5q8 -15 22 -21.5t30 -3.5q17 3 26.5 15.5t11.5 27.5q2 20 -4.5 38t-20.5 32zM323 625v194h42q14 0 27 -3.5t21 -17.5
q8 -17 7 -39t-16 -34q-11 -9 -25.5 -9.5t-28.5 -0.5v-90h-27zM1250 88h34v30h-34v57h42v32h-78v-214h78v31h-42v64zM852 403v194h18l56 -129v129h23v-194h-18l-56 132v-132h-23zM904 625v194h18l55 -129v129h22v-194h-17l-56 132v-132h-22zM398 404q-18 -7 -38.5 -1
t-28.5 26q-5 11 -5.5 22.5t-0.5 24.5v121h26v-129q0 -11 1.5 -25.5t15.5 -19.5q10 -4 17 -1t11 10t5.5 15.5t1.5 16.5q1 16 0.5 31t-0.5 31v71h26v-89q0 -12 1 -28t-1.5 -31t-9 -27.5t-21.5 -17.5zM1019 625l42 194h25l41 -194h-25l-9 48h-40l-9 -48h-25zM503 401
q-25 0 -37.5 16.5t-13.5 40.5l24 6q1 -9 2.5 -18.5t8.5 -16.5q6 -6 15 -6.5t16 4.5q8 7 7 18.5t-6 19.5q-4 6 -9.5 11l-11.5 10q-9 9 -20 18t-18 20q-12 19 -6.5 42.5t27.5 30.5q11 3 24.5 2t22.5 -8q10 -8 13.5 -19.5t4.5 -22.5l-22 -7q-1 11 -4.5 22.5t-16.5 13.5
q-9 1 -16.5 -3t-9.5 -14q-2 -8 0.5 -14.5t7.5 -12.5t11.5 -11l11.5 -9q13 -11 24.5 -23.5t15.5 -29.5q5 -23 -7.5 -41.5t-37.5 -18.5zM706 623q-24 0 -37 16.5t-14 39.5l24 6q1 -9 3 -18.5t8 -15.5t15 -7t16 5q8 7 7 18.5t-6 19.5q-4 6 -9.5 11l-11.5 10l-20 17t-18 20
q-6 10 -7.5 21.5t1 22t9.5 18.5t18 11t24.5 2t22.5 -8q10 -7 13.5 -19t4.5 -23l-22 -6q-1 11 -4.5 22.5t-16.5 13.5q-9 1 -16.5 -3.5t-9.5 -13.5q-3 -17 8.5 -28t22.5 -20q13 -11 24.5 -23t15.5 -29q5 -23 -7.5 -41.5t-37.5 -18.5zM643 -34h32l59 268h-34zM439 625v194h75
v-20h-48v-64h39v-20h-39v-71h49v-19h-76zM571 403v194h75v-20h-48v-64h39v-19h-39v-72h48v-19h-75zM811 646q12 -5 26 0q7 4 9 10.5t3 13.5v23v67q0 8 -0.5 17t-6.5 16q-5 5 -11.5 6.5t-12.5 -0.5q-14 -1 -19 -17q-4 -14 -2.5 -31t1.5 -31v-36q0 -10 1 -21.5t12 -16.5z
M759 424q5 -2 13 -2t13 2q7 4 9.5 11t3.5 14q1 5 0.5 11t-0.5 11v68q0 8 -0.5 17t-6.5 15q-5 5 -11.5 6.5t-13.5 0.5q-14 -3 -18 -18q-3 -14 -2 -30.5t1 -31.5v-35q0 -11 1 -22.5t11 -16.5zM1103 403v41q0 7 1 14.5t-1 14.5q-2 10 -5.5 19t-7.5 18l-28 87h25l30 -93l28 93
h26l-12.5 -40l-13.5 -40l-14 -41q-2 -6 -2 -12.5v-12.5v-48h-26zM1147 625v194h27v-175h50v-19h-77zM979 403v194h27v-175h49v-19h-76zM433 -162q-11 0 -17 5.5t-8.5 13.5t-2.5 17.5v17.5t0.5 17t3.5 15.5t9 11t18 3.5q10 -1 15 -6t7.5 -12.5t2.5 -16.5v-16q0 -8 -0.5 -16.5
t-3 -16t-8 -12.5t-16.5 -5zM1127 -161v99q10 0 22.5 0.5t20.5 -6.5q8 -8 8 -20.5v-23.5v-23.5t-10 -20.5q-8 -6 -20 -5.5t-21 0.5zM1185 -285q-11 0 -17 5.5t-8 13.5t-2 17.5v17.5q0 9 0.5 17.5t3.5 15.5t9 11t18 3q10 -1 15 -6t6.5 -12.5t1.5 -16.5v-16v-16.5t-2.5 -16
t-8 -12.5t-16.5 -5zM349 -285q-12 0 -17.5 5.5t-7.5 13.5t-2 17.5v17.5q0 9 0.5 17.5t3.5 15.5t9 11t17 3q10 -1 15 -6t7 -12.5t2 -16.5v-16v-16.5t-2.5 -16t-8 -12.5t-16.5 -5zM601 -284v99q9 0 19.5 1t18.5 -4q6 -3 9 -9.5t3 -14t-3 -14t-10 -8.5l15 -50h-14l-12 47h-11
v-47h-15zM389 -284l2 99h14l18 -80l17 80h13l2 -99h-11l-1 72l-17 -72h-8l-16 72l-1 -72h-12zM470 -284l2 99h14l17 -80l18 80h14l1 -99h-10l-2 72l-17 -72h-8l-16 72l-2 -72h-11zM1008 -284v99q9 0 19 1t18 -4q6 -3 9 -9.5t3 -14t-3 -14t-9 -8.5l14 -50h-14l-12 47h-11v-47
h-14zM474 -161v99q9 0 19 1t18 -4q6 -3 9 -10t3.5 -14.5t-2.5 -14t-10 -8.5l14 -49h-13l-14 46h-10v-46h-14zM484 256v100h25.5t20.5 -11q4 -8 3.5 -19.5t-8.5 -17.5q-6 -5 -13 -5.5t-14 -0.5v-46h-14zM1062 -161v99h9l28 -66v66h12v-99h-9l-28 67v-67h-12zM615 -161v99h13
v-43h27v43h13v-99h-13v46h-27v-46h-13zM1227 -284v99h9l28 -66v66h11v-99h-9l-28 67v-67h-11zM636 256l21 100h14l21 -100h-14l-4 26h-20l-5 -26h-13zM753 -284l22 99h13l21 -99h-13l-4 25h-21l-5 -25h-13zM997 -161l20 99h14l21 -99h-13l-5 25h-20l-5 -25h-12zM1194 445
l-8 152h26l-9 -152h-9zM846 -161q-14 -5 -24.5 2t-12.5 21q-1 6 -0.5 12t0.5 11v53h13v-44q0 -5 -0.5 -12.5t0 -15t3.5 -13t10 -5.5t10 5.5t4 13t0.5 15t-0.5 12.5v44h12v-45q0 -6 0.5 -14.5t-0.5 -16t-4.5 -14t-10.5 -9.5zM350 735q7 0 14 -0.5t14 1.5q11 3 13.5 11t2.5 17
q1 11 -1.5 21t-14.5 13q-7 2 -14 1.5t-14 -0.5v-64zM563 735h14t14 2q10 5 13 13.5t2 18.5q0 9 -2.5 16.5t-12.5 11.5q-7 2 -14 2h-14v-64zM285 -285q-13 0 -18.5 7t-7.5 17.5t-1.5 22.5t0.5 21q0 14 7 24.5t23 8.5t19 -13t3 -23h-13q0 5 0.5 9.5t-1.5 9.5q-2 6 -9.5 6.5
t-11.5 -4.5q-4 -6 -3 -17.5t1 -18.5t-1 -18t4 -17q3 -5 10.5 -4t9.5 7q2 5 1.5 10t-0.5 10h13q0 -14 -4 -26t-21 -12zM690 -285q-13 0 -18.5 7t-7 17.5t-1 22.5t0.5 21q0 14 6.5 24.5t22.5 8.5t19 -13t3 -23h-13q0 5 0.5 9.5t-1.5 9.5q-2 6 -9.5 6.5t-11.5 -4.5
q-5 -6 -4 -17.5t1 -18.5t-0.5 -18t4.5 -17q3 -5 10.5 -4t9.5 7q2 5 1.5 10t-0.5 10h13q0 -14 -4 -26t-21 -12zM953 255q-13 0 -19 8.5t-7 20.5l13 4q0 -5 2 -12t7 -9q7 -2 11 1.5t4 9.5q1 11 -8 18t-16 14q-9 8 -12.5 20.5t7.5 21.5q5 4 13 4.5t14 -1.5q7 -3 10 -10t4 -14
l-12 -3l-2 10t-6 8q-4 2 -9 0t-6 -7q-4 -8 2.5 -14l11.5 -11q6 -5 12.5 -11.5t8.5 -15.5q3 -12 -3 -22t-20 -10zM725 255q-13 0 -19 8.5t-7 20.5l12 4q0 -5 2 -12t7 -9q7 -2 11.5 1.5t4.5 9.5q0 11 -9 18t-16 14q-8 8 -11.5 20.5t7.5 21.5q5 4 13 4.5t14 -1.5q7 -3 10 -10
t4 -14l-12 -3l-2 10t-6 8q-5 2 -9.5 0t-6.5 -7q-3 -8 3 -14l11 -11q7 -5 13.5 -11.5t8.5 -15.5q3 -12 -3.5 -22t-19.5 -10zM1095 -285q-13 0 -19 8.5t-7 20.5l12 3q0 -5 2 -11.5t7 -8.5q7 -3 11.5 0.5t4.5 9.5q0 11 -9 18.5l-16 13.5q-8 8 -11.5 21t7.5 21q5 5 13 5.5
t14 -2.5q7 -2 10 -9t4 -14l-12 -4l-2 10.5t-6 7.5t-9.5 0.5t-6.5 -6.5q-3 -8 3 -14l11 -11q7 -6 13.5 -12.5t8.5 -15.5q3 -12 -3.5 -21.5t-19.5 -9.5zM855 256l-22 100h13l15 -73l16 73h12l-22 -100h-12zM914 -284l-23 99h13l16 -73l14 73h13l-22 -99h-11zM759 256v100h39
v-10h-24v-33h20v-10h-20v-37h25v-10h-40zM683 -161v99h39v-10h-24v-33h20v-10h-20v-37h24v-9h-39zM958 -284v99h39v-10h-25v-32h20v-10h-20v-37h25v-10h-39zM552 -284v99h38v-10h-25v-32h21v-10h-21v-37h25v-10h-38zM591 256v100h39v-10h-25v-33h20v-10h-20v-37h25v-10h-39z
M426 -150q9 -4 13 -1t5.5 9t1.5 13.5v12.5q0 8 1 23.5t-7 19.5q-10 5 -15 -1.5t-5 -14.5v-16q0 -3 -0.5 -10t-0.5 -14t1.5 -13t5.5 -8zM1179 -272q8 -4 12.5 -1.5t6 8.5t1.5 13.5v12.5q0 4 0.5 10.5t0 13t-2 12t-5.5 7.5q-10 5 -14.5 -1.5t-4.5 -14.5v-15q0 -3 -0.5 -10
t-0.5 -14.5t1.5 -13.5t5.5 -7zM342 -272q8 -4 12.5 -1.5t6 8.5t1.5 13.5v12.5q0 4 0.5 10.5t0.5 13t-1.5 12t-5.5 7.5q-11 5 -15.5 -1.5t-4.5 -14.5q-1 -4 -0.5 -7.5t0.5 -7.5q0 -3 -0.5 -10t-0.5 -14.5t1.5 -13.5t5.5 -7zM359 -161v99h39v-10h-24v-33h19v-10h-19v-46h-15z
M762 -161v99h38v-10h-25v-33h19v-10h-19v-46h-13zM1141 -152q8 0 14.5 1.5t8.5 12.5v26v25q-1 11 -7.5 13t-15.5 2v-80zM576 -161v89h-18v10h50v-10h-18v-89h-14zM1029 256v90h-18v10h49v-10h-17v-90h-14zM820 -284v99h13v-89h26v-10h-39zM877 -161v99h13v-90h25v-9h-38z
M925 -161v99h14v-90h25v-9h-39zM543 256v100h13v-90h25v-10h-38zM900 256v100h14v-100h-14zM1057 693h33l-17 88zM358 -7h36v40h-36v-40zM1040 175q5 0 11.5 0.5t10.5 -3.5q5 -8 4.5 -24.5t-5.5 -24.5q-5 -5 -10.5 -5h-10.5v57zM729 -284v99h14v-99h-14zM1130 -284v99h14
v-99h-14zM988 256v100h14v-100h-14zM1186 403v27h26v-27h-26zM498 312h7t8 2q5 2 6 7.5t1 10.5q-1 11 -7 12.5t-15 1.5v-34zM488 -105q9 0 15.5 3t6.5 14t-6 13.5t-16 2.5v-33zM1022 -227q9 0 15.5 2.5t6.5 13.5t-6.5 13.5t-15.5 2.5v-32zM616 -227q9 0 15 2.5t6 13.5
t-6 13.5t-15 2.5v-32zM773 -249h17l-8 45zM1016 -126h17l-8 45zM655 292h17l-8 45zM927 75l7 42l6 -42h-13zM821 -7q12 0 22 5q12 7 19 21t8.5 30.5t-3.5 32t-15 24.5q15 12 17 28q2 13 0.5 26t-7 23.5t-16 17t-25.5 6.5h-47v-214h47zM810 94h10.5t9.5 -5q3 -4 4.5 -12.5
t2 -18t-1 -18t-4.5 -12.5t-9.5 -3.5t-11.5 0.5v69zM810 175q5 0 11.5 0.5t9.5 -3.5q6 -8 5.5 -24.5t-6.5 -24.5q-4 -5 -9.5 -5h-10.5v57zM1346 -7v77l-41 137h35l26 -93l25 93h34l-6.5 -23l-8 -27.5t-11.5 -37.5l-17 -53v-73h-36zM1155 207h-36v-214h78v31h-42v183z" />
    <glyph glyph-name="Euro" unicode="&#x20ac;" 
d="M173 207l-25 -134l-24 134h-35l-3 -214h32l1 87l17 -87h25l17 88l1 -88h32l-2 214h-36zM823 623q-21 0 -34.5 11t-16.5 31q-2 10 -2 19v19q0 20 -1 42t5 42q5 17 17 24.5t29 8.5t31 -5t20 -23q8 -19 7 -42t-1 -43q0 -11 -0.5 -22.5t-2.5 -22.5q-9 -39 -51 -39zM773 401
q-44 0 -52 42q-2 10 -1.5 19.5t0.5 19.5q0 20 -1 42t4 41q5 17 17 25t29 8q17 1 31 -5t21 -23q8 -19 6 -41.5t-2 -42.5v-23t-2 -22q-4 -20 -17 -30t-33 -10zM1052 207h-48v-214h36v94h10l14 -94h36l-18 103q15 13 18 38q1 13 -0.5 26t-7 23.5t-15.5 17t-25 6.5zM302 104
l-37 103h-27v-214h33v105l37 -105h27v214h-33v-103zM571 73h21v-14t-1.5 -18t-6 -14.5t-13.5 -2.5q-6 2 -8 7.5t-3 12.5t-0.5 14t0.5 12v51q0 11 -0.5 23t2.5 23q5 11 16 9q10 -3 11 -13q2 -8 1.5 -16t-0.5 -16h36q0 18 -2.5 39t-20.5 32q-11 6 -24 6.5t-24 -2.5
q-15 -5 -21.5 -17.5t-9.5 -26.5q-2 -15 -1.5 -30.5t0.5 -31.5q0 -15 -0.5 -29.5t1.5 -29.5q2 -13 6.5 -25t15.5 -19q11 -8 26.5 -7.5t25.5 10.5l1 -7h28v111h-56v-31zM917 207l-39 -214h36l8 50h23l8 -50h36l-38 214h-34zM536 625v194q18 0 38.5 0.5t36.5 -8.5
q11 -6 16.5 -19t5.5 -27.5t-6 -26.5t-18 -16l27 -97h-27l-25 91h-21v-91h-27zM482 104l-18 20l-11 10.5t-8 13.5q-3 8 -0.5 18.5t13.5 9.5q6 -1 8.5 -5.5t3.5 -11t1.5 -13t0.5 -10.5l33 2q0 19 -4.5 38.5t-22.5 28.5q-12 5 -23.5 4t-21 -6.5t-16 -15t-7.5 -21.5
q-2 -13 0 -25.5t10 -23.5q3 -6 8 -10.5t9 -9.5l23 -25t12 -30q0 -5 -1.5 -11t-7.5 -7q-9 -3 -14 8q-5 8 -5.5 18t-1.5 20l-33 -3q0 -13 1.5 -25.5t6.5 -25.5q8 -15 22 -21.5t30 -3.5q17 3 26.5 15.5t11.5 27.5q2 20 -4.5 38t-20.5 32zM323 625v194h42q14 0 27 -3.5t21 -17.5
q8 -17 7 -39t-16 -34q-11 -9 -25.5 -9.5t-28.5 -0.5v-90h-27zM1250 88h34v30h-34v57h42v32h-78v-214h78v31h-42v64zM852 403v194h18l56 -129v129h23v-194h-18l-56 132v-132h-23zM904 625v194h18l55 -129v129h22v-194h-17l-56 132v-132h-22zM398 404q-18 -7 -38.5 -1
t-28.5 26q-5 11 -5.5 22.5t-0.5 24.5v121h26v-129q0 -11 1.5 -25.5t15.5 -19.5q10 -4 17 -1t11 10t5.5 15.5t1.5 16.5q1 16 0.5 31t-0.5 31v71h26v-89q0 -12 1 -28t-1.5 -31t-9 -27.5t-21.5 -17.5zM1019 625l42 194h25l41 -194h-25l-9 48h-40l-9 -48h-25zM503 401
q-25 0 -37.5 16.5t-13.5 40.5l24 6q1 -9 2.5 -18.5t8.5 -16.5q6 -6 15 -6.5t16 4.5q8 7 7 18.5t-6 19.5q-4 6 -9.5 11l-11.5 10q-9 9 -20 18t-18 20q-12 19 -6.5 42.5t27.5 30.5q11 3 24.5 2t22.5 -8q10 -8 13.5 -19.5t4.5 -22.5l-22 -7q-1 11 -4.5 22.5t-16.5 13.5
q-9 1 -16.5 -3t-9.5 -14q-2 -8 0.5 -14.5t7.5 -12.5t11.5 -11l11.5 -9q13 -11 24.5 -23.5t15.5 -29.5q5 -23 -7.5 -41.5t-37.5 -18.5zM706 623q-24 0 -37 16.5t-14 39.5l24 6q1 -9 3 -18.5t8 -15.5t15 -7t16 5q8 7 7 18.5t-6 19.5q-4 6 -9.5 11l-11.5 10l-20 17t-18 20
q-6 10 -7.5 21.5t1 22t9.5 18.5t18 11t24.5 2t22.5 -8q10 -7 13.5 -19t4.5 -23l-22 -6q-1 11 -4.5 22.5t-16.5 13.5q-9 1 -16.5 -3.5t-9.5 -13.5q-3 -17 8.5 -28t22.5 -20q13 -11 24.5 -23t15.5 -29q5 -23 -7.5 -41.5t-37.5 -18.5zM643 -34h32l59 268h-34zM439 625v194h75
v-20h-48v-64h39v-20h-39v-71h49v-19h-76zM571 403v194h75v-20h-48v-64h39v-19h-39v-72h48v-19h-75zM811 646q12 -5 26 0q7 4 9 10.5t3 13.5v23v67q0 8 -0.5 17t-6.5 16q-5 5 -11.5 6.5t-12.5 -0.5q-14 -1 -19 -17q-4 -14 -2.5 -31t1.5 -31v-36q0 -10 1 -21.5t12 -16.5z
M759 424q5 -2 13 -2t13 2q7 4 9.5 11t3.5 14q1 5 0.5 11t-0.5 11v68q0 8 -0.5 17t-6.5 15q-5 5 -11.5 6.5t-13.5 0.5q-14 -3 -18 -18q-3 -14 -2 -30.5t1 -31.5v-35q0 -11 1 -22.5t11 -16.5zM1103 403v41q0 7 1 14.5t-1 14.5q-2 10 -5.5 19t-7.5 18l-28 87h25l30 -93l28 93
h26l-12.5 -40l-13.5 -40l-14 -41q-2 -6 -2 -12.5v-12.5v-48h-26zM1147 625v194h27v-175h50v-19h-77zM979 403v194h27v-175h49v-19h-76zM433 -162q-11 0 -17 5.5t-8.5 13.5t-2.5 17.5v17.5t0.5 17t3.5 15.5t9 11t18 3.5q10 -1 15 -6t7.5 -12.5t2.5 -16.5v-16q0 -8 -0.5 -16.5
t-3 -16t-8 -12.5t-16.5 -5zM1127 -161v99q10 0 22.5 0.5t20.5 -6.5q8 -8 8 -20.5v-23.5v-23.5t-10 -20.5q-8 -6 -20 -5.5t-21 0.5zM1185 -285q-11 0 -17 5.5t-8 13.5t-2 17.5v17.5q0 9 0.5 17.5t3.5 15.5t9 11t18 3q10 -1 15 -6t6.5 -12.5t1.5 -16.5v-16v-16.5t-2.5 -16
t-8 -12.5t-16.5 -5zM349 -285q-12 0 -17.5 5.5t-7.5 13.5t-2 17.5v17.5q0 9 0.5 17.5t3.5 15.5t9 11t17 3q10 -1 15 -6t7 -12.5t2 -16.5v-16v-16.5t-2.5 -16t-8 -12.5t-16.5 -5zM601 -284v99q9 0 19.5 1t18.5 -4q6 -3 9 -9.5t3 -14t-3 -14t-10 -8.5l15 -50h-14l-12 47h-11
v-47h-15zM389 -284l2 99h14l18 -80l17 80h13l2 -99h-11l-1 72l-17 -72h-8l-16 72l-1 -72h-12zM470 -284l2 99h14l17 -80l18 80h14l1 -99h-10l-2 72l-17 -72h-8l-16 72l-2 -72h-11zM1008 -284v99q9 0 19 1t18 -4q6 -3 9 -9.5t3 -14t-3 -14t-9 -8.5l14 -50h-14l-12 47h-11v-47
h-14zM474 -161v99q9 0 19 1t18 -4q6 -3 9 -10t3.5 -14.5t-2.5 -14t-10 -8.5l14 -49h-13l-14 46h-10v-46h-14zM484 256v100h25.5t20.5 -11q4 -8 3.5 -19.5t-8.5 -17.5q-6 -5 -13 -5.5t-14 -0.5v-46h-14zM1062 -161v99h9l28 -66v66h12v-99h-9l-28 67v-67h-12zM615 -161v99h13
v-43h27v43h13v-99h-13v46h-27v-46h-13zM1227 -284v99h9l28 -66v66h11v-99h-9l-28 67v-67h-11zM636 256l21 100h14l21 -100h-14l-4 26h-20l-5 -26h-13zM753 -284l22 99h13l21 -99h-13l-4 25h-21l-5 -25h-13zM997 -161l20 99h14l21 -99h-13l-5 25h-20l-5 -25h-12zM1194 445
l-8 152h26l-9 -152h-9zM846 -161q-14 -5 -24.5 2t-12.5 21q-1 6 -0.5 12t0.5 11v53h13v-44q0 -5 -0.5 -12.5t0 -15t3.5 -13t10 -5.5t10 5.5t4 13t0.5 15t-0.5 12.5v44h12v-45q0 -6 0.5 -14.5t-0.5 -16t-4.5 -14t-10.5 -9.5zM350 735q7 0 14 -0.5t14 1.5q11 3 13.5 11t2.5 17
q1 11 -1.5 21t-14.5 13q-7 2 -14 1.5t-14 -0.5v-64zM563 735h14t14 2q10 5 13 13.5t2 18.5q0 9 -2.5 16.5t-12.5 11.5q-7 2 -14 2h-14v-64zM285 -285q-13 0 -18.5 7t-7.5 17.5t-1.5 22.5t0.5 21q0 14 7 24.5t23 8.5t19 -13t3 -23h-13q0 5 0.5 9.5t-1.5 9.5q-2 6 -9.5 6.5
t-11.5 -4.5q-4 -6 -3 -17.5t1 -18.5t-1 -18t4 -17q3 -5 10.5 -4t9.5 7q2 5 1.5 10t-0.5 10h13q0 -14 -4 -26t-21 -12zM690 -285q-13 0 -18.5 7t-7 17.5t-1 22.5t0.5 21q0 14 6.5 24.5t22.5 8.5t19 -13t3 -23h-13q0 5 0.5 9.5t-1.5 9.5q-2 6 -9.5 6.5t-11.5 -4.5
q-5 -6 -4 -17.5t1 -18.5t-0.5 -18t4.5 -17q3 -5 10.5 -4t9.5 7q2 5 1.5 10t-0.5 10h13q0 -14 -4 -26t-21 -12zM953 255q-13 0 -19 8.5t-7 20.5l13 4q0 -5 2 -12t7 -9q7 -2 11 1.5t4 9.5q1 11 -8 18t-16 14q-9 8 -12.5 20.5t7.5 21.5q5 4 13 4.5t14 -1.5q7 -3 10 -10t4 -14
l-12 -3l-2 10t-6 8q-4 2 -9 0t-6 -7q-4 -8 2.5 -14l11.5 -11q6 -5 12.5 -11.5t8.5 -15.5q3 -12 -3 -22t-20 -10zM725 255q-13 0 -19 8.5t-7 20.5l12 4q0 -5 2 -12t7 -9q7 -2 11.5 1.5t4.5 9.5q0 11 -9 18t-16 14q-8 8 -11.5 20.5t7.5 21.5q5 4 13 4.5t14 -1.5q7 -3 10 -10
t4 -14l-12 -3l-2 10t-6 8q-5 2 -9.5 0t-6.5 -7q-3 -8 3 -14l11 -11q7 -5 13.5 -11.5t8.5 -15.5q3 -12 -3.5 -22t-19.5 -10zM1095 -285q-13 0 -19 8.5t-7 20.5l12 3q0 -5 2 -11.5t7 -8.5q7 -3 11.5 0.5t4.5 9.5q0 11 -9 18.5l-16 13.5q-8 8 -11.5 21t7.5 21q5 5 13 5.5
t14 -2.5q7 -2 10 -9t4 -14l-12 -4l-2 10.5t-6 7.5t-9.5 0.5t-6.5 -6.5q-3 -8 3 -14l11 -11q7 -6 13.5 -12.5t8.5 -15.5q3 -12 -3.5 -21.5t-19.5 -9.5zM855 256l-22 100h13l15 -73l16 73h12l-22 -100h-12zM914 -284l-23 99h13l16 -73l14 73h13l-22 -99h-11zM759 256v100h39
v-10h-24v-33h20v-10h-20v-37h25v-10h-40zM683 -161v99h39v-10h-24v-33h20v-10h-20v-37h24v-9h-39zM958 -284v99h39v-10h-25v-32h20v-10h-20v-37h25v-10h-39zM552 -284v99h38v-10h-25v-32h21v-10h-21v-37h25v-10h-38zM591 256v100h39v-10h-25v-33h20v-10h-20v-37h25v-10h-39z
M426 -150q9 -4 13 -1t5.5 9t1.5 13.5v12.5q0 8 1 23.5t-7 19.5q-10 5 -15 -1.5t-5 -14.5v-16q0 -3 -0.5 -10t-0.5 -14t1.5 -13t5.5 -8zM1179 -272q8 -4 12.5 -1.5t6 8.5t1.5 13.5v12.5q0 4 0.5 10.5t0 13t-2 12t-5.5 7.5q-10 5 -14.5 -1.5t-4.5 -14.5v-15q0 -3 -0.5 -10
t-0.5 -14.5t1.5 -13.5t5.5 -7zM342 -272q8 -4 12.5 -1.5t6 8.5t1.5 13.5v12.5q0 4 0.5 10.5t0.5 13t-1.5 12t-5.5 7.5q-11 5 -15.5 -1.5t-4.5 -14.5q-1 -4 -0.5 -7.5t0.5 -7.5q0 -3 -0.5 -10t-0.5 -14.5t1.5 -13.5t5.5 -7zM359 -161v99h39v-10h-24v-33h19v-10h-19v-46h-15z
M762 -161v99h38v-10h-25v-33h19v-10h-19v-46h-13zM1141 -152q8 0 14.5 1.5t8.5 12.5v26v25q-1 11 -7.5 13t-15.5 2v-80zM576 -161v89h-18v10h50v-10h-18v-89h-14zM1029 256v90h-18v10h49v-10h-17v-90h-14zM820 -284v99h13v-89h26v-10h-39zM877 -161v99h13v-90h25v-9h-38z
M925 -161v99h14v-90h25v-9h-39zM543 256v100h13v-90h25v-10h-38zM900 256v100h14v-100h-14zM1057 693h33l-17 88zM358 -7h36v40h-36v-40zM1040 175q5 0 11.5 0.5t10.5 -3.5q5 -8 4.5 -24.5t-5.5 -24.5q-5 -5 -10.5 -5h-10.5v57zM729 -284v99h14v-99h-14zM1130 -284v99h14
v-99h-14zM988 256v100h14v-100h-14zM1186 403v27h26v-27h-26zM498 312h7t8 2q5 2 6 7.5t1 10.5q-1 11 -7 12.5t-15 1.5v-34zM488 -105q9 0 15.5 3t6.5 14t-6 13.5t-16 2.5v-33zM1022 -227q9 0 15.5 2.5t6.5 13.5t-6.5 13.5t-15.5 2.5v-32zM616 -227q9 0 15 2.5t6 13.5
t-6 13.5t-15 2.5v-32zM773 -249h17l-8 45zM1016 -126h17l-8 45zM655 292h17l-8 45zM927 75l7 42l6 -42h-13zM821 -7q12 0 22 5q12 7 19 21t8.5 30.5t-3.5 32t-15 24.5q15 12 17 28q2 13 0.5 26t-7 23.5t-16 17t-25.5 6.5h-47v-214h47zM810 94h10.5t9.5 -5q3 -4 4.5 -12.5
t2 -18t-1 -18t-4.5 -12.5t-9.5 -3.5t-11.5 0.5v69zM810 175q5 0 11.5 0.5t9.5 -3.5q6 -8 5.5 -24.5t-6.5 -24.5q-4 -5 -9.5 -5h-10.5v57zM1346 -7v77l-41 137h35l26 -93l25 93h34l-6.5 -23l-8 -27.5t-11.5 -37.5l-17 -53v-73h-36zM1155 207h-36v-214h78v31h-42v183z" />
    <glyph glyph-name="dollar" unicode="$" 
d="M173 207l-25 -134l-24 134h-35l-3 -214h32l1 87l17 -87h25l17 88l1 -88h32l-2 214h-36zM823 623q-21 0 -34.5 11t-16.5 31q-2 10 -2 19v19q0 20 -1 42t5 42q5 17 17 24.5t29 8.5t31 -5t20 -23q8 -19 7 -42t-1 -43q0 -11 -0.5 -22.5t-2.5 -22.5q-9 -39 -51 -39zM773 401
q-44 0 -52 42q-2 10 -1.5 19.5t0.5 19.5q0 20 -1 42t4 41q5 17 17 25t29 8q17 1 31 -5t21 -23q8 -19 6 -41.5t-2 -42.5v-23t-2 -22q-4 -20 -17 -30t-33 -10zM1052 207h-48v-214h36v94h10l14 -94h36l-18 103q15 13 18 38q1 13 -0.5 26t-7 23.5t-15.5 17t-25 6.5zM302 104
l-37 103h-27v-214h33v105l37 -105h27v214h-33v-103zM571 73h21v-14t-1.5 -18t-6 -14.5t-13.5 -2.5q-6 2 -8 7.5t-3 12.5t-0.5 14t0.5 12v51q0 11 -0.5 23t2.5 23q5 11 16 9q10 -3 11 -13q2 -8 1.5 -16t-0.5 -16h36q0 18 -2.5 39t-20.5 32q-11 6 -24 6.5t-24 -2.5
q-15 -5 -21.5 -17.5t-9.5 -26.5q-2 -15 -1.5 -30.5t0.5 -31.5q0 -15 -0.5 -29.5t1.5 -29.5q2 -13 6.5 -25t15.5 -19q11 -8 26.5 -7.5t25.5 10.5l1 -7h28v111h-56v-31zM917 207l-39 -214h36l8 50h23l8 -50h36l-38 214h-34zM536 625v194q18 0 38.5 0.5t36.5 -8.5
q11 -6 16.5 -19t5.5 -27.5t-6 -26.5t-18 -16l27 -97h-27l-25 91h-21v-91h-27zM482 104l-18 20l-11 10.5t-8 13.5q-3 8 -0.5 18.5t13.5 9.5q6 -1 8.5 -5.5t3.5 -11t1.5 -13t0.5 -10.5l33 2q0 19 -4.5 38.5t-22.5 28.5q-12 5 -23.5 4t-21 -6.5t-16 -15t-7.5 -21.5
q-2 -13 0 -25.5t10 -23.5q3 -6 8 -10.5t9 -9.5l23 -25t12 -30q0 -5 -1.5 -11t-7.5 -7q-9 -3 -14 8q-5 8 -5.5 18t-1.5 20l-33 -3q0 -13 1.5 -25.5t6.5 -25.5q8 -15 22 -21.5t30 -3.5q17 3 26.5 15.5t11.5 27.5q2 20 -4.5 38t-20.5 32zM323 625v194h42q14 0 27 -3.5t21 -17.5
q8 -17 7 -39t-16 -34q-11 -9 -25.5 -9.5t-28.5 -0.5v-90h-27zM1250 88h34v30h-34v57h42v32h-78v-214h78v31h-42v64zM852 403v194h18l56 -129v129h23v-194h-18l-56 132v-132h-23zM904 625v194h18l55 -129v129h22v-194h-17l-56 132v-132h-22zM398 404q-18 -7 -38.5 -1
t-28.5 26q-5 11 -5.5 22.5t-0.5 24.5v121h26v-129q0 -11 1.5 -25.5t15.5 -19.5q10 -4 17 -1t11 10t5.5 15.5t1.5 16.5q1 16 0.5 31t-0.5 31v71h26v-89q0 -12 1 -28t-1.5 -31t-9 -27.5t-21.5 -17.5zM1019 625l42 194h25l41 -194h-25l-9 48h-40l-9 -48h-25zM503 401
q-25 0 -37.5 16.5t-13.5 40.5l24 6q1 -9 2.5 -18.5t8.5 -16.5q6 -6 15 -6.5t16 4.5q8 7 7 18.5t-6 19.5q-4 6 -9.5 11l-11.5 10q-9 9 -20 18t-18 20q-12 19 -6.5 42.5t27.5 30.5q11 3 24.5 2t22.5 -8q10 -8 13.5 -19.5t4.5 -22.5l-22 -7q-1 11 -4.5 22.5t-16.5 13.5
q-9 1 -16.5 -3t-9.5 -14q-2 -8 0.5 -14.5t7.5 -12.5t11.5 -11l11.5 -9q13 -11 24.5 -23.5t15.5 -29.5q5 -23 -7.5 -41.5t-37.5 -18.5zM706 623q-24 0 -37 16.5t-14 39.5l24 6q1 -9 3 -18.5t8 -15.5t15 -7t16 5q8 7 7 18.5t-6 19.5q-4 6 -9.5 11l-11.5 10l-20 17t-18 20
q-6 10 -7.5 21.5t1 22t9.5 18.5t18 11t24.5 2t22.5 -8q10 -7 13.5 -19t4.5 -23l-22 -6q-1 11 -4.5 22.5t-16.5 13.5q-9 1 -16.5 -3.5t-9.5 -13.5q-3 -17 8.5 -28t22.5 -20q13 -11 24.5 -23t15.5 -29q5 -23 -7.5 -41.5t-37.5 -18.5zM643 -34h32l59 268h-34zM439 625v194h75
v-20h-48v-64h39v-20h-39v-71h49v-19h-76zM571 403v194h75v-20h-48v-64h39v-19h-39v-72h48v-19h-75zM811 646q12 -5 26 0q7 4 9 10.5t3 13.5v23v67q0 8 -0.5 17t-6.5 16q-5 5 -11.5 6.5t-12.5 -0.5q-14 -1 -19 -17q-4 -14 -2.5 -31t1.5 -31v-36q0 -10 1 -21.5t12 -16.5z
M759 424q5 -2 13 -2t13 2q7 4 9.5 11t3.5 14q1 5 0.5 11t-0.5 11v68q0 8 -0.5 17t-6.5 15q-5 5 -11.5 6.5t-13.5 0.5q-14 -3 -18 -18q-3 -14 -2 -30.5t1 -31.5v-35q0 -11 1 -22.5t11 -16.5zM1103 403v41q0 7 1 14.5t-1 14.5q-2 10 -5.5 19t-7.5 18l-28 87h25l30 -93l28 93
h26l-12.5 -40l-13.5 -40l-14 -41q-2 -6 -2 -12.5v-12.5v-48h-26zM1147 625v194h27v-175h50v-19h-77zM979 403v194h27v-175h49v-19h-76zM433 -162q-11 0 -17 5.5t-8.5 13.5t-2.5 17.5v17.5t0.5 17t3.5 15.5t9 11t18 3.5q10 -1 15 -6t7.5 -12.5t2.5 -16.5v-16q0 -8 -0.5 -16.5
t-3 -16t-8 -12.5t-16.5 -5zM1127 -161v99q10 0 22.5 0.5t20.5 -6.5q8 -8 8 -20.5v-23.5v-23.5t-10 -20.5q-8 -6 -20 -5.5t-21 0.5zM1185 -285q-11 0 -17 5.5t-8 13.5t-2 17.5v17.5q0 9 0.5 17.5t3.5 15.5t9 11t18 3q10 -1 15 -6t6.5 -12.5t1.5 -16.5v-16v-16.5t-2.5 -16
t-8 -12.5t-16.5 -5zM349 -285q-12 0 -17.5 5.5t-7.5 13.5t-2 17.5v17.5q0 9 0.5 17.5t3.5 15.5t9 11t17 3q10 -1 15 -6t7 -12.5t2 -16.5v-16v-16.5t-2.5 -16t-8 -12.5t-16.5 -5zM601 -284v99q9 0 19.5 1t18.5 -4q6 -3 9 -9.5t3 -14t-3 -14t-10 -8.5l15 -50h-14l-12 47h-11
v-47h-15zM389 -284l2 99h14l18 -80l17 80h13l2 -99h-11l-1 72l-17 -72h-8l-16 72l-1 -72h-12zM470 -284l2 99h14l17 -80l18 80h14l1 -99h-10l-2 72l-17 -72h-8l-16 72l-2 -72h-11zM1008 -284v99q9 0 19 1t18 -4q6 -3 9 -9.5t3 -14t-3 -14t-9 -8.5l14 -50h-14l-12 47h-11v-47
h-14zM474 -161v99q9 0 19 1t18 -4q6 -3 9 -10t3.5 -14.5t-2.5 -14t-10 -8.5l14 -49h-13l-14 46h-10v-46h-14zM484 256v100h25.5t20.5 -11q4 -8 3.5 -19.5t-8.5 -17.5q-6 -5 -13 -5.5t-14 -0.5v-46h-14zM1062 -161v99h9l28 -66v66h12v-99h-9l-28 67v-67h-12zM615 -161v99h13
v-43h27v43h13v-99h-13v46h-27v-46h-13zM1227 -284v99h9l28 -66v66h11v-99h-9l-28 67v-67h-11zM636 256l21 100h14l21 -100h-14l-4 26h-20l-5 -26h-13zM753 -284l22 99h13l21 -99h-13l-4 25h-21l-5 -25h-13zM997 -161l20 99h14l21 -99h-13l-5 25h-20l-5 -25h-12zM1194 445
l-8 152h26l-9 -152h-9zM846 -161q-14 -5 -24.5 2t-12.5 21q-1 6 -0.5 12t0.5 11v53h13v-44q0 -5 -0.5 -12.5t0 -15t3.5 -13t10 -5.5t10 5.5t4 13t0.5 15t-0.5 12.5v44h12v-45q0 -6 0.5 -14.5t-0.5 -16t-4.5 -14t-10.5 -9.5zM350 735q7 0 14 -0.5t14 1.5q11 3 13.5 11t2.5 17
q1 11 -1.5 21t-14.5 13q-7 2 -14 1.5t-14 -0.5v-64zM563 735h14t14 2q10 5 13 13.5t2 18.5q0 9 -2.5 16.5t-12.5 11.5q-7 2 -14 2h-14v-64zM285 -285q-13 0 -18.5 7t-7.5 17.5t-1.5 22.5t0.5 21q0 14 7 24.5t23 8.5t19 -13t3 -23h-13q0 5 0.5 9.5t-1.5 9.5q-2 6 -9.5 6.5
t-11.5 -4.5q-4 -6 -3 -17.5t1 -18.5t-1 -18t4 -17q3 -5 10.5 -4t9.5 7q2 5 1.5 10t-0.5 10h13q0 -14 -4 -26t-21 -12zM690 -285q-13 0 -18.5 7t-7 17.5t-1 22.5t0.5 21q0 14 6.5 24.5t22.5 8.5t19 -13t3 -23h-13q0 5 0.5 9.5t-1.5 9.5q-2 6 -9.5 6.5t-11.5 -4.5
q-5 -6 -4 -17.5t1 -18.5t-0.5 -18t4.5 -17q3 -5 10.5 -4t9.5 7q2 5 1.5 10t-0.5 10h13q0 -14 -4 -26t-21 -12zM953 255q-13 0 -19 8.5t-7 20.5l13 4q0 -5 2 -12t7 -9q7 -2 11 1.5t4 9.5q1 11 -8 18t-16 14q-9 8 -12.5 20.5t7.5 21.5q5 4 13 4.5t14 -1.5q7 -3 10 -10t4 -14
l-12 -3l-2 10t-6 8q-4 2 -9 0t-6 -7q-4 -8 2.5 -14l11.5 -11q6 -5 12.5 -11.5t8.5 -15.5q3 -12 -3 -22t-20 -10zM725 255q-13 0 -19 8.5t-7 20.5l12 4q0 -5 2 -12t7 -9q7 -2 11.5 1.5t4.5 9.5q0 11 -9 18t-16 14q-8 8 -11.5 20.5t7.5 21.5q5 4 13 4.5t14 -1.5q7 -3 10 -10
t4 -14l-12 -3l-2 10t-6 8q-5 2 -9.5 0t-6.5 -7q-3 -8 3 -14l11 -11q7 -5 13.5 -11.5t8.5 -15.5q3 -12 -3.5 -22t-19.5 -10zM1095 -285q-13 0 -19 8.5t-7 20.5l12 3q0 -5 2 -11.5t7 -8.5q7 -3 11.5 0.5t4.5 9.5q0 11 -9 18.5l-16 13.5q-8 8 -11.5 21t7.5 21q5 5 13 5.5
t14 -2.5q7 -2 10 -9t4 -14l-12 -4l-2 10.5t-6 7.5t-9.5 0.5t-6.5 -6.5q-3 -8 3 -14l11 -11q7 -6 13.5 -12.5t8.5 -15.5q3 -12 -3.5 -21.5t-19.5 -9.5zM855 256l-22 100h13l15 -73l16 73h12l-22 -100h-12zM914 -284l-23 99h13l16 -73l14 73h13l-22 -99h-11zM759 256v100h39
v-10h-24v-33h20v-10h-20v-37h25v-10h-40zM683 -161v99h39v-10h-24v-33h20v-10h-20v-37h24v-9h-39zM958 -284v99h39v-10h-25v-32h20v-10h-20v-37h25v-10h-39zM552 -284v99h38v-10h-25v-32h21v-10h-21v-37h25v-10h-38zM591 256v100h39v-10h-25v-33h20v-10h-20v-37h25v-10h-39z
M426 -150q9 -4 13 -1t5.5 9t1.5 13.5v12.5q0 8 1 23.5t-7 19.5q-10 5 -15 -1.5t-5 -14.5v-16q0 -3 -0.5 -10t-0.5 -14t1.5 -13t5.5 -8zM1179 -272q8 -4 12.5 -1.5t6 8.5t1.5 13.5v12.5q0 4 0.5 10.5t0 13t-2 12t-5.5 7.5q-10 5 -14.5 -1.5t-4.5 -14.5v-15q0 -3 -0.5 -10
t-0.5 -14.5t1.5 -13.5t5.5 -7zM342 -272q8 -4 12.5 -1.5t6 8.5t1.5 13.5v12.5q0 4 0.5 10.5t0.5 13t-1.5 12t-5.5 7.5q-11 5 -15.5 -1.5t-4.5 -14.5q-1 -4 -0.5 -7.5t0.5 -7.5q0 -3 -0.5 -10t-0.5 -14.5t1.5 -13.5t5.5 -7zM359 -161v99h39v-10h-24v-33h19v-10h-19v-46h-15z
M762 -161v99h38v-10h-25v-33h19v-10h-19v-46h-13zM1141 -152q8 0 14.5 1.5t8.5 12.5v26v25q-1 11 -7.5 13t-15.5 2v-80zM576 -161v89h-18v10h50v-10h-18v-89h-14zM1029 256v90h-18v10h49v-10h-17v-90h-14zM820 -284v99h13v-89h26v-10h-39zM877 -161v99h13v-90h25v-9h-38z
M925 -161v99h14v-90h25v-9h-39zM543 256v100h13v-90h25v-10h-38zM900 256v100h14v-100h-14zM1057 693h33l-17 88zM358 -7h36v40h-36v-40zM1040 175q5 0 11.5 0.5t10.5 -3.5q5 -8 4.5 -24.5t-5.5 -24.5q-5 -5 -10.5 -5h-10.5v57zM729 -284v99h14v-99h-14zM1130 -284v99h14
v-99h-14zM988 256v100h14v-100h-14zM1186 403v27h26v-27h-26zM498 312h7t8 2q5 2 6 7.5t1 10.5q-1 11 -7 12.5t-15 1.5v-34zM488 -105q9 0 15.5 3t6.5 14t-6 13.5t-16 2.5v-33zM1022 -227q9 0 15.5 2.5t6.5 13.5t-6.5 13.5t-15.5 2.5v-32zM616 -227q9 0 15 2.5t6 13.5
t-6 13.5t-15 2.5v-32zM773 -249h17l-8 45zM1016 -126h17l-8 45zM655 292h17l-8 45zM927 75l7 42l6 -42h-13zM821 -7q12 0 22 5q12 7 19 21t8.5 30.5t-3.5 32t-15 24.5q15 12 17 28q2 13 0.5 26t-7 23.5t-16 17t-25.5 6.5h-47v-214h47zM810 94h10.5t9.5 -5q3 -4 4.5 -12.5
t2 -18t-1 -18t-4.5 -12.5t-9.5 -3.5t-11.5 0.5v69zM810 175q5 0 11.5 0.5t9.5 -3.5q6 -8 5.5 -24.5t-6.5 -24.5q-4 -5 -9.5 -5h-10.5v57zM1346 -7v77l-41 137h35l26 -93l25 93h34l-6.5 -23l-8 -27.5t-11.5 -37.5l-17 -53v-73h-36zM1155 207h-36v-214h78v31h-42v183z" />
    <glyph glyph-name="cent" unicode="&#xa2;" 
d="M173 207l-25 -134l-24 134h-35l-3 -214h32l1 87l17 -87h25l17 88l1 -88h32l-2 214h-36zM823 623q-21 0 -34.5 11t-16.5 31q-2 10 -2 19v19q0 20 -1 42t5 42q5 17 17 24.5t29 8.5t31 -5t20 -23q8 -19 7 -42t-1 -43q0 -11 -0.5 -22.5t-2.5 -22.5q-9 -39 -51 -39zM773 401
q-44 0 -52 42q-2 10 -1.5 19.5t0.5 19.5q0 20 -1 42t4 41q5 17 17 25t29 8q17 1 31 -5t21 -23q8 -19 6 -41.5t-2 -42.5v-23t-2 -22q-4 -20 -17 -30t-33 -10zM1052 207h-48v-214h36v94h10l14 -94h36l-18 103q15 13 18 38q1 13 -0.5 26t-7 23.5t-15.5 17t-25 6.5zM302 104
l-37 103h-27v-214h33v105l37 -105h27v214h-33v-103zM571 73h21v-14t-1.5 -18t-6 -14.5t-13.5 -2.5q-6 2 -8 7.5t-3 12.5t-0.5 14t0.5 12v51q0 11 -0.5 23t2.5 23q5 11 16 9q10 -3 11 -13q2 -8 1.5 -16t-0.5 -16h36q0 18 -2.5 39t-20.5 32q-11 6 -24 6.5t-24 -2.5
q-15 -5 -21.5 -17.5t-9.5 -26.5q-2 -15 -1.5 -30.5t0.5 -31.5q0 -15 -0.5 -29.5t1.5 -29.5q2 -13 6.5 -25t15.5 -19q11 -8 26.5 -7.5t25.5 10.5l1 -7h28v111h-56v-31zM917 207l-39 -214h36l8 50h23l8 -50h36l-38 214h-34zM536 625v194q18 0 38.5 0.5t36.5 -8.5
q11 -6 16.5 -19t5.5 -27.5t-6 -26.5t-18 -16l27 -97h-27l-25 91h-21v-91h-27zM482 104l-18 20l-11 10.5t-8 13.5q-3 8 -0.5 18.5t13.5 9.5q6 -1 8.5 -5.5t3.5 -11t1.5 -13t0.5 -10.5l33 2q0 19 -4.5 38.5t-22.5 28.5q-12 5 -23.5 4t-21 -6.5t-16 -15t-7.5 -21.5
q-2 -13 0 -25.5t10 -23.5q3 -6 8 -10.5t9 -9.5l23 -25t12 -30q0 -5 -1.5 -11t-7.5 -7q-9 -3 -14 8q-5 8 -5.5 18t-1.5 20l-33 -3q0 -13 1.5 -25.5t6.5 -25.5q8 -15 22 -21.5t30 -3.5q17 3 26.5 15.5t11.5 27.5q2 20 -4.5 38t-20.5 32zM323 625v194h42q14 0 27 -3.5t21 -17.5
q8 -17 7 -39t-16 -34q-11 -9 -25.5 -9.5t-28.5 -0.5v-90h-27zM1250 88h34v30h-34v57h42v32h-78v-214h78v31h-42v64zM852 403v194h18l56 -129v129h23v-194h-18l-56 132v-132h-23zM904 625v194h18l55 -129v129h22v-194h-17l-56 132v-132h-22zM398 404q-18 -7 -38.5 -1
t-28.5 26q-5 11 -5.5 22.5t-0.5 24.5v121h26v-129q0 -11 1.5 -25.5t15.5 -19.5q10 -4 17 -1t11 10t5.5 15.5t1.5 16.5q1 16 0.5 31t-0.5 31v71h26v-89q0 -12 1 -28t-1.5 -31t-9 -27.5t-21.5 -17.5zM1019 625l42 194h25l41 -194h-25l-9 48h-40l-9 -48h-25zM503 401
q-25 0 -37.5 16.5t-13.5 40.5l24 6q1 -9 2.5 -18.5t8.5 -16.5q6 -6 15 -6.5t16 4.5q8 7 7 18.5t-6 19.5q-4 6 -9.5 11l-11.5 10q-9 9 -20 18t-18 20q-12 19 -6.5 42.5t27.5 30.5q11 3 24.5 2t22.5 -8q10 -8 13.5 -19.5t4.5 -22.5l-22 -7q-1 11 -4.5 22.5t-16.5 13.5
q-9 1 -16.5 -3t-9.5 -14q-2 -8 0.5 -14.5t7.5 -12.5t11.5 -11l11.5 -9q13 -11 24.5 -23.5t15.5 -29.5q5 -23 -7.5 -41.5t-37.5 -18.5zM706 623q-24 0 -37 16.5t-14 39.5l24 6q1 -9 3 -18.5t8 -15.5t15 -7t16 5q8 7 7 18.5t-6 19.5q-4 6 -9.5 11l-11.5 10l-20 17t-18 20
q-6 10 -7.5 21.5t1 22t9.5 18.5t18 11t24.5 2t22.5 -8q10 -7 13.5 -19t4.5 -23l-22 -6q-1 11 -4.5 22.5t-16.5 13.5q-9 1 -16.5 -3.5t-9.5 -13.5q-3 -17 8.5 -28t22.5 -20q13 -11 24.5 -23t15.5 -29q5 -23 -7.5 -41.5t-37.5 -18.5zM643 -34h32l59 268h-34zM439 625v194h75
v-20h-48v-64h39v-20h-39v-71h49v-19h-76zM571 403v194h75v-20h-48v-64h39v-19h-39v-72h48v-19h-75zM811 646q12 -5 26 0q7 4 9 10.5t3 13.5v23v67q0 8 -0.5 17t-6.5 16q-5 5 -11.5 6.5t-12.5 -0.5q-14 -1 -19 -17q-4 -14 -2.5 -31t1.5 -31v-36q0 -10 1 -21.5t12 -16.5z
M759 424q5 -2 13 -2t13 2q7 4 9.5 11t3.5 14q1 5 0.5 11t-0.5 11v68q0 8 -0.5 17t-6.5 15q-5 5 -11.5 6.5t-13.5 0.5q-14 -3 -18 -18q-3 -14 -2 -30.5t1 -31.5v-35q0 -11 1 -22.5t11 -16.5zM1103 403v41q0 7 1 14.5t-1 14.5q-2 10 -5.5 19t-7.5 18l-28 87h25l30 -93l28 93
h26l-12.5 -40l-13.5 -40l-14 -41q-2 -6 -2 -12.5v-12.5v-48h-26zM1147 625v194h27v-175h50v-19h-77zM979 403v194h27v-175h49v-19h-76zM433 -162q-11 0 -17 5.5t-8.5 13.5t-2.5 17.5v17.5t0.5 17t3.5 15.5t9 11t18 3.5q10 -1 15 -6t7.5 -12.5t2.5 -16.5v-16q0 -8 -0.5 -16.5
t-3 -16t-8 -12.5t-16.5 -5zM1127 -161v99q10 0 22.5 0.5t20.5 -6.5q8 -8 8 -20.5v-23.5v-23.5t-10 -20.5q-8 -6 -20 -5.5t-21 0.5zM1185 -285q-11 0 -17 5.5t-8 13.5t-2 17.5v17.5q0 9 0.5 17.5t3.5 15.5t9 11t18 3q10 -1 15 -6t6.5 -12.5t1.5 -16.5v-16v-16.5t-2.5 -16
t-8 -12.5t-16.5 -5zM349 -285q-12 0 -17.5 5.5t-7.5 13.5t-2 17.5v17.5q0 9 0.5 17.5t3.5 15.5t9 11t17 3q10 -1 15 -6t7 -12.5t2 -16.5v-16v-16.5t-2.5 -16t-8 -12.5t-16.5 -5zM601 -284v99q9 0 19.5 1t18.5 -4q6 -3 9 -9.5t3 -14t-3 -14t-10 -8.5l15 -50h-14l-12 47h-11
v-47h-15zM389 -284l2 99h14l18 -80l17 80h13l2 -99h-11l-1 72l-17 -72h-8l-16 72l-1 -72h-12zM470 -284l2 99h14l17 -80l18 80h14l1 -99h-10l-2 72l-17 -72h-8l-16 72l-2 -72h-11zM1008 -284v99q9 0 19 1t18 -4q6 -3 9 -9.5t3 -14t-3 -14t-9 -8.5l14 -50h-14l-12 47h-11v-47
h-14zM474 -161v99q9 0 19 1t18 -4q6 -3 9 -10t3.5 -14.5t-2.5 -14t-10 -8.5l14 -49h-13l-14 46h-10v-46h-14zM484 256v100h25.5t20.5 -11q4 -8 3.5 -19.5t-8.5 -17.5q-6 -5 -13 -5.5t-14 -0.5v-46h-14zM1062 -161v99h9l28 -66v66h12v-99h-9l-28 67v-67h-12zM615 -161v99h13
v-43h27v43h13v-99h-13v46h-27v-46h-13zM1227 -284v99h9l28 -66v66h11v-99h-9l-28 67v-67h-11zM636 256l21 100h14l21 -100h-14l-4 26h-20l-5 -26h-13zM753 -284l22 99h13l21 -99h-13l-4 25h-21l-5 -25h-13zM997 -161l20 99h14l21 -99h-13l-5 25h-20l-5 -25h-12zM1194 445
l-8 152h26l-9 -152h-9zM846 -161q-14 -5 -24.5 2t-12.5 21q-1 6 -0.5 12t0.5 11v53h13v-44q0 -5 -0.5 -12.5t0 -15t3.5 -13t10 -5.5t10 5.5t4 13t0.5 15t-0.5 12.5v44h12v-45q0 -6 0.5 -14.5t-0.5 -16t-4.5 -14t-10.5 -9.5zM350 735q7 0 14 -0.5t14 1.5q11 3 13.5 11t2.5 17
q1 11 -1.5 21t-14.5 13q-7 2 -14 1.5t-14 -0.5v-64zM563 735h14t14 2q10 5 13 13.5t2 18.5q0 9 -2.5 16.5t-12.5 11.5q-7 2 -14 2h-14v-64zM285 -285q-13 0 -18.5 7t-7.5 17.5t-1.5 22.5t0.5 21q0 14 7 24.5t23 8.5t19 -13t3 -23h-13q0 5 0.5 9.5t-1.5 9.5q-2 6 -9.5 6.5
t-11.5 -4.5q-4 -6 -3 -17.5t1 -18.5t-1 -18t4 -17q3 -5 10.5 -4t9.5 7q2 5 1.5 10t-0.5 10h13q0 -14 -4 -26t-21 -12zM690 -285q-13 0 -18.5 7t-7 17.5t-1 22.5t0.5 21q0 14 6.5 24.5t22.5 8.5t19 -13t3 -23h-13q0 5 0.5 9.5t-1.5 9.5q-2 6 -9.5 6.5t-11.5 -4.5
q-5 -6 -4 -17.5t1 -18.5t-0.5 -18t4.5 -17q3 -5 10.5 -4t9.5 7q2 5 1.5 10t-0.5 10h13q0 -14 -4 -26t-21 -12zM953 255q-13 0 -19 8.5t-7 20.5l13 4q0 -5 2 -12t7 -9q7 -2 11 1.5t4 9.5q1 11 -8 18t-16 14q-9 8 -12.5 20.5t7.5 21.5q5 4 13 4.5t14 -1.5q7 -3 10 -10t4 -14
l-12 -3l-2 10t-6 8q-4 2 -9 0t-6 -7q-4 -8 2.5 -14l11.5 -11q6 -5 12.5 -11.5t8.5 -15.5q3 -12 -3 -22t-20 -10zM725 255q-13 0 -19 8.5t-7 20.5l12 4q0 -5 2 -12t7 -9q7 -2 11.5 1.5t4.5 9.5q0 11 -9 18t-16 14q-8 8 -11.5 20.5t7.5 21.5q5 4 13 4.5t14 -1.5q7 -3 10 -10
t4 -14l-12 -3l-2 10t-6 8q-5 2 -9.5 0t-6.5 -7q-3 -8 3 -14l11 -11q7 -5 13.5 -11.5t8.5 -15.5q3 -12 -3.5 -22t-19.5 -10zM1095 -285q-13 0 -19 8.5t-7 20.5l12 3q0 -5 2 -11.5t7 -8.5q7 -3 11.5 0.5t4.5 9.5q0 11 -9 18.5l-16 13.5q-8 8 -11.5 21t7.5 21q5 5 13 5.5
t14 -2.5q7 -2 10 -9t4 -14l-12 -4l-2 10.5t-6 7.5t-9.5 0.5t-6.5 -6.5q-3 -8 3 -14l11 -11q7 -6 13.5 -12.5t8.5 -15.5q3 -12 -3.5 -21.5t-19.5 -9.5zM855 256l-22 100h13l15 -73l16 73h12l-22 -100h-12zM914 -284l-23 99h13l16 -73l14 73h13l-22 -99h-11zM759 256v100h39
v-10h-24v-33h20v-10h-20v-37h25v-10h-40zM683 -161v99h39v-10h-24v-33h20v-10h-20v-37h24v-9h-39zM958 -284v99h39v-10h-25v-32h20v-10h-20v-37h25v-10h-39zM552 -284v99h38v-10h-25v-32h21v-10h-21v-37h25v-10h-38zM591 256v100h39v-10h-25v-33h20v-10h-20v-37h25v-10h-39z
M426 -150q9 -4 13 -1t5.5 9t1.5 13.5v12.5q0 8 1 23.5t-7 19.5q-10 5 -15 -1.5t-5 -14.5v-16q0 -3 -0.5 -10t-0.5 -14t1.5 -13t5.5 -8zM1179 -272q8 -4 12.5 -1.5t6 8.5t1.5 13.5v12.5q0 4 0.5 10.5t0 13t-2 12t-5.5 7.5q-10 5 -14.5 -1.5t-4.5 -14.5v-15q0 -3 -0.5 -10
t-0.5 -14.5t1.5 -13.5t5.5 -7zM342 -272q8 -4 12.5 -1.5t6 8.5t1.5 13.5v12.5q0 4 0.5 10.5t0.5 13t-1.5 12t-5.5 7.5q-11 5 -15.5 -1.5t-4.5 -14.5q-1 -4 -0.5 -7.5t0.5 -7.5q0 -3 -0.5 -10t-0.5 -14.5t1.5 -13.5t5.5 -7zM359 -161v99h39v-10h-24v-33h19v-10h-19v-46h-15z
M762 -161v99h38v-10h-25v-33h19v-10h-19v-46h-13zM1141 -152q8 0 14.5 1.5t8.5 12.5v26v25q-1 11 -7.5 13t-15.5 2v-80zM576 -161v89h-18v10h50v-10h-18v-89h-14zM1029 256v90h-18v10h49v-10h-17v-90h-14zM820 -284v99h13v-89h26v-10h-39zM877 -161v99h13v-90h25v-9h-38z
M925 -161v99h14v-90h25v-9h-39zM543 256v100h13v-90h25v-10h-38zM900 256v100h14v-100h-14zM1057 693h33l-17 88zM358 -7h36v40h-36v-40zM1040 175q5 0 11.5 0.5t10.5 -3.5q5 -8 4.5 -24.5t-5.5 -24.5q-5 -5 -10.5 -5h-10.5v57zM729 -284v99h14v-99h-14zM1130 -284v99h14
v-99h-14zM988 256v100h14v-100h-14zM1186 403v27h26v-27h-26zM498 312h7t8 2q5 2 6 7.5t1 10.5q-1 11 -7 12.5t-15 1.5v-34zM488 -105q9 0 15.5 3t6.5 14t-6 13.5t-16 2.5v-33zM1022 -227q9 0 15.5 2.5t6.5 13.5t-6.5 13.5t-15.5 2.5v-32zM616 -227q9 0 15 2.5t6 13.5
t-6 13.5t-15 2.5v-32zM773 -249h17l-8 45zM1016 -126h17l-8 45zM655 292h17l-8 45zM927 75l7 42l6 -42h-13zM821 -7q12 0 22 5q12 7 19 21t8.5 30.5t-3.5 32t-15 24.5q15 12 17 28q2 13 0.5 26t-7 23.5t-16 17t-25.5 6.5h-47v-214h47zM810 94h10.5t9.5 -5q3 -4 4.5 -12.5
t2 -18t-1 -18t-4.5 -12.5t-9.5 -3.5t-11.5 0.5v69zM810 175q5 0 11.5 0.5t9.5 -3.5q6 -8 5.5 -24.5t-6.5 -24.5q-4 -5 -9.5 -5h-10.5v57zM1346 -7v77l-41 137h35l26 -93l25 93h34l-6.5 -23l-8 -27.5t-11.5 -37.5l-17 -53v-73h-36zM1155 207h-36v-214h78v31h-42v183z" />
    <glyph glyph-name="sterling" unicode="&#xa3;" 
d="M173 207l-25 -134l-24 134h-35l-3 -214h32l1 87l17 -87h25l17 88l1 -88h32l-2 214h-36zM823 623q-21 0 -34.5 11t-16.5 31q-2 10 -2 19v19q0 20 -1 42t5 42q5 17 17 24.5t29 8.5t31 -5t20 -23q8 -19 7 -42t-1 -43q0 -11 -0.5 -22.5t-2.5 -22.5q-9 -39 -51 -39zM773 401
q-44 0 -52 42q-2 10 -1.5 19.5t0.5 19.5q0 20 -1 42t4 41q5 17 17 25t29 8q17 1 31 -5t21 -23q8 -19 6 -41.5t-2 -42.5v-23t-2 -22q-4 -20 -17 -30t-33 -10zM1052 207h-48v-214h36v94h10l14 -94h36l-18 103q15 13 18 38q1 13 -0.5 26t-7 23.5t-15.5 17t-25 6.5zM302 104
l-37 103h-27v-214h33v105l37 -105h27v214h-33v-103zM571 73h21v-14t-1.5 -18t-6 -14.5t-13.5 -2.5q-6 2 -8 7.5t-3 12.5t-0.5 14t0.5 12v51q0 11 -0.5 23t2.5 23q5 11 16 9q10 -3 11 -13q2 -8 1.5 -16t-0.5 -16h36q0 18 -2.5 39t-20.5 32q-11 6 -24 6.5t-24 -2.5
q-15 -5 -21.5 -17.5t-9.5 -26.5q-2 -15 -1.5 -30.5t0.5 -31.5q0 -15 -0.5 -29.5t1.5 -29.5q2 -13 6.5 -25t15.5 -19q11 -8 26.5 -7.5t25.5 10.5l1 -7h28v111h-56v-31zM917 207l-39 -214h36l8 50h23l8 -50h36l-38 214h-34zM536 625v194q18 0 38.5 0.5t36.5 -8.5
q11 -6 16.5 -19t5.5 -27.5t-6 -26.5t-18 -16l27 -97h-27l-25 91h-21v-91h-27zM482 104l-18 20l-11 10.5t-8 13.5q-3 8 -0.5 18.5t13.5 9.5q6 -1 8.5 -5.5t3.5 -11t1.5 -13t0.5 -10.5l33 2q0 19 -4.5 38.5t-22.5 28.5q-12 5 -23.5 4t-21 -6.5t-16 -15t-7.5 -21.5
q-2 -13 0 -25.5t10 -23.5q3 -6 8 -10.5t9 -9.5l23 -25t12 -30q0 -5 -1.5 -11t-7.5 -7q-9 -3 -14 8q-5 8 -5.5 18t-1.5 20l-33 -3q0 -13 1.5 -25.5t6.5 -25.5q8 -15 22 -21.5t30 -3.5q17 3 26.5 15.5t11.5 27.5q2 20 -4.5 38t-20.5 32zM323 625v194h42q14 0 27 -3.5t21 -17.5
q8 -17 7 -39t-16 -34q-11 -9 -25.5 -9.5t-28.5 -0.5v-90h-27zM1250 88h34v30h-34v57h42v32h-78v-214h78v31h-42v64zM852 403v194h18l56 -129v129h23v-194h-18l-56 132v-132h-23zM904 625v194h18l55 -129v129h22v-194h-17l-56 132v-132h-22zM398 404q-18 -7 -38.5 -1
t-28.5 26q-5 11 -5.5 22.5t-0.5 24.5v121h26v-129q0 -11 1.5 -25.5t15.5 -19.5q10 -4 17 -1t11 10t5.5 15.5t1.5 16.5q1 16 0.5 31t-0.5 31v71h26v-89q0 -12 1 -28t-1.5 -31t-9 -27.5t-21.5 -17.5zM1019 625l42 194h25l41 -194h-25l-9 48h-40l-9 -48h-25zM503 401
q-25 0 -37.5 16.5t-13.5 40.5l24 6q1 -9 2.5 -18.5t8.5 -16.5q6 -6 15 -6.5t16 4.5q8 7 7 18.5t-6 19.5q-4 6 -9.5 11l-11.5 10q-9 9 -20 18t-18 20q-12 19 -6.5 42.5t27.5 30.5q11 3 24.5 2t22.5 -8q10 -8 13.5 -19.5t4.5 -22.5l-22 -7q-1 11 -4.5 22.5t-16.5 13.5
q-9 1 -16.5 -3t-9.5 -14q-2 -8 0.5 -14.5t7.5 -12.5t11.5 -11l11.5 -9q13 -11 24.5 -23.5t15.5 -29.5q5 -23 -7.5 -41.5t-37.5 -18.5zM706 623q-24 0 -37 16.5t-14 39.5l24 6q1 -9 3 -18.5t8 -15.5t15 -7t16 5q8 7 7 18.5t-6 19.5q-4 6 -9.5 11l-11.5 10l-20 17t-18 20
q-6 10 -7.5 21.5t1 22t9.5 18.5t18 11t24.5 2t22.5 -8q10 -7 13.5 -19t4.5 -23l-22 -6q-1 11 -4.5 22.5t-16.5 13.5q-9 1 -16.5 -3.5t-9.5 -13.5q-3 -17 8.5 -28t22.5 -20q13 -11 24.5 -23t15.5 -29q5 -23 -7.5 -41.5t-37.5 -18.5zM643 -34h32l59 268h-34zM439 625v194h75
v-20h-48v-64h39v-20h-39v-71h49v-19h-76zM571 403v194h75v-20h-48v-64h39v-19h-39v-72h48v-19h-75zM811 646q12 -5 26 0q7 4 9 10.5t3 13.5v23v67q0 8 -0.5 17t-6.5 16q-5 5 -11.5 6.5t-12.5 -0.5q-14 -1 -19 -17q-4 -14 -2.5 -31t1.5 -31v-36q0 -10 1 -21.5t12 -16.5z
M759 424q5 -2 13 -2t13 2q7 4 9.5 11t3.5 14q1 5 0.5 11t-0.5 11v68q0 8 -0.5 17t-6.5 15q-5 5 -11.5 6.5t-13.5 0.5q-14 -3 -18 -18q-3 -14 -2 -30.5t1 -31.5v-35q0 -11 1 -22.5t11 -16.5zM1103 403v41q0 7 1 14.5t-1 14.5q-2 10 -5.5 19t-7.5 18l-28 87h25l30 -93l28 93
h26l-12.5 -40l-13.5 -40l-14 -41q-2 -6 -2 -12.5v-12.5v-48h-26zM1147 625v194h27v-175h50v-19h-77zM979 403v194h27v-175h49v-19h-76zM433 -162q-11 0 -17 5.5t-8.5 13.5t-2.5 17.5v17.5t0.5 17t3.5 15.5t9 11t18 3.5q10 -1 15 -6t7.5 -12.5t2.5 -16.5v-16q0 -8 -0.5 -16.5
t-3 -16t-8 -12.5t-16.5 -5zM1127 -161v99q10 0 22.5 0.5t20.5 -6.5q8 -8 8 -20.5v-23.5v-23.5t-10 -20.5q-8 -6 -20 -5.5t-21 0.5zM1185 -285q-11 0 -17 5.5t-8 13.5t-2 17.5v17.5q0 9 0.5 17.5t3.5 15.5t9 11t18 3q10 -1 15 -6t6.5 -12.5t1.5 -16.5v-16v-16.5t-2.5 -16
t-8 -12.5t-16.5 -5zM349 -285q-12 0 -17.5 5.5t-7.5 13.5t-2 17.5v17.5q0 9 0.5 17.5t3.5 15.5t9 11t17 3q10 -1 15 -6t7 -12.5t2 -16.5v-16v-16.5t-2.5 -16t-8 -12.5t-16.5 -5zM601 -284v99q9 0 19.5 1t18.5 -4q6 -3 9 -9.5t3 -14t-3 -14t-10 -8.5l15 -50h-14l-12 47h-11
v-47h-15zM389 -284l2 99h14l18 -80l17 80h13l2 -99h-11l-1 72l-17 -72h-8l-16 72l-1 -72h-12zM470 -284l2 99h14l17 -80l18 80h14l1 -99h-10l-2 72l-17 -72h-8l-16 72l-2 -72h-11zM1008 -284v99q9 0 19 1t18 -4q6 -3 9 -9.5t3 -14t-3 -14t-9 -8.5l14 -50h-14l-12 47h-11v-47
h-14zM474 -161v99q9 0 19 1t18 -4q6 -3 9 -10t3.5 -14.5t-2.5 -14t-10 -8.5l14 -49h-13l-14 46h-10v-46h-14zM484 256v100h25.5t20.5 -11q4 -8 3.5 -19.5t-8.5 -17.5q-6 -5 -13 -5.5t-14 -0.5v-46h-14zM1062 -161v99h9l28 -66v66h12v-99h-9l-28 67v-67h-12zM615 -161v99h13
v-43h27v43h13v-99h-13v46h-27v-46h-13zM1227 -284v99h9l28 -66v66h11v-99h-9l-28 67v-67h-11zM636 256l21 100h14l21 -100h-14l-4 26h-20l-5 -26h-13zM753 -284l22 99h13l21 -99h-13l-4 25h-21l-5 -25h-13zM997 -161l20 99h14l21 -99h-13l-5 25h-20l-5 -25h-12zM1194 445
l-8 152h26l-9 -152h-9zM846 -161q-14 -5 -24.5 2t-12.5 21q-1 6 -0.5 12t0.5 11v53h13v-44q0 -5 -0.5 -12.5t0 -15t3.5 -13t10 -5.5t10 5.5t4 13t0.5 15t-0.5 12.5v44h12v-45q0 -6 0.5 -14.5t-0.5 -16t-4.5 -14t-10.5 -9.5zM350 735q7 0 14 -0.5t14 1.5q11 3 13.5 11t2.5 17
q1 11 -1.5 21t-14.5 13q-7 2 -14 1.5t-14 -0.5v-64zM563 735h14t14 2q10 5 13 13.5t2 18.5q0 9 -2.5 16.5t-12.5 11.5q-7 2 -14 2h-14v-64zM285 -285q-13 0 -18.5 7t-7.5 17.5t-1.5 22.5t0.5 21q0 14 7 24.5t23 8.5t19 -13t3 -23h-13q0 5 0.5 9.5t-1.5 9.5q-2 6 -9.5 6.5
t-11.5 -4.5q-4 -6 -3 -17.5t1 -18.5t-1 -18t4 -17q3 -5 10.5 -4t9.5 7q2 5 1.5 10t-0.5 10h13q0 -14 -4 -26t-21 -12zM690 -285q-13 0 -18.5 7t-7 17.5t-1 22.5t0.5 21q0 14 6.5 24.5t22.5 8.5t19 -13t3 -23h-13q0 5 0.5 9.5t-1.5 9.5q-2 6 -9.5 6.5t-11.5 -4.5
q-5 -6 -4 -17.5t1 -18.5t-0.5 -18t4.5 -17q3 -5 10.5 -4t9.5 7q2 5 1.5 10t-0.5 10h13q0 -14 -4 -26t-21 -12zM953 255q-13 0 -19 8.5t-7 20.5l13 4q0 -5 2 -12t7 -9q7 -2 11 1.5t4 9.5q1 11 -8 18t-16 14q-9 8 -12.5 20.5t7.5 21.5q5 4 13 4.5t14 -1.5q7 -3 10 -10t4 -14
l-12 -3l-2 10t-6 8q-4 2 -9 0t-6 -7q-4 -8 2.5 -14l11.5 -11q6 -5 12.5 -11.5t8.5 -15.5q3 -12 -3 -22t-20 -10zM725 255q-13 0 -19 8.5t-7 20.5l12 4q0 -5 2 -12t7 -9q7 -2 11.5 1.5t4.5 9.5q0 11 -9 18t-16 14q-8 8 -11.5 20.5t7.5 21.5q5 4 13 4.5t14 -1.5q7 -3 10 -10
t4 -14l-12 -3l-2 10t-6 8q-5 2 -9.5 0t-6.5 -7q-3 -8 3 -14l11 -11q7 -5 13.5 -11.5t8.5 -15.5q3 -12 -3.5 -22t-19.5 -10zM1095 -285q-13 0 -19 8.5t-7 20.5l12 3q0 -5 2 -11.5t7 -8.5q7 -3 11.5 0.5t4.5 9.5q0 11 -9 18.5l-16 13.5q-8 8 -11.5 21t7.5 21q5 5 13 5.5
t14 -2.5q7 -2 10 -9t4 -14l-12 -4l-2 10.5t-6 7.5t-9.5 0.5t-6.5 -6.5q-3 -8 3 -14l11 -11q7 -6 13.5 -12.5t8.5 -15.5q3 -12 -3.5 -21.5t-19.5 -9.5zM855 256l-22 100h13l15 -73l16 73h12l-22 -100h-12zM914 -284l-23 99h13l16 -73l14 73h13l-22 -99h-11zM759 256v100h39
v-10h-24v-33h20v-10h-20v-37h25v-10h-40zM683 -161v99h39v-10h-24v-33h20v-10h-20v-37h24v-9h-39zM958 -284v99h39v-10h-25v-32h20v-10h-20v-37h25v-10h-39zM552 -284v99h38v-10h-25v-32h21v-10h-21v-37h25v-10h-38zM591 256v100h39v-10h-25v-33h20v-10h-20v-37h25v-10h-39z
M426 -150q9 -4 13 -1t5.5 9t1.5 13.5v12.5q0 8 1 23.5t-7 19.5q-10 5 -15 -1.5t-5 -14.5v-16q0 -3 -0.5 -10t-0.5 -14t1.5 -13t5.5 -8zM1179 -272q8 -4 12.5 -1.5t6 8.5t1.5 13.5v12.5q0 4 0.5 10.5t0 13t-2 12t-5.5 7.5q-10 5 -14.5 -1.5t-4.5 -14.5v-15q0 -3 -0.5 -10
t-0.5 -14.5t1.5 -13.5t5.5 -7zM342 -272q8 -4 12.5 -1.5t6 8.5t1.5 13.5v12.5q0 4 0.5 10.5t0.5 13t-1.5 12t-5.5 7.5q-11 5 -15.5 -1.5t-4.5 -14.5q-1 -4 -0.5 -7.5t0.5 -7.5q0 -3 -0.5 -10t-0.5 -14.5t1.5 -13.5t5.5 -7zM359 -161v99h39v-10h-24v-33h19v-10h-19v-46h-15z
M762 -161v99h38v-10h-25v-33h19v-10h-19v-46h-13zM1141 -152q8 0 14.5 1.5t8.5 12.5v26v25q-1 11 -7.5 13t-15.5 2v-80zM576 -161v89h-18v10h50v-10h-18v-89h-14zM1029 256v90h-18v10h49v-10h-17v-90h-14zM820 -284v99h13v-89h26v-10h-39zM877 -161v99h13v-90h25v-9h-38z
M925 -161v99h14v-90h25v-9h-39zM543 256v100h13v-90h25v-10h-38zM900 256v100h14v-100h-14zM1057 693h33l-17 88zM358 -7h36v40h-36v-40zM1040 175q5 0 11.5 0.5t10.5 -3.5q5 -8 4.5 -24.5t-5.5 -24.5q-5 -5 -10.5 -5h-10.5v57zM729 -284v99h14v-99h-14zM1130 -284v99h14
v-99h-14zM988 256v100h14v-100h-14zM1186 403v27h26v-27h-26zM498 312h7t8 2q5 2 6 7.5t1 10.5q-1 11 -7 12.5t-15 1.5v-34zM488 -105q9 0 15.5 3t6.5 14t-6 13.5t-16 2.5v-33zM1022 -227q9 0 15.5 2.5t6.5 13.5t-6.5 13.5t-15.5 2.5v-32zM616 -227q9 0 15 2.5t6 13.5
t-6 13.5t-15 2.5v-32zM773 -249h17l-8 45zM1016 -126h17l-8 45zM655 292h17l-8 45zM927 75l7 42l6 -42h-13zM821 -7q12 0 22 5q12 7 19 21t8.5 30.5t-3.5 32t-15 24.5q15 12 17 28q2 13 0.5 26t-7 23.5t-16 17t-25.5 6.5h-47v-214h47zM810 94h10.5t9.5 -5q3 -4 4.5 -12.5
t2 -18t-1 -18t-4.5 -12.5t-9.5 -3.5t-11.5 0.5v69zM810 175q5 0 11.5 0.5t9.5 -3.5q6 -8 5.5 -24.5t-6.5 -24.5q-4 -5 -9.5 -5h-10.5v57zM1346 -7v77l-41 137h35l26 -93l25 93h34l-6.5 -23l-8 -27.5t-11.5 -37.5l-17 -53v-73h-36zM1155 207h-36v-214h78v31h-42v183z" />
    <glyph glyph-name="endash" unicode="&#x2013;" horiz-adv-x="443" 
d="M74 229q35 6 69.5 7.5t65 -0.5t56.5 -6t44 -9t31 -13t16.5 -16.5t-4 -14.5t-28.5 -6h-47.5t-58 -2t-66.5 -6.5t-72 -14.5q-38 -10 -57 -1.5t-20 24.5t16.5 33.5t54.5 24.5z" />
    <glyph glyph-name="emdash" unicode="&#x2014;" horiz-adv-x="573" 
d="M90 236q48 6 95.5 6.5t90.5 -2.5t79 -8.5t62 -11.5q25 -6 43 -14.5t23.5 -16.5t-4 -13.5t-39.5 -5.5q-60 1 -147.5 1.5t-191.5 -16.5q-52 -9 -79 0.5t-29 25.5t22 32.5t75 22.5z" />
    <glyph glyph-name="underscore" unicode="_" horiz-adv-x="70" 
d="M892 -114q92 14 202.5 23t229.5 10t242.5 -8t240.5 -32q33 -6 45.5 -18.5t9.5 -24.5t-19.5 -19.5t-41.5 -4.5q-109 12 -230 11t-240 -13t-229 -33t-196 -49q-63 -21 -107 -20t-66.5 15.5t-24.5 38t17.5 48t61 45.5t105.5 31z" />
    <glyph glyph-name="plus" unicode="+" horiz-adv-x="363" 
d="M53 256q10 2 41.5 4t69.5 4q11 22 22 52q11 32 27 42t28 2.5t15.5 -29t-9.5 -51.5l-6 -13q23 1 39.5 1h23.5q16 -1 21.5 -13.5t2.5 -26.5t-13 -26t-23 -12q-11 0 -38.5 -0.5t-59.5 0.5q-19 -26 -37.5 -45t-32.5 -31q-13 -11 -25 -16t-19.5 -3.5t-8.5 9.5t10 24
q8 13 19 28.5t23 34.5q-30 1 -53.5 2.5t-33.5 3.5q-15 3 -20 11.5t-2 17.5t13 17.5t26 12.5z" />
    <glyph glyph-name="minus" unicode="&#x2212;" horiz-adv-x="321" 
d="M34 256q7 2 26 3.5t44.5 2.5t54 2.5t54 2.5t45 1h26.5q16 -1 21.5 -13.5t2.5 -26.5t-13 -26t-23 -12h-50t-78.5 0.5t-78 2t-49.5 4.5q-15 3 -20 11.5t-2 17.5t13.5 17.5t26.5 12.5z" />
    <glyph glyph-name="equal" unicode="=" horiz-adv-x="355" 
d="M67 308q7 2 26.5 3.5t45 3t54 3t54 2t45 0.5h26.5q16 -1 21.5 -13t2.5 -26.5t-13 -26t-23 -11.5q-14 0 -50.5 -0.5t-78 0.5t-78 2t-49.5 4q-15 4 -20 12t-2 17.5t13 17.5t26 12zM33 201q7 2 26.5 3.5t45 3t54 3t54 2t45 0.5h26.5q16 -1 21 -13.5t2 -26.5t-13 -26t-23 -12
h-29h-45.5t-53.5 0.5l-53.5 1t-45.5 2t-28 3.5q-15 3 -20.5 11.5t-2.5 17.5t13.5 17.5t26.5 12.5z" />
    <glyph glyph-name="multiply" unicode="&#xd7;" horiz-adv-x="335" 
d="M9 162q9 9 42.5 36l74.5 59q-7 13 -15 25.5l-17 25.5q-18 26 -16 43.5t14.5 22.5t32 -3.5t35.5 -34.5l10 -18.5t9 -18.5l66 49.5t40 28.5q19 13 32.5 7.5t19 -19t1.5 -30.5t-19 -28q-12 -10 -43.5 -32.5l-69.5 -50.5q6 -21 8.5 -39.5t3.5 -32.5q1 -15 -2 -27t-9 -17
t-13 -1.5t-13 20.5l-10.5 28.5t-12.5 33.5l-80 -55.5t-52 -32.5q-19 -10 -30 -7.5t-13 12t4.5 25t21.5 31.5z" />
    <glyph glyph-name="plusminus" unicode="&#xb1;" horiz-adv-x="386" 
d="M108 270q10 2 41.5 4t69.5 4q11 22 22 52q11 32 27 42t28 2.5t15.5 -29t-9.5 -51.5l-6 -13q23 1 39.5 1h23.5q16 -1 21.5 -13.5t2.5 -26.5t-13 -26t-23 -12q-11 0 -38.5 -0.5t-59.5 0.5q-19 -26 -37.5 -45t-32.5 -31q-13 -11 -25 -16t-19.5 -3.5t-8.5 9.5t10 24
q8 13 19 28.5t23 34.5q-30 1 -53.5 2.5t-33.5 3.5q-15 3 -20 11.5t-2 17.5t13 17.5t26 12.5zM43 80q7 2 26.5 3.5t45 3t54 3t54 2t45 0.5h26.5q16 -1 21 -13t2 -26t-13 -26t-23 -12q-9 0 -29 -0.5t-45.5 0l-53.5 1l-53.5 1t-45.5 2t-28 3.5q-15 3 -20.5 11.5t-2.5 17.5
t13.5 17t26.5 12z" />
    <glyph glyph-name="bracketleft" unicode="[" horiz-adv-x="430" 
d="M526 573q16 -1 21 -13t2 -26.5t-13 -26t-23 -11.5q-10 0 -28 -0.5t-39 0l-43.5 1t-41.5 1.5l-20 -41.5l-35.5 -76.5l-45.5 -98.5l-50 -107l-48.5 -102.5l-40.5 -85q18 1 40 2.5t42.5 2.5t37 1.5t24.5 -0.5q17 -1 22 -13t2 -26t-13 -26t-23 -12q-11 0 -38.5 1t-59.5 2
t-61.5 1.5t-45.5 -0.5q-32 -2 -41 6t0 39q1 5 12.5 32l29 67.5l39.5 91l45 103l45.5 103l41 90.5l30.5 66.5t15 30.5q6 10 12 14.5t29 3.5q11 -1 43 0t68 2.5t67 3t42 0.5z" />
    <glyph glyph-name="parenleft" unicode="(" horiz-adv-x="365" 
d="M494 564q25 8 41 6t21.5 -9.5t-1.5 -19t-28 -21.5q-54 -26 -105.5 -68.5t-94 -94t-73 -109t-43 -112.5t-4.5 -105t44 -87q15 -16 8.5 -26.5t-26.5 -7.5t-50 24t-62 68q-29 42 -36 93t6.5 104t47 106.5t84.5 102t119 89t152 67.5z" />
    </font>
</defs>
</svg>
